{"glyphs":{"0":{"ha":642,"x_min":231,"x_max":513,"o":"m 513 198 l 485 54 l 465 44 q 327 140 391 93 q 296 186 313 162 q 236 231 270 203 l 231 244 q 273 397 242 297 l 296 403 q 513 198 346 359 m 385 296 q 292 369 326 338 q 259 247 273 315 q 359 180 294 219 q 385 296 366 223 z "},"1":{"ha":642,"x_min":185,"x_max":516,"o":"m 516 85 q 496 -106 516 38 l 481 -115 l 473 -113 l 357 3 q 187 552 353 311 l 185 562 q 223 695 200 630 l 343 601 q 409 497 356 591 q 483 297 449 427 q 516 85 516 167 m 387 99 l 387 168 q 347 424 387 290 q 240 660 307 558 q 214 562 222 604 q 361 228 319 395 q 387 99 368 184 z "},"2":{"ha":642,"x_min":121,"x_max":593,"o":"m 593 578 q 569 414 593 462 q 428 349 533 342 q 489 54 489 176 q 486 -21 489 26 q 481 -96 481 -76 l 467 -109 l 431 -98 l 332 7 q 270 309 332 144 q 123 579 212 465 l 121 592 l 158 693 l 182 696 q 251 621 229 639 q 345 584 294 584 q 419 616 388 584 q 453 692 450 648 q 593 578 500 655 m 462 610 l 461 629 q 345 557 408 557 q 248 588 292 557 q 176 661 220 608 l 149 589 q 342 168 283 411 q 355 79 346 138 l 358 77 q 360 166 360 161 q 292 461 360 296 l 307 480 q 350 476 336 476 q 436 516 406 476 q 462 610 464 553 z "},"3":{"ha":696,"x_min":73,"x_max":690,"o":"m 690 591 q 551 378 690 378 q 467 414 504 378 q 366 359 427 359 q 407 112 407 253 q 391 -90 407 43 l 376 -102 l 350 -96 l 243 14 q 245 78 245 68 q 75 555 245 323 l 73 568 l 108 688 l 132 692 q 189 623 152 652 q 269 589 229 589 q 382 697 338 589 l 395 706 l 403 706 l 416 694 q 482 614 427 614 q 549 694 530 614 q 690 591 613 651 m 557 629 q 482 587 522 587 q 395 666 435 587 q 262 562 357 562 q 184 591 220 562 q 126 654 163 608 l 101 566 q 272 58 272 345 q 278 231 278 222 q 233 471 278 383 l 248 490 q 269 488 257 488 q 355 547 314 488 l 376 547 q 449 507 403 507 q 557 629 540 507 z "},"4":{"ha":642,"x_min":172,"x_max":609,"o":"m 609 7 l 577 -96 l 562 -106 q 295 -24 446 -88 q 191 113 191 100 q 234 235 191 171 q 317 338 252 262 q 229 378 247 367 q 172 448 172 410 q 253 597 172 512 q 392 709 318 665 l 515 594 l 486 488 q 413 446 477 475 q 547 309 547 321 q 425 153 547 287 q 522 89 475 129 q 609 7 566 48 m 477 104 q 380 129 401 123 q 290 168 319 147 q 276 197 276 178 q 340 298 276 222 q 420 409 410 383 q 338 457 419 414 q 257 522 257 499 q 359 602 257 559 l 377 667 q 199 448 199 540 q 260 391 199 422 q 346 355 263 389 l 351 333 q 263 234 280 257 q 218 113 218 170 q 328 53 218 83 q 453 25 333 52 l 477 104 z "},"5":{"ha":642,"x_min":119,"x_max":627,"o":"m 627 266 q 600 173 627 233 q 520 66 565 97 q 392 35 473 35 q 305 54 340 35 q 236 110 281 66 q 152 191 207 136 q 119 295 119 227 q 176 467 119 376 q 313 568 237 568 q 453 507 391 568 l 582 380 q 627 266 627 336 m 498 376 q 434 489 498 435 q 313 541 373 541 q 202 430 259 541 q 150 267 150 329 q 197 188 150 216 q 290 163 237 163 q 404 191 363 163 q 474 286 444 218 q 498 376 498 340 m 480 304 q 357 240 480 240 q 190 311 190 240 q 214 414 190 363 q 290 476 243 476 q 408 413 336 476 q 480 304 480 349 m 437 313 q 371 347 437 347 q 335 326 355 347 q 311 287 316 304 q 344 272 313 272 q 437 313 437 272 z "},"6":{"ha":682,"x_min":115,"x_max":631,"o":"m 631 55 l 619 -77 l 600 -92 q 471 9 540 -64 q 390 131 408 75 q 378 237 378 166 q 364 374 376 317 q 232 417 271 378 q 134 516 182 467 q 115 633 115 543 q 119 677 115 642 l 132 688 l 146 688 l 158 681 q 294 622 190 622 q 432 647 348 622 l 551 531 q 549 448 549 517 q 547 392 549 429 q 544 335 544 354 q 568 144 544 264 q 625 67 576 103 l 631 55 m 501 152 q 483 179 494 163 q 412 536 412 279 q 418 615 412 541 q 287 595 349 595 q 144 654 216 595 q 142 610 142 640 q 146 549 142 558 q 254 505 161 505 q 370 525 305 505 l 387 512 l 387 491 q 397 330 387 455 q 410 168 404 249 q 492 43 427 67 l 501 152 z "},"7":{"ha":751,"x_min":63,"x_max":676,"o":"m 676 429 l 669 417 q 465 -82 527 342 l 452 -94 l 300 20 q 252 239 283 153 q 142 434 216 333 q 71 501 106 484 l 63 514 l 86 673 l 105 684 l 172 642 q 373 332 299 561 l 404 459 q 439 541 406 470 q 555 688 492 654 l 675 576 l 676 429 m 554 538 l 547 652 q 456 517 499 618 q 400 360 447 496 q 328 146 372 279 q 277 367 294 316 q 180 572 248 459 q 112 651 145 631 l 91 522 q 165 450 121 507 q 324 35 273 312 q 391 258 334 108 q 490 470 448 409 q 554 538 519 513 z "},"8":{"ha":669,"x_min":77,"x_max":676,"o":"m 676 75 l 668 -88 l 617 -85 q 476 60 519 4 q 381 239 418 134 q 315 50 345 115 q 198 -100 261 -70 q 77 14 177 -89 l 77 160 l 83 172 q 197 353 134 200 q 266 562 250 479 q 295 688 280 633 q 439 569 348 650 q 511 300 457 433 q 668 87 579 130 l 676 75 m 547 169 q 463 250 511 187 q 403 351 415 310 l 313 655 q 238 387 298 548 q 104 153 167 195 l 104 39 q 231 273 151 68 q 323 544 296 436 q 398 270 368 357 q 539 39 461 90 l 547 169 z "},"9":{"ha":710,"x_min":135,"x_max":628,"o":"m 628 38 l 610 -113 l 586 -122 l 488 -22 q 466 -9 480 -18 q 407 82 431 15 q 385 190 385 141 q 353 216 385 211 q 275 237 320 220 l 157 355 q 135 443 135 378 q 164 557 135 488 q 224 660 193 627 q 315 696 260 696 q 397 661 355 696 q 463 595 430 627 q 528 528 499 558 q 549 365 544 484 q 562 175 555 218 q 620 52 576 77 l 628 38 m 498 133 q 444 226 457 157 q 433 338 443 231 l 416 536 q 315 669 405 669 q 205 585 254 669 q 162 443 162 510 q 188 368 162 397 q 260 340 214 340 q 383 395 317 340 l 406 385 q 484 12 406 71 l 498 133 m 370 477 l 366 466 q 277 437 323 437 q 222 455 248 437 q 193 502 193 475 q 224 549 193 532 q 283 564 251 564 q 370 477 356 564 z "},"\r":{"ha":271,"x_min":0,"x_max":0,"o":""}," ":{"ha":271,"x_min":0,"x_max":0,"o":""},"!":{"ha":386,"x_min":134,"x_max":257,"o":"m 254 648 q 241 534 254 608 q 220 422 233 496 q 208 204 209 362 l 180 204 q 168 433 180 343 q 146 551 167 439 q 134 669 134 622 q 195 775 134 775 q 254 648 254 775 m 257 94 q 238 53 257 71 q 196 36 220 36 q 154 53 172 36 q 136 94 136 70 q 153 138 136 120 q 196 157 170 157 q 239 138 221 157 q 257 94 257 119 z "},"\"":{"ha":386,"x_min":12,"x_max":369,"o":"m 369 718 q 329 584 369 645 q 232 481 300 541 l 195 521 q 290 673 296 617 q 205 753 205 676 q 228 806 205 785 q 282 827 250 827 q 347 791 323 827 q 369 718 369 760 m 186 718 q 146 584 186 645 q 49 481 117 541 l 12 521 q 106 673 113 617 q 22 753 22 676 q 45 806 22 785 q 99 827 67 827 q 164 791 140 827 q 186 718 186 760 m 346 724 q 329 777 346 754 q 282 803 311 803 q 229 753 229 803 q 311 696 229 696 l 313 664 q 229 519 313 594 l 233 514 q 346 724 346 613 m 163 724 q 146 777 163 754 q 99 803 127 803 q 46 753 46 803 q 128 696 46 696 l 130 664 q 45 519 130 594 l 50 514 q 163 724 163 613 z "},"#":{"ha":555,"x_min":8,"x_max":547,"o":"m 547 517 l 547 450 l 445 450 l 412 288 l 547 288 l 547 220 l 398 220 l 347 -27 l 279 -27 l 328 220 l 169 220 l 117 -27 l 47 -27 l 98 220 l 8 220 l 8 288 l 112 288 l 144 450 l 8 450 l 8 517 l 159 517 l 209 764 l 278 764 l 229 517 l 387 517 l 440 764 l 509 764 l 458 517 l 547 517 m 524 494 l 429 494 l 480 741 l 460 741 l 407 494 l 199 494 l 249 741 l 229 741 l 179 494 l 32 494 l 32 474 l 174 474 l 132 264 l 32 264 l 32 243 l 127 243 l 77 -3 l 98 -3 l 149 243 l 357 243 l 308 -3 l 328 -3 l 378 243 l 524 243 l 524 264 l 382 264 l 425 474 l 524 474 l 524 494 m 405 474 l 361 264 l 153 264 l 195 474 l 405 474 m 375 450 l 215 450 l 182 288 l 341 288 l 375 450 z "},"$":{"ha":555,"x_min":42,"x_max":517,"o":"m 476 708 l 476 526 l 432 526 q 401 641 427 603 q 297 698 370 688 l 297 441 q 434 339 404 368 q 511 195 506 271 q 451 41 517 103 q 297 -26 391 -15 l 297 -96 l 239 -96 l 239 -26 q 47 20 145 -20 l 47 193 l 94 193 q 239 33 104 50 l 239 331 q 114 423 153 383 q 47 557 53 485 q 100 696 42 641 q 239 758 153 746 l 239 810 l 297 810 l 297 759 q 476 708 358 753 m 488 195 q 408 332 482 266 q 273 430 388 351 l 273 724 q 406 672 363 715 q 455 538 448 628 l 442 549 l 452 549 l 452 692 q 273 736 349 732 l 273 786 l 262 786 l 262 737 q 126 686 178 728 q 71 557 66 637 q 140 430 76 489 q 262 343 174 397 l 262 7 q 72 170 89 22 l 71 170 l 71 35 q 262 -4 159 1 l 262 -73 l 273 -73 l 273 -4 q 425 52 366 3 q 488 195 494 106 m 262 724 l 262 437 q 132 597 138 519 q 262 724 125 708 m 425 163 q 273 6 434 33 l 273 336 q 370 264 350 283 q 425 163 421 216 m 239 696 q 156 597 150 680 q 239 481 160 536 l 239 696 m 401 163 q 297 292 397 223 l 297 35 q 401 163 408 62 z "},"%":{"ha":642,"x_min":68,"x_max":578,"o":"m 210 695 q 190 644 210 666 q 140 621 169 621 q 89 642 109 621 q 68 694 68 663 q 89 745 68 724 q 140 766 110 766 q 189 745 168 766 q 210 695 210 724 m 532 820 l 177 -102 l 106 -102 l 458 820 l 532 820 m 578 32 q 557 -18 578 2 q 507 -37 537 -37 q 456 -17 478 -37 q 434 32 434 3 q 456 82 434 62 q 508 103 478 103 q 557 82 536 103 q 578 32 578 60 m 187 694 q 173 728 187 713 q 140 743 159 743 q 106 728 121 743 q 91 695 91 714 q 105 660 91 675 q 140 645 120 645 q 173 660 159 645 q 187 694 187 675 m 498 796 l 474 796 l 140 -79 l 161 -79 l 498 796 m 554 32 q 551 50 554 45 q 509 80 545 80 q 473 66 489 80 q 457 33 457 52 q 507 -14 457 -14 q 554 32 554 -14 z "},"&":{"ha":864,"x_min":18,"x_max":844,"o":"m 844 136 q 663 -28 801 -28 q 472 73 570 -28 q 236 -28 355 -28 q 99 12 157 -28 q 29 133 35 57 q 250 417 18 290 q 210 556 214 498 q 261 706 203 648 q 410 764 318 764 q 517 729 472 764 q 568 630 564 691 q 395 419 576 513 q 522 219 456 311 q 606 392 610 328 q 555 443 602 439 l 555 486 l 807 486 l 807 442 q 732 422 760 439 q 650 305 718 414 q 563 168 567 174 q 709 79 640 79 q 804 167 780 79 l 844 136 m 817 126 q 711 55 787 55 q 532 169 629 55 q 627 317 544 184 q 718 443 699 431 q 765 462 741 457 l 583 462 q 629 392 625 447 q 522 180 635 315 q 362 430 437 296 q 486 505 450 475 q 545 630 549 561 q 501 712 541 681 q 412 741 464 741 q 279 689 330 741 q 234 556 228 637 q 281 406 238 499 q 53 133 43 278 q 115 28 58 67 q 235 -5 165 -5 q 472 106 348 -5 q 662 -5 576 -5 q 817 126 777 -5 m 505 630 q 354 444 513 519 q 321 522 328 506 q 302 604 305 568 q 329 689 299 654 q 409 725 359 725 q 475 697 448 725 q 505 630 503 670 m 460 118 q 292 37 361 37 q 188 79 231 37 q 142 183 146 121 q 288 391 133 303 q 460 118 348 271 m 481 630 q 460 681 479 660 q 410 701 440 701 q 347 672 371 701 q 326 604 323 644 q 366 476 330 559 q 481 630 488 538 m 428 123 q 279 358 333 253 q 165 183 158 284 q 204 96 169 130 q 290 61 239 61 q 428 123 350 61 z "},"'":{"ha":200,"x_min":33,"x_max":168,"o":"m 165 694 q 150 559 168 645 q 119 424 135 492 l 76 424 q 48 551 62 488 q 33 681 33 628 q 96 764 33 764 q 165 694 160 764 m 141 694 q 98 741 138 741 q 57 659 51 741 q 96 448 58 640 l 100 448 q 127 571 114 509 q 141 694 144 650 z "},"(":{"ha":386,"x_min":45,"x_max":374,"o":"m 374 606 q 215 399 264 496 q 158 144 158 286 q 170 74 158 121 q 247 -108 195 -28 q 370 -262 280 -159 l 353 -288 q 268 -231 324 -269 q 191 -165 221 -199 q 45 178 45 -1 q 134 442 45 325 q 347 627 203 535 l 374 606 m 345 598 q 69 178 69 428 q 338 -250 69 -82 l 338 -263 q 134 175 134 -32 q 339 603 134 398 l 345 598 z "},")":{"ha":386,"x_min":16,"x_max":346,"o":"m 346 157 q 146 -212 346 -54 q 41 -286 125 -229 l 17 -262 q 233 175 233 -36 q 168 411 233 298 q 16 606 125 486 l 45 627 q 262 433 197 525 q 346 157 346 316 m 322 178 q 46 597 322 410 l 51 602 q 256 175 256 397 q 214 -19 256 83 q 112 -189 175 -115 q 50 -263 83 -223 l 43 -256 q 322 178 322 -66 z "},"*":{"ha":821,"x_min":92,"x_max":821,"o":"m 821 597 l 770 724 l 541 664 l 541 856 l 374 856 l 376 667 l 146 726 l 92 600 l 326 539 l 182 384 l 315 308 l 456 460 l 599 308 l 735 384 l 591 539 l 821 597 z "},"+":{"ha":642,"x_min":60,"x_max":578,"o":"m 578 294 l 361 294 l 361 75 l 280 75 l 280 294 l 60 294 l 60 374 l 280 374 l 280 597 l 361 597 l 361 374 l 578 374 l 578 294 m 555 318 l 555 351 l 337 351 l 337 573 l 304 573 l 304 351 l 83 351 l 83 318 l 304 318 l 304 99 l 337 99 l 337 318 l 555 318 z "},",":{"ha":386,"x_min":96,"x_max":302,"o":"m 302 107 q 278 50 302 74 q 220 26 253 26 q 124 85 159 26 q 96 200 96 134 q 227 442 96 339 l 257 402 q 164 225 164 302 q 174 178 164 206 q 221 191 199 191 q 279 166 255 191 q 302 107 302 141 m 279 107 q 262 149 279 131 q 221 167 245 167 q 171 149 205 167 q 141 235 141 172 q 227 404 141 307 l 223 408 q 119 200 119 326 q 142 102 119 146 q 219 49 170 49 q 261 65 244 49 q 279 107 279 82 z "},"‐":{"ha":642,"x_min":60,"x_max":578,"o":"m 578 294 l 60 294 l 60 374 l 578 374 l 578 294 m 555 318 l 555 351 l 83 351 l 83 318 l 555 318 z "},".":{"ha":386,"x_min":125,"x_max":269,"o":"m 269 94 q 248 44 269 64 q 196 24 227 24 q 145 44 165 24 q 125 94 125 63 q 146 146 125 123 q 196 168 167 168 q 248 146 226 168 q 269 94 269 124 m 245 94 q 231 130 245 115 q 196 144 216 144 q 148 95 148 144 q 162 62 148 76 q 195 47 176 47 q 230 62 214 47 q 245 94 245 76 z "},"/":{"ha":386,"x_min":30,"x_max":359,"o":"m 359 978 l 97 -106 l 30 -106 l 290 978 l 359 978 m 330 954 l 309 954 l 60 -83 l 78 -83 l 330 954 z "},":":{"ha":386,"x_min":125,"x_max":266,"o":"m 266 482 q 247 431 266 451 q 196 410 227 410 q 145 431 165 410 q 125 481 125 451 q 144 532 125 511 q 192 554 163 554 q 244 534 223 554 q 266 482 266 513 m 266 96 q 247 45 266 65 q 196 24 227 24 q 145 45 165 24 q 125 96 125 65 q 144 146 125 125 q 192 168 163 168 q 244 148 223 168 q 266 96 266 127 m 243 481 q 192 530 243 530 q 161 515 174 530 q 148 482 148 500 q 195 433 148 433 q 228 449 212 433 q 243 481 243 464 m 243 95 q 192 144 243 144 q 161 130 174 144 q 148 96 148 115 q 195 47 148 47 q 228 63 212 47 q 243 95 243 78 z "},";":{"ha":386,"x_min":96,"x_max":302,"o":"m 302 302 q 278 244 302 269 q 220 220 253 220 q 124 279 159 220 q 96 395 96 328 q 227 637 96 534 l 257 597 q 164 420 164 497 q 174 372 164 401 q 221 385 199 385 q 279 360 255 385 q 302 302 302 336 m 281 96 q 261 45 281 65 q 211 24 242 24 q 160 45 180 24 q 140 96 140 65 q 159 146 140 125 q 207 168 178 168 q 259 148 238 168 q 281 96 281 127 m 279 302 q 262 343 279 326 q 221 361 245 361 q 171 344 205 361 q 141 430 141 366 q 227 599 141 502 l 223 603 q 119 395 119 521 q 142 297 119 341 q 219 243 170 243 q 261 260 244 243 q 279 302 279 277 m 258 95 q 207 144 258 144 q 176 130 189 144 q 163 96 163 115 q 210 47 163 47 q 242 63 227 47 q 258 95 258 78 z "},"<":{"ha":627,"x_min":-19,"x_max":610,"o":"m 610 83 l -16 349 l -19 391 l 570 654 l 575 581 l 105 370 l 605 158 l 610 83 m 584 119 l 582 142 l 46 370 l 550 596 l 549 618 l 5 375 l 7 364 l 584 119 z "},"=":{"ha":642,"x_min":60,"x_max":578,"o":"m 578 374 l 60 374 l 60 454 l 578 454 l 578 374 m 578 214 l 60 214 l 60 294 l 578 294 l 578 214 m 555 398 l 555 431 l 83 431 l 83 398 l 555 398 m 555 238 l 555 271 l 83 271 l 83 238 l 555 238 z "},">":{"ha":627,"x_min":-37,"x_max":591,"o":"m 591 347 l 3 83 l -3 156 l 468 366 l -33 578 l -37 654 l 589 389 l 591 347 m 567 362 l 566 373 l -12 618 l -9 594 l 527 366 l 22 140 l 24 119 l 567 362 z "},"?":{"ha":436,"x_min":43,"x_max":404,"o":"m 404 619 q 380 539 404 573 q 309 500 353 500 q 257 522 277 500 q 237 574 237 543 q 275 639 237 609 q 313 680 313 669 q 290 718 313 704 q 245 730 271 730 q 182 706 207 730 q 157 644 157 682 q 215 495 157 618 q 273 294 273 372 q 262 199 273 237 l 220 199 q 222 232 220 211 q 224 265 224 256 q 174 363 224 307 q 90 445 132 404 q 43 582 43 504 q 98 723 43 665 q 236 781 153 781 q 355 735 305 781 q 404 619 404 688 m 307 96 q 286 46 307 67 q 236 24 264 24 q 184 45 205 24 q 162 96 162 65 q 183 146 162 125 q 233 168 204 168 q 285 147 263 168 q 307 96 307 125 m 380 619 q 339 719 380 680 q 236 758 297 758 q 115 706 163 758 q 66 582 66 655 q 113 452 66 507 q 201 370 142 425 q 248 261 248 325 q 245 242 248 256 q 244 222 243 229 q 250 325 250 288 q 192 487 250 363 q 134 644 134 610 q 166 723 134 692 q 245 753 197 753 q 308 735 283 753 q 336 679 336 715 q 298 626 336 654 q 260 574 260 598 q 309 524 260 524 q 361 557 340 524 q 380 619 380 585 m 283 96 q 268 130 283 115 q 233 144 253 144 q 200 130 214 144 q 186 96 186 115 q 235 47 186 47 q 268 63 253 47 q 283 96 283 78 z "},"[":{"ha":386,"x_min":62,"x_max":358,"o":"m 358 -250 l 62 -250 l 62 597 l 358 597 l 358 536 l 162 536 l 162 -189 l 358 -189 l 358 -250 m 331 -222 l 331 -216 l 135 -216 l 135 564 l 331 564 l 331 570 l 89 570 l 89 -222 l 331 -222 z "},"\\":{"ha":386,"x_min":-187,"x_max":513,"o":"m 513 -106 l 443 -106 l -187 979 l -116 979 l 513 -106 m 472 -83 l -129 955 l -147 955 l 456 -83 l 472 -83 z "},"]":{"ha":386,"x_min":33,"x_max":326,"o":"m 326 -250 l 33 -250 l 33 -189 l 228 -189 l 228 536 l 33 536 l 33 597 l 326 597 l 326 -250 m 299 -222 l 299 570 l 60 570 l 60 564 l 255 564 l 255 -216 l 60 -216 l 60 -222 l 299 -222 z "},"{":{"ha":533,"x_min":142,"x_max":468,"o":"m 468 743 q 346 611 339 712 q 358 541 348 587 q 370 470 368 494 q 229 267 379 334 q 370 90 361 203 q 358 -7 372 56 q 346 -104 344 -71 q 468 -212 351 -183 l 468 -254 q 317 -190 379 -241 q 241 -44 247 -132 q 253 52 239 -11 q 265 148 267 115 q 142 245 260 229 l 142 288 q 264 407 272 304 q 253 477 263 431 q 241 547 243 524 q 306 713 234 646 q 468 785 370 772 l 468 743 m 408 -216 q 322 -104 328 -178 q 334 -7 319 -70 q 346 90 348 56 q 163 268 338 203 q 346 470 355 336 q 334 541 344 494 q 322 611 324 587 q 444 762 314 727 l 444 772 l 458 760 q 318 690 374 749 q 264 547 259 629 q 277 477 267 524 q 288 407 287 431 q 255 311 292 349 q 165 267 222 277 l 165 265 q 246 227 213 256 q 289 148 286 195 q 277 52 291 115 q 264 -44 262 -12 q 310 -151 269 -104 q 408 -216 349 -195 z "},"|":{"ha":222,"x_min":75,"x_max":144,"o":"m 144 -252 l 75 -252 l 75 783 l 144 783 l 144 -252 m 121 -228 l 121 760 l 99 760 l 99 -228 l 121 -228 z "},"}":{"ha":533,"x_min":84,"x_max":411,"o":"m 411 244 q 288 125 280 227 q 299 55 289 102 q 311 -16 310 8 q 246 -180 318 -114 q 84 -254 182 -240 l 84 -212 q 206 -79 213 -180 q 194 -8 205 -56 q 182 62 184 39 q 323 265 173 198 q 182 443 190 329 q 194 539 180 476 q 206 636 209 603 q 84 743 201 715 l 84 785 q 235 722 174 773 q 311 576 305 664 q 299 480 314 543 q 287 385 285 418 q 411 288 293 303 l 411 244 m 144 748 q 230 636 225 710 q 218 539 233 602 q 206 443 203 476 q 389 264 214 329 q 206 62 197 196 q 218 -8 208 39 q 230 -79 229 -56 q 159 -210 236 -167 q 255 -133 220 -183 q 288 -16 292 -79 q 276 55 286 8 q 264 125 265 102 q 297 221 260 182 q 387 265 331 255 l 387 267 q 306 305 340 277 q 263 385 267 338 q 276 480 261 418 q 288 576 290 543 q 243 683 283 635 q 144 748 204 727 z "},"«":{"ha":386,"x_min":17,"x_max":375,"o":"m 375 792 q 279 640 279 709 q 339 617 315 640 q 363 560 363 595 q 341 507 363 528 q 287 486 319 486 q 200 611 200 486 q 338 831 200 718 l 375 792 m 192 792 q 96 640 96 709 q 156 617 132 640 q 180 560 180 595 q 158 507 180 528 q 104 486 136 486 q 17 611 17 486 q 155 831 17 718 l 192 792 m 340 559 q 258 616 340 620 l 256 648 q 340 793 256 718 l 335 799 q 283 746 319 787 q 223 595 223 677 q 238 538 223 562 q 286 509 256 509 q 324 524 307 509 q 340 559 340 538 m 157 559 q 75 616 157 620 l 73 648 q 157 793 73 718 l 152 799 q 100 746 136 787 q 40 595 40 677 q 55 538 40 562 q 103 509 73 509 q 141 524 124 509 q 157 559 157 538 z "},"·":{"ha":386,"x_min":12,"x_max":369,"o":"m 369 718 q 329 584 369 645 q 232 481 300 541 l 195 521 q 290 673 296 617 q 205 753 205 676 q 228 806 205 785 q 282 827 250 827 q 347 791 323 827 q 369 718 369 760 m 186 718 q 146 584 186 645 q 49 481 117 541 l 12 521 q 106 673 113 617 q 22 753 22 676 q 45 806 22 785 q 99 827 67 827 q 164 791 140 827 q 186 718 186 760 m 346 724 q 329 777 346 754 q 282 803 311 803 q 229 753 229 803 q 311 696 229 696 l 313 664 q 229 519 313 594 l 233 514 q 346 724 346 613 m 163 724 q 146 777 163 754 q 99 803 127 803 q 46 753 46 803 q 128 696 46 696 l 130 664 q 45 519 130 594 l 50 514 q 163 724 163 613 z "},"»":{"ha":621,"x_min":191,"x_max":453,"o":"m 449 636 q 415 541 453 581 q 323 500 378 500 q 236 535 273 500 q 195 620 199 570 q 229 715 191 675 q 321 755 267 755 q 409 720 372 755 q 449 636 446 686 m 425 636 q 393 704 422 676 q 323 731 363 731 q 247 698 278 731 q 219 620 216 665 q 252 552 222 580 q 321 524 281 524 q 397 557 366 524 q 425 636 429 591 z "},"×":{"ha":566,"x_min":42,"x_max":549,"o":"m 549 -5 l 487 -5 l 246 279 l 486 556 l 545 556 l 371 278 l 549 -5 m 341 -5 l 281 -5 l 42 279 l 282 556 l 340 556 l 167 278 l 341 -5 m 507 18 l 343 278 l 502 532 l 496 532 l 276 278 l 497 18 l 507 18 m 298 18 l 139 279 l 298 532 l 292 532 l 72 278 l 292 18 l 298 18 z "},"÷":{"ha":566,"x_min":24,"x_max":532,"o":"m 532 271 l 292 -5 l 233 -5 l 407 271 l 228 556 l 285 556 l 532 271 m 327 271 l 88 -5 l 28 -5 l 201 271 l 24 556 l 81 556 l 327 271 m 501 271 l 275 532 l 271 532 l 435 271 l 275 18 l 282 18 l 501 271 m 296 271 l 71 532 l 66 532 l 229 271 l 71 18 l 78 18 l 296 271 z "},"“":{"ha":642,"x_min":72,"x_max":561,"o":"m 561 149 l 505 94 l 317 280 l 129 94 l 73 149 l 259 337 l 72 527 l 132 580 l 317 393 l 505 581 l 561 526 l 371 337 l 561 149 m 528 149 l 338 338 l 527 525 l 505 547 l 317 360 l 131 547 l 106 525 l 292 338 l 106 149 l 129 126 l 317 313 l 505 126 l 528 149 z "},"”":{"ha":642,"x_min":60,"x_max":578,"o":"m 385 524 q 365 474 385 494 q 316 453 345 453 q 267 474 287 453 q 246 524 246 494 q 267 572 246 553 q 316 591 287 591 q 365 572 345 591 q 385 524 385 552 m 578 294 l 60 294 l 60 374 l 578 374 l 578 294 m 385 146 q 363 98 385 119 q 316 76 342 76 q 267 96 287 76 q 246 146 246 117 q 267 195 246 174 q 315 215 287 215 q 365 195 345 215 q 385 146 385 175 m 361 524 q 316 568 361 568 q 283 555 298 568 q 269 524 269 543 q 283 491 269 505 q 315 476 296 476 q 347 491 332 476 q 361 524 361 507 m 555 318 l 555 351 l 83 351 l 83 318 l 555 318 m 361 146 q 316 192 361 192 q 283 178 298 192 q 269 146 269 165 q 298 102 269 121 l 315 99 q 348 113 334 99 q 361 146 361 127 z "},"•":{"ha":621,"x_min":191,"x_max":453,"o":"m 449 636 q 415 541 453 581 q 323 500 378 500 q 236 535 273 500 q 195 620 199 570 q 229 715 191 675 q 321 755 267 755 q 409 720 372 755 q 449 636 446 686 m 425 636 q 393 704 422 676 q 323 731 363 731 q 247 698 278 731 q 219 620 216 665 q 252 552 222 580 q 321 524 281 524 q 397 557 366 524 q 425 636 429 591 z "},"،":{"ha":386,"x_min":96,"x_max":302,"o":"m 302 107 q 278 50 302 74 q 220 26 253 26 q 124 85 158 26 q 96 200 96 134 q 227 442 96 339 l 257 402 q 164 225 164 302 q 174 178 164 206 q 221 191 199 191 q 279 166 255 191 q 302 107 302 141 m 279 107 q 262 149 279 131 q 221 167 245 167 q 171 149 205 167 q 141 235 141 172 q 227 404 141 307 l 223 408 q 119 200 119 326 q 142 102 119 146 q 219 49 170 49 q 261 65 244 49 q 279 107 279 82 z "},"؛":{"ha":386,"x_min":96,"x_max":302,"o":"m 302 302 q 278 244 302 269 q 220 220 253 220 q 124 279 158 220 q 96 395 96 328 q 227 637 96 534 l 257 597 q 164 420 164 497 q 174 372 164 401 q 221 385 199 385 q 279 360 255 385 q 302 302 302 336 m 281 96 q 261 45 281 65 q 211 24 241 24 q 160 45 180 24 q 140 96 140 65 q 159 146 140 125 q 207 168 178 168 q 259 148 238 168 q 281 96 281 127 m 279 302 q 262 343 279 326 q 221 361 245 361 q 171 344 205 361 q 141 430 141 366 q 227 599 141 502 l 223 603 q 119 395 119 521 q 142 297 119 340 q 219 243 170 243 q 261 260 244 243 q 279 302 279 277 m 258 95 q 207 144 258 144 q 176 130 189 144 q 163 96 163 115 q 210 47 163 47 q 243 62 228 47 q 258 95 258 77 z "},"؟":{"ha":436,"x_min":43,"x_max":404,"o":"m 404 619 q 380 539 404 573 q 309 500 353 500 q 257 522 277 500 q 237 574 237 543 q 275 639 237 609 q 313 680 313 669 q 290 718 313 704 q 245 730 271 730 q 182 706 207 730 q 157 644 157 682 q 215 496 157 619 q 273 294 273 372 q 262 199 273 237 l 220 199 l 220 205 q 222 235 220 215 q 224 265 224 256 q 178 359 224 311 q 90 447 134 403 q 43 582 43 507 q 98 723 43 665 q 236 781 153 781 q 355 735 306 781 q 404 619 404 688 m 307 96 q 286 46 307 67 q 236 24 264 24 q 184 45 205 24 q 162 96 162 65 q 183 146 162 125 q 233 168 204 168 q 285 147 263 168 q 307 96 307 125 m 380 619 q 339 719 380 680 q 236 758 297 758 q 115 706 163 758 q 66 582 66 655 q 113 453 66 508 q 201 370 157 412 q 248 261 248 321 q 246 245 248 256 q 244 228 244 234 l 244 222 q 250 288 250 285 q 192 487 250 363 q 134 644 134 611 q 166 723 134 692 q 245 753 197 753 q 308 735 283 753 q 336 679 336 715 q 298 626 336 654 q 260 574 260 598 q 309 524 260 524 q 361 557 340 524 q 380 619 380 585 m 283 96 q 268 130 283 115 q 233 144 253 144 q 200 130 214 144 q 186 96 186 115 q 235 47 186 47 q 268 63 253 47 q 283 96 283 78 z "},"ء":{"ha":627,"x_min":7,"x_max":571,"o":"m 571 774 q 514 690 571 734 q 457 631 457 646 q 507 584 482 608 q 533 522 533 557 q 529 458 533 474 q 347 288 509 374 q 101 206 196 206 l 7 326 q 323 532 173 436 q 260 593 268 582 q 231 674 231 629 q 303 807 231 730 q 431 884 375 884 q 473 878 457 884 q 571 784 524 832 l 571 774 m 450 851 q 391 827 410 838 q 315 762 350 802 q 273 674 273 713 q 305 600 273 641 q 363 538 306 600 l 364 534 q 260 446 364 515 l 111 347 q 254 410 169 362 q 378 499 339 458 q 416 609 416 540 q 376 654 416 616 q 335 709 335 692 q 389 789 335 747 q 450 851 446 834 z "},"آ":{"ha":617,"x_min":2,"x_max":604,"o":"m 429 1329 q 373 1230 415 1272 q 272 1183 327 1183 q 206 1194 250 1183 q 141 1205 163 1205 q 80 1153 123 1205 l 2 1216 q 26 1304 2 1264 q 98 1352 54 1352 q 127 1346 109 1352 q 156 1338 149 1339 q 228 1333 186 1333 q 350 1394 312 1333 l 429 1329 m 604 406 q 562 208 604 309 q 494 66 524 119 q 334 -81 441 -27 q 121 -132 234 -132 q 58 -86 94 -120 q 7 -24 22 -52 q 20 19 7 -14 q 149 93 47 20 q 420 555 420 289 q 397 679 420 596 q 398 642 397 667 q 400 604 400 617 q 370 530 400 538 q 296 595 318 574 q 231 667 255 633 q 216 848 225 726 q 203 1031 203 1025 q 253 1179 203 1074 l 360 1075 q 462 904 397 1040 q 604 406 604 610 m 323 1331 q 229 1305 268 1305 q 150 1311 184 1305 q 123 1319 143 1312 q 96 1325 105 1325 q 30 1255 68 1325 q 102 1286 58 1286 q 162 1276 121 1286 q 224 1265 203 1265 q 323 1331 279 1265 m 477 493 q 410 827 477 648 q 265 1138 368 941 q 239 1072 242 1082 q 231 1000 231 1043 q 237 920 231 970 q 246 841 245 854 q 254 679 249 787 l 268 671 q 271 743 271 682 q 258 999 271 830 l 284 1005 q 448 541 448 707 q 249 135 448 305 q 160 68 219 113 q 117 34 125 40 q 68 8 92 17 q 195 34 149 18 q 293 91 242 50 q 437 268 396 174 q 477 493 477 356 z "},"أ":{"ha":617,"x_min":7,"x_max":604,"o":"m 437 1358 q 399 1303 437 1334 q 361 1263 361 1273 q 409 1213 382 1246 q 412 1190 412 1194 q 389 1109 412 1140 q 266 1025 358 1070 q 123 981 174 981 l 62 1060 q 271 1197 130 1108 q 229 1238 235 1231 q 211 1293 211 1261 q 259 1380 211 1329 q 343 1432 307 1432 q 372 1428 361 1432 l 437 1366 l 437 1358 m 604 256 q 562 59 604 161 q 494 -83 525 -30 q 334 -231 440 -177 q 121 -281 235 -281 q 57 -235 92 -269 q 7 -174 22 -202 q 20 -130 9 -157 q 149 -56 52 -128 q 345 141 283 45 q 420 406 420 256 q 397 530 420 448 q 398 493 397 518 q 400 455 400 468 q 370 381 400 389 q 296 446 317 426 q 231 518 256 483 q 216 699 227 561 q 203 882 203 870 q 253 1030 203 925 l 360 926 q 462 755 397 890 q 604 256 604 460 m 356 1410 q 279 1366 312 1394 q 238 1292 238 1331 q 298 1202 238 1265 l 299 1198 q 132 1078 248 1150 q 262 1135 206 1096 q 334 1249 334 1185 q 307 1279 334 1255 q 279 1315 279 1303 q 311 1366 279 1341 q 356 1410 349 1395 m 477 344 q 410 678 477 498 q 265 989 368 792 q 231 850 231 907 q 237 771 231 819 q 246 692 245 704 q 254 530 249 637 l 268 522 q 271 577 271 538 q 258 850 271 681 l 284 856 q 448 391 448 558 q 68 -141 448 79 q 195 -116 151 -131 q 293 -58 242 -99 q 437 119 395 24 q 477 344 477 208 z "},"ؤ":{"ha":611,"x_min":-60,"x_max":603,"o":"m 441 1160 q 403 1105 441 1137 q 365 1065 365 1074 q 413 1015 385 1049 q 416 967 416 992 q 393 911 416 941 q 270 827 361 871 q 127 783 178 783 l 66 862 q 275 999 134 910 q 233 1040 237 1035 q 215 1095 215 1063 q 263 1182 215 1131 q 347 1234 311 1234 q 376 1230 366 1234 l 441 1168 l 441 1160 m 603 403 q 548 132 603 235 q 464 21 528 95 q 364 -53 416 -34 q 107 -85 277 -85 q 58 -79 83 -85 q -59 41 14 -40 q -46 60 -60 56 q 136 117 14 75 q 417 433 343 208 l 372 450 q 304 520 338 485 q 252 601 252 579 q 271 741 252 688 q 319 775 283 775 q 476 675 387 775 q 603 403 603 533 m 360 1212 q 283 1168 317 1196 q 242 1094 242 1133 q 302 1004 242 1068 l 303 1000 q 135 876 276 966 q 230 918 173 886 q 313 978 288 951 q 338 1050 338 1005 q 311 1081 338 1057 q 283 1117 283 1105 q 316 1168 283 1142 q 360 1212 354 1198 m 478 503 q 472 572 478 557 q 418 687 437 657 q 320 752 376 752 q 288 719 295 752 q 275 602 275 650 q 298 569 275 585 q 338 554 320 554 q 415 608 382 554 q 454 505 454 537 q 365 275 454 392 q 176 111 284 168 q -17 42 117 81 q 39 41 -2 41 q 176 47 108 41 q 346 139 276 58 l 390 191 q 458 339 433 241 q 478 503 478 421 z "},"إ":{"ha":617,"x_min":7,"x_max":604,"o":"m 604 406 q 562 208 604 309 q 494 66 524 119 q 334 -81 441 -27 q 121 -132 234 -132 q 58 -86 94 -120 q 7 -24 22 -52 q 20 19 7 -14 q 149 93 47 20 q 420 555 420 289 q 397 679 420 596 q 398 642 397 667 q 400 604 400 617 q 370 530 400 538 q 296 595 318 574 q 231 667 255 633 q 216 848 225 726 q 203 1031 203 1025 q 253 1179 203 1074 l 360 1075 q 462 904 397 1040 q 604 406 604 610 m 438 -224 q 400 -279 438 -248 q 362 -319 362 -311 q 410 -370 382 -336 q 413 -417 413 -393 q 390 -473 413 -442 q 268 -558 359 -513 q 125 -602 176 -602 l 63 -523 q 273 -386 132 -475 q 230 -345 236 -352 q 212 -290 212 -322 q 260 -202 212 -254 q 345 -151 309 -151 q 373 -155 363 -151 l 438 -217 l 438 -224 m 477 493 q 410 827 477 648 q 265 1138 368 941 q 239 1072 242 1082 q 231 1000 231 1043 q 237 920 231 970 q 246 841 245 854 q 254 679 249 787 l 268 671 q 271 743 271 682 q 258 999 271 830 l 284 1005 q 448 541 448 707 q 249 135 448 305 q 160 68 219 113 q 117 34 125 40 q 68 8 92 17 q 195 34 149 18 q 293 91 242 50 q 437 268 396 174 q 477 493 477 356 m 357 -173 q 281 -217 315 -187 q 239 -291 239 -254 q 300 -381 239 -317 l 300 -385 q 132 -509 273 -418 q 235 -462 180 -493 q 321 -393 302 -424 q 335 -334 335 -370 q 308 -303 335 -328 q 281 -268 281 -279 q 313 -217 281 -243 q 357 -173 351 -187 z "},"ئ":{"ha":764,"x_min":-58,"x_max":667,"o":"m 317 1217 q 279 1162 317 1194 q 241 1122 241 1131 q 289 1072 261 1106 q 292 1024 292 1049 q 269 968 292 998 q 145 884 237 928 q 3 840 54 840 l -58 919 q 151 1056 10 967 q 109 1097 113 1092 q 91 1152 91 1120 q 139 1239 91 1188 q 223 1291 187 1291 q 252 1286 241 1291 l 317 1225 l 317 1217 m 667 104 q 580 -119 667 -25 q 362 -216 491 -216 q 153 -98 264 -216 q 73 -14 113 -56 q -1 76 21 41 q -50 288 -50 155 q -27 421 -50 343 q 140 751 32 628 q 256 877 179 792 q 366 1010 293 922 q 408 1086 376 1022 q 445 1146 435 1142 q 564 1025 524 1091 q 526 890 555 963 q 451 774 491 807 q 359 702 418 752 q 219 490 279 620 q 156 247 156 353 q 170 146 156 208 q 200 49 184 83 q 306 36 239 36 q 458 128 394 36 q 350 207 402 155 q 277 317 292 264 q 267 427 267 351 q 272 507 267 484 q 330 646 285 570 q 435 735 385 735 q 524 706 494 735 l 637 592 q 642 551 642 576 q 627 502 642 531 q 595 465 612 470 l 578 481 l 577 486 q 544 501 565 501 q 434 380 483 501 l 434 374 l 444 368 l 494 359 q 600 273 573 299 q 664 157 655 216 q 667 104 667 134 m 236 1269 q 159 1225 193 1253 q 118 1151 118 1190 q 178 1061 118 1125 l 179 1057 q 11 932 152 1023 q 106 975 49 943 q 189 1035 163 1008 q 214 1107 214 1062 q 186 1138 214 1114 q 159 1174 159 1162 q 192 1225 159 1199 q 236 1269 230 1255 m 542 225 q 512 324 542 304 q 408 349 497 335 q 300 435 300 365 q 340 558 300 497 q 443 626 385 626 q 491 606 467 626 l 498 591 q 509 629 499 602 q 517 669 518 654 l 516 680 q 435 712 481 712 q 341 618 390 712 q 292 479 299 538 q 290 385 290 463 q 349 259 290 290 q 458 237 368 249 q 516 188 516 229 q 464 92 516 142 q 370 27 421 50 q 297 13 339 13 q 205 21 237 13 q 64 139 118 43 q 16 322 16 225 q 175 714 16 511 q 279 833 196 741 q 378 958 346 907 q 415 1035 397 986 q 274 861 336 933 q 107 666 191 764 q 1 429 36 570 q -25 257 -25 323 q 65 23 -25 132 q 283 -90 159 -90 q 450 -14 372 -90 q 537 151 525 60 q 542 225 542 186 z "},"ا":{"ha":617,"x_min":7,"x_max":604,"o":"m 604 406 q 562 208 604 309 q 494 66 524 119 q 334 -81 441 -27 q 121 -132 234 -132 q 58 -86 94 -120 q 7 -24 22 -52 q 20 19 7 -14 q 149 93 47 20 q 420 555 420 289 q 397 679 420 596 q 398 642 397 667 q 400 604 400 617 q 370 530 400 538 q 296 595 318 574 q 231 667 255 633 q 216 848 225 726 q 203 1031 203 1025 q 253 1179 203 1074 l 360 1075 q 462 904 397 1040 q 604 406 604 610 m 477 493 q 410 827 477 648 q 265 1138 368 941 q 239 1072 242 1082 q 231 1000 231 1043 q 237 920 231 970 q 246 841 245 854 q 254 679 249 787 l 268 671 q 271 743 271 682 q 258 999 271 830 l 284 1005 q 448 541 448 707 q 249 135 448 305 q 160 68 219 113 q 117 34 125 40 q 68 8 92 17 q 195 34 149 18 q 293 91 242 50 q 437 268 396 174 q 477 493 477 356 z "},"ب":{"ha":1156,"x_min":-4,"x_max":1177,"o":"m 1177 559 q 1169 512 1177 523 q 1135 479 1157 500 q 1078 394 1114 458 q 852 26 924 115 q 494 -175 687 -175 q 284 -108 376 -175 q 123 49 252 -84 q -4 346 -4 179 q 71 559 -4 471 q 268 673 143 644 q 532 689 332 689 q 649 688 559 689 q 766 688 722 687 q 880 563 812 644 q 789 534 880 543 q 674 527 732 530 q 448 503 509 516 q 256 396 319 474 q 200 239 200 326 q 405 65 200 65 q 545 116 472 65 q 627 176 602 156 q 701 244 673 212 q 818 414 726 272 l 996 689 q 1056 736 1002 700 q 1176 614 1131 679 q 1177 615 1176 615 l 1177 599 l 1177 559 m 642 -404 q 625 -462 625 -461 q 590 -511 614 -488 q 435 -392 490 -454 q 479 -273 446 -339 q 564 -316 532 -289 q 601 -353 570 -320 q 634 -389 633 -386 q 642 -404 637 -394 m 1048 657 q 1046 696 1048 688 q 1019 674 1023 681 l 841 399 q 385 38 607 38 q 251 65 311 38 q 189 112 227 76 q 75 347 75 218 q 170 553 75 475 q 387 637 252 620 q 669 663 578 663 q 681 659 676 663 q 520 663 587 663 q 251 640 331 663 q 50 475 112 602 q 18 343 18 408 q 89 131 18 236 q 257 -18 158 29 q 393 -46 315 -46 q 872 363 644 -46 q 949 505 910 434 q 1045 625 1002 597 q 1048 657 1048 661 m 546 -337 q 493 -307 535 -329 l 465 -380 l 495 -431 l 528 -391 l 546 -337 z "},"ة":{"ha":466,"x_min":43,"x_max":456,"o":"m 301 739 q 291 691 301 713 q 222 627 280 669 q 140 581 165 585 q 87 624 90 622 q 56 680 56 655 q 74 781 56 715 q 227 881 160 830 l 299 816 q 300 777 299 803 q 301 739 301 751 m 456 172 q 408 -6 456 83 q 271 -110 352 -110 q 112 -37 180 -110 q 43 127 43 36 q 79 353 43 240 q 212 505 127 505 q 356 397 221 500 q 390 370 368 389 q 456 172 456 307 m 207 803 l 206 832 q 97 766 172 804 q 80 679 85 724 q 159 731 119 705 q 207 803 208 769 m 327 311 q 295 416 327 361 q 212 478 259 478 q 102 332 144 478 q 71 127 71 222 q 92 42 71 64 q 174 19 113 19 q 293 132 249 19 q 327 311 327 220 m 277 236 q 239 186 277 207 q 174 170 206 170 q 100 223 100 170 q 127 290 100 252 q 182 330 156 330 q 242 295 207 330 q 277 236 277 260 z "},"ت":{"ha":1156,"x_min":-4,"x_max":1177,"o":"m 709 910 q 699 863 709 885 q 631 799 688 840 q 548 753 573 757 q 496 795 498 793 q 464 852 464 827 q 482 952 464 887 q 635 1053 568 1002 l 707 987 q 708 949 707 975 q 709 910 709 923 m 1177 559 q 1169 512 1177 523 q 1135 479 1157 500 q 1078 394 1114 458 q 852 26 924 115 q 494 -175 687 -175 q 284 -108 376 -175 q 123 49 252 -84 q -4 346 -4 179 q 71 559 -4 471 q 268 673 143 644 q 532 689 332 689 q 649 688 559 689 q 766 688 722 687 q 880 563 812 644 q 789 534 880 543 q 674 527 732 530 q 448 503 509 516 q 256 396 319 474 q 200 239 200 326 q 405 65 200 65 q 545 116 472 65 q 627 176 602 156 q 701 244 673 212 q 818 414 726 272 l 996 689 q 1056 736 1002 700 q 1176 614 1131 679 q 1177 615 1176 615 l 1177 599 l 1177 559 m 615 975 l 614 1004 q 505 937 581 976 q 488 850 493 895 q 567 903 528 876 q 615 975 616 941 m 1048 657 q 1046 696 1048 688 q 1019 674 1023 681 l 841 399 q 385 38 607 38 q 251 65 311 38 q 189 112 227 76 q 75 347 75 218 q 170 553 75 475 q 387 637 252 620 q 669 663 578 663 q 681 659 676 663 q 520 663 587 663 q 251 640 331 663 q 50 475 112 602 q 18 343 18 408 q 89 131 18 236 q 257 -18 158 29 q 393 -46 315 -46 q 872 363 644 -46 q 949 505 910 434 q 1045 625 1002 597 q 1048 657 1048 661 z "},"ث":{"ha":1156,"x_min":-4,"x_max":1177,"o":"m 690 1031 q 675 968 690 1001 q 632 927 658 927 l 621 931 q 608 950 616 937 q 591 956 593 956 q 519 890 552 956 q 481 788 519 887 l 387 858 q 384 895 384 886 q 385 933 384 903 q 444 1068 388 987 q 553 1155 504 1155 q 602 1137 584 1155 q 654 1088 627 1113 q 690 1031 690 1051 m 1177 559 q 1169 512 1177 523 q 1135 479 1157 500 q 1078 394 1114 458 q 852 26 924 115 q 494 -175 687 -175 q 284 -108 376 -175 q 123 49 252 -84 q -4 346 -4 179 q 71 559 -4 471 q 268 673 143 644 q 532 689 332 689 q 649 688 559 689 q 766 688 722 687 q 880 563 812 644 q 789 534 880 543 q 674 527 732 530 q 448 503 509 516 q 256 396 319 474 q 200 239 200 326 q 405 65 200 65 q 545 116 472 65 q 627 176 602 156 q 701 244 673 212 q 818 414 726 272 l 996 689 q 1056 736 1002 700 q 1176 614 1131 679 q 1177 615 1176 615 l 1177 599 l 1177 559 m 595 1097 q 582 1119 595 1110 q 553 1127 568 1127 q 466 1050 515 1127 q 412 937 427 989 q 454 1011 446 1001 q 525 1050 484 1050 q 568 1024 557 1050 l 564 1022 q 595 1097 595 1044 m 1048 657 q 1046 696 1048 688 q 1019 674 1023 681 l 841 399 q 385 38 607 38 q 251 65 311 38 q 189 112 227 76 q 75 347 75 218 q 170 553 75 475 q 387 637 252 620 q 669 663 578 663 q 681 659 676 663 q 520 663 587 663 q 251 640 331 663 q 50 475 112 602 q 18 343 18 408 q 89 131 18 236 q 257 -18 158 29 q 393 -46 315 -46 q 872 363 644 -46 q 949 505 910 434 q 1045 625 1002 597 q 1048 657 1048 661 z "},"ج":{"ha":692,"x_min":12,"x_max":926,"o":"m 926 -183 q 756 -231 924 -231 q 568 -218 621 -231 q 413 -178 460 -193 q 267 -113 326 -151 q 114 33 198 -68 q 12 273 12 155 q 68 484 12 362 q 188 668 121 597 q 291 770 223 705 q 253 871 253 823 q 263 932 253 887 q 275 979 267 950 q 414 1080 286 1023 q 477 1109 446 1095 q 544 1127 515 1124 q 687 983 687 1002 q 669 808 687 851 q 564 661 637 734 q 428 538 496 600 q 277 363 372 488 q 202 155 202 266 q 238 49 202 107 q 407 -20 280 18 q 591 -60 528 -56 q 703 -64 628 -61 q 743 -70 711 -64 q 785 -75 771 -75 q 802 -73 795 -75 l 926 -183 m 580 231 q 562 173 565 179 q 528 124 551 145 q 372 243 427 180 q 417 362 384 296 q 500 320 477 340 q 538 282 506 315 q 572 246 570 249 q 580 231 574 241 m 749 -100 l 747 -92 q 506 -79 560 -92 q 324 -30 368 -46 q 167 71 232 5 q 95 169 115 123 q 75 286 75 214 q 87 344 75 301 q 229 570 114 445 q 429 768 232 574 q 543 922 534 871 q 558 1080 553 983 q 532 1103 548 1097 q 414 1051 511 1102 q 302 979 308 995 q 281 848 281 916 q 286 824 281 851 q 322 764 299 805 q 159 587 210 662 q 57 368 102 504 q 41 262 41 322 q 509 -95 41 -22 q 729 -102 557 -102 q 749 -100 743 -102 m 484 298 q 431 328 473 306 l 403 255 l 433 203 l 465 243 l 484 298 m 554 1022 q 470 888 521 941 q 349 785 448 864 l 329 802 l 330 816 q 291 901 331 838 q 374 960 305 922 q 468 1004 440 998 l 554 1022 m 468 922 l 453 922 q 414 902 435 922 q 393 864 393 882 l 393 850 l 401 852 q 468 922 407 860 z "},"ح":{"ha":692,"x_min":12,"x_max":858,"o":"m 858 -183 q 781 -227 857 -218 q 679 -231 755 -231 q 470 -195 596 -231 q 281 -121 349 -161 q 128 14 206 -76 q 12 273 12 149 q 68 484 12 362 q 188 668 121 597 q 291 770 223 705 q 253 870 253 823 q 263 932 253 887 q 275 979 267 950 q 414 1080 286 1023 q 477 1109 446 1095 q 544 1127 515 1124 q 687 983 687 1002 q 669 808 687 851 q 564 661 637 734 q 428 538 496 600 q 277 363 372 488 q 202 155 202 266 q 238 49 202 107 q 395 -17 275 22 q 565 -62 509 -54 q 657 -66 596 -62 q 734 -73 726 -74 l 858 -183 m 681 -100 l 680 -92 q 511 -83 548 -92 q 327 -31 363 -45 q 167 71 233 5 q 95 169 115 123 q 75 286 75 214 q 87 344 75 302 q 229 570 114 445 q 429 768 233 574 q 543 922 534 871 q 558 1080 553 983 q 532 1103 548 1097 q 414 1050 512 1103 q 302 979 308 994 q 281 848 281 917 q 286 824 281 851 q 322 764 299 806 q 159 587 210 662 q 57 368 103 505 q 41 262 41 322 q 530 -99 41 -26 q 661 -102 553 -102 q 681 -100 675 -102 m 554 1022 q 470 888 521 941 q 349 785 448 864 l 329 802 l 330 816 q 291 901 331 838 q 374 960 305 922 q 468 1004 440 998 l 554 1022 m 468 922 l 453 922 q 414 902 435 922 q 393 864 393 882 l 393 850 l 401 852 q 468 922 407 860 z "},"خ":{"ha":692,"x_min":12,"x_max":926,"o":"m 360 1321 q 342 1263 345 1270 q 308 1215 331 1236 q 153 1333 208 1271 q 197 1453 164 1386 q 281 1411 257 1430 q 318 1373 286 1406 q 352 1337 350 1339 q 360 1321 355 1331 m 926 -183 q 756 -231 924 -231 q 568 -218 621 -231 q 413 -178 460 -193 q 267 -113 326 -151 q 114 33 198 -68 q 12 273 12 155 q 68 484 12 362 q 188 668 121 597 q 291 770 223 705 q 253 871 253 823 q 263 932 253 887 q 275 979 267 950 q 414 1080 286 1023 q 477 1109 446 1095 q 544 1127 515 1124 q 687 983 687 1002 q 669 808 687 851 q 564 661 637 734 q 428 538 496 600 q 277 363 372 488 q 202 155 202 266 q 238 49 202 107 q 407 -20 280 18 q 591 -60 528 -56 q 703 -64 628 -61 q 743 -70 711 -64 q 785 -75 771 -75 q 802 -73 795 -75 l 926 -183 m 264 1388 q 211 1418 253 1396 l 183 1345 l 213 1294 l 245 1334 l 264 1388 m 749 -100 l 747 -92 q 506 -79 560 -92 q 324 -30 368 -46 q 167 71 232 5 q 95 169 115 123 q 75 286 75 214 q 87 344 75 301 q 229 570 114 445 q 429 768 232 574 q 543 922 534 871 q 558 1080 553 983 q 532 1103 548 1097 q 414 1051 511 1102 q 302 979 308 995 q 281 848 281 916 q 286 824 281 851 q 322 764 299 805 q 159 587 210 662 q 57 368 102 504 q 41 262 41 322 q 509 -95 41 -22 q 729 -102 557 -102 q 749 -100 743 -102 m 554 1022 q 470 888 521 941 q 349 785 448 864 l 329 802 l 330 816 q 291 901 331 838 q 374 960 305 922 q 468 1004 440 998 l 554 1022 m 468 922 l 453 922 q 414 902 435 922 q 393 864 393 882 l 393 850 l 401 852 q 468 922 407 860 z "},"د":{"ha":766,"x_min":-16,"x_max":781,"o":"m 781 450 q 692 128 781 271 q 441 -89 604 -14 q 286 -127 357 -127 q 86 -116 113 -127 l -16 12 q 356 172 187 72 q 596 456 596 315 q 570 554 596 514 q 540 561 566 561 q 441 549 503 561 q 366 517 366 535 q 425 446 366 511 q 485 330 485 381 q 481 272 485 304 l 426 235 q 216 459 246 401 q 192 570 192 505 q 256 742 192 678 q 429 806 320 806 q 580 763 535 806 q 715 625 689 659 q 781 450 781 540 m 652 552 q 587 720 652 639 q 429 779 540 779 q 276 722 333 779 q 219 570 219 666 q 256 448 219 500 q 347 353 274 422 q 356 433 356 385 q 296 535 356 474 q 237 617 237 596 q 324 673 237 652 q 439 688 387 688 q 569 623 507 688 q 623 456 623 566 q 403 170 623 311 q 49 5 256 77 q 117 3 69 5 q 186 1 163 1 q 477 138 325 1 q 652 552 652 294 z "},"ذ":{"ha":766,"x_min":-16,"x_max":781,"o":"m 521 987 l 515 967 l 427 890 l 350 954 q 279 1031 350 978 l 279 1053 l 367 1123 l 380 1125 q 460 1067 414 1114 q 521 987 504 1023 m 781 450 q 692 128 781 271 q 441 -89 604 -14 q 286 -127 357 -127 q 86 -116 113 -127 l -16 12 q 356 172 187 72 q 596 456 596 315 q 570 554 596 514 q 540 561 566 561 q 441 549 503 561 q 366 517 366 535 q 425 446 366 511 q 485 330 485 381 q 481 272 485 304 l 426 235 q 216 459 246 401 q 192 570 192 505 q 256 742 192 678 q 429 806 320 806 q 580 763 535 806 q 715 625 689 659 q 781 450 781 540 m 437 1036 q 377 1097 428 1071 l 310 1043 q 344 1014 338 1019 q 370 979 363 995 l 437 1036 m 652 552 q 587 720 652 639 q 429 779 540 779 q 276 722 333 779 q 219 570 219 666 q 256 448 219 500 q 347 353 274 422 q 356 433 356 385 q 296 535 356 474 q 237 617 237 596 q 324 673 237 652 q 439 688 387 688 q 569 623 507 688 q 623 456 623 566 q 403 170 623 311 q 49 5 256 77 q 117 3 69 5 q 186 1 163 1 q 477 138 325 1 q 652 552 652 294 z "},"ر":{"ha":678,"x_min":-68,"x_max":654,"o":"m 654 488 q 654 465 654 481 q 633 446 646 446 q 604 469 627 446 q 593 457 597 465 q 558 261 586 440 q 509 49 533 100 q 345 -84 464 -47 q 243 -98 302 -98 q 32 -75 56 -98 q -68 34 -1 -38 q -52 53 -66 52 q 30 58 -11 56 q 111 72 77 61 q 217 128 161 88 q 301 211 273 168 q 382 436 353 290 q 404 555 393 496 q 435 673 418 627 q 475 707 448 707 q 499 703 495 707 l 614 590 q 654 488 654 551 m 526 585 q 513 642 525 612 q 476 679 498 679 q 412 446 445 679 q 319 194 391 297 q 104 42 237 75 q 44 36 99 41 q 134 31 73 31 q 357 119 290 31 q 425 326 405 182 q 465 566 452 522 q 504 598 475 598 q 526 585 510 598 z "},"ز":{"ha":678,"x_min":-68,"x_max":654,"o":"m 532 886 l 526 865 l 437 789 l 361 852 q 290 930 361 876 l 290 951 l 378 1021 l 391 1023 q 471 965 425 1012 q 532 886 515 921 m 654 488 q 654 465 654 481 q 633 446 646 446 q 604 469 627 446 q 593 457 597 465 q 558 261 586 440 q 509 49 533 100 q 345 -84 464 -47 q 243 -98 302 -98 q 32 -75 56 -98 q -68 34 -1 -38 q -52 53 -66 52 q 30 58 -11 56 q 111 72 77 61 q 217 128 161 88 q 301 211 273 168 q 382 436 353 290 q 404 555 393 496 q 435 673 418 627 q 475 707 448 707 q 499 703 495 707 l 614 590 q 654 488 654 551 m 448 935 q 388 995 439 969 l 321 941 q 355 912 349 918 q 381 877 374 893 l 448 935 m 526 585 q 513 642 525 612 q 476 679 498 679 q 412 446 445 679 q 319 194 391 297 q 104 42 237 75 q 44 36 99 41 q 134 31 73 31 q 357 119 290 31 q 425 326 405 182 q 465 566 452 522 q 504 598 475 598 q 526 585 510 598 z "},"س":{"ha":926,"x_min":14,"x_max":909,"o":"m 909 951 l 903 934 q 777 852 876 909 q 726 883 761 865 q 706 844 713 865 l 706 808 q 359 597 443 668 q 188 248 188 450 q 216 138 188 181 q 311 87 248 87 q 396 111 358 87 q 482 197 440 139 q 528 307 528 260 q 455 456 528 399 q 394 498 434 470 q 393 523 393 514 q 415 620 393 571 q 524 543 463 603 q 546 539 538 539 q 622 566 589 539 q 659 635 659 594 q 651 701 659 633 q 673 731 656 720 q 727 671 681 726 q 737 707 737 695 q 729 769 737 728 q 720 832 720 811 q 741 861 720 855 l 855 751 q 900 548 900 637 q 798 385 900 414 q 675 309 776 317 q 688 195 688 280 q 625 -28 688 71 q 437 -144 553 -144 q 273 -79 334 -144 l 153 47 q 14 395 14 193 q 39 511 14 444 q 179 717 81 627 q 338 840 275 806 q 567 947 380 862 q 789 1066 709 1010 q 909 951 837 1029 m 775 659 q 747 808 775 683 l 747 802 q 753 754 746 785 q 760 707 760 722 q 743 649 760 679 q 700 614 725 614 q 684 620 695 614 q 683 646 680 632 l 680 646 l 680 614 q 633 545 680 576 q 549 515 589 515 l 514 522 q 429 587 471 563 q 418 509 426 574 q 512 427 476 479 q 549 309 549 372 q 471 145 549 226 q 311 64 393 64 q 213 95 258 64 q 138 168 184 115 q 65 364 65 252 q 142 607 65 477 q 646 957 224 747 q 457 873 595 939 q 162 675 258 779 q 38 349 38 540 q 63 236 38 315 q 165 63 95 135 q 342 -19 246 -19 q 508 94 443 -19 q 563 300 563 191 q 547 447 563 385 q 581 435 568 435 q 677 509 650 435 q 755 562 729 509 q 775 659 775 602 z "},"ش":{"ha":926,"x_min":14,"x_max":909,"o":"m 711 1216 q 696 1152 711 1185 q 653 1112 679 1112 l 642 1116 q 629 1135 637 1122 q 612 1140 614 1140 q 541 1074 573 1140 q 503 972 540 1072 l 408 1042 q 405 1079 405 1071 q 406 1118 405 1088 q 465 1253 409 1171 q 574 1339 525 1339 q 623 1322 605 1339 q 675 1273 648 1297 q 711 1216 711 1236 m 909 951 l 903 934 q 777 852 876 909 q 726 883 761 865 q 706 844 713 865 l 706 808 q 359 597 443 668 q 188 248 188 450 q 216 138 188 181 q 311 87 248 87 q 396 111 358 87 q 482 197 440 139 q 528 307 528 260 q 455 456 528 399 q 394 498 434 470 q 393 523 393 514 q 415 620 393 571 q 524 543 463 603 q 546 539 538 539 q 622 566 589 539 q 659 635 659 594 q 651 701 659 633 q 673 731 656 720 q 727 671 681 726 q 737 707 737 695 q 729 769 737 728 q 720 832 720 811 q 741 861 720 855 l 855 751 q 900 548 900 637 q 798 385 900 414 q 675 309 776 317 q 688 195 688 280 q 625 -28 688 71 q 437 -144 553 -144 q 273 -79 334 -144 l 153 47 q 14 395 14 193 q 39 511 14 444 q 179 717 81 627 q 338 840 275 806 q 567 947 380 862 q 789 1066 709 1010 q 909 951 837 1029 m 616 1282 q 603 1303 616 1295 q 574 1312 589 1312 q 487 1235 536 1312 q 433 1121 448 1173 q 475 1196 467 1185 q 546 1235 505 1235 q 589 1208 578 1235 l 585 1206 q 616 1282 616 1229 m 775 659 q 747 808 775 683 l 747 802 q 753 754 746 785 q 760 707 760 722 q 743 649 760 679 q 700 614 725 614 q 684 620 695 614 q 683 646 680 632 l 680 646 l 680 614 q 633 545 680 576 q 549 515 589 515 l 514 522 q 429 587 471 563 q 418 509 426 574 q 512 427 476 479 q 549 309 549 372 q 471 145 549 226 q 311 64 393 64 q 213 95 258 64 q 138 168 184 115 q 65 364 65 252 q 142 607 65 477 q 646 957 224 747 q 457 873 595 939 q 162 675 258 779 q 38 349 38 540 q 63 236 38 315 q 165 63 95 135 q 342 -19 246 -19 q 508 94 443 -19 q 563 300 563 191 q 547 447 563 385 q 581 435 568 435 q 677 509 650 435 q 755 562 729 509 q 775 659 775 602 z "},"ص":{"ha":1001,"x_min":4,"x_max":980,"o":"m 980 680 q 895 450 980 559 q 693 315 810 341 q 692 186 692 310 q 675 167 692 173 q 655 184 665 168 q 649 306 655 203 q 586 303 609 299 l 587 298 q 550 77 587 179 q 410 -90 511 -33 q 333 -109 376 -109 q 208 -61 257 -109 q 58 102 90 54 q 4 319 4 189 q 45 486 4 404 q 251 686 92 580 q 474 876 422 799 l 484 879 q 590 783 520 848 q 551 680 570 731 q 474 588 536 642 l 397 661 l 370 661 l 340 492 q 231 382 259 418 q 176 239 176 311 q 199 146 176 198 q 240 138 220 138 q 388 250 322 138 q 412 359 412 290 q 355 484 412 420 l 355 503 q 374 642 355 530 l 393 647 q 490 553 437 602 l 505 552 q 551 556 508 552 q 621 821 551 725 q 852 966 691 916 q 960 839 939 886 q 980 680 980 792 m 848 873 q 837 935 848 920 l 833 935 q 800 924 829 935 q 651 819 704 886 q 585 686 601 756 q 574 537 576 642 q 504 529 539 529 q 391 606 420 529 q 378 494 385 568 q 435 355 435 428 q 379 193 435 264 q 231 115 318 115 q 104 186 160 115 q 51 326 51 254 q 115 507 51 427 q 261 634 158 560 q 415 756 376 716 q 447 802 439 781 q 340 715 382 745 q 164 597 252 656 q 46 423 81 530 q 27 317 27 364 q 73 121 27 206 q 231 16 130 16 q 465 441 441 16 q 507 427 487 427 q 563 436 523 427 l 570 317 l 574 437 q 678 481 612 437 q 848 873 848 593 m 817 812 q 779 708 817 771 q 576 536 702 576 q 586 618 585 610 q 612 694 595 672 q 698 778 648 741 q 804 824 759 824 l 817 812 z "},"ض":{"ha":1001,"x_min":4,"x_max":980,"o":"m 583 1072 q 566 1014 568 1020 q 531 965 554 986 q 376 1084 431 1021 q 420 1203 387 1137 q 504 1161 480 1181 q 541 1123 509 1156 q 575 1087 573 1090 q 583 1072 578 1082 m 980 680 q 895 450 980 559 q 693 315 810 341 q 692 186 692 310 q 675 167 692 173 q 655 184 665 168 q 649 306 655 203 q 586 303 609 299 l 587 298 q 550 77 587 179 q 410 -90 511 -33 q 333 -109 376 -109 q 208 -61 257 -109 q 58 102 90 54 q 4 319 4 189 q 45 486 4 404 q 251 686 92 580 q 474 876 422 799 l 484 879 q 590 783 520 848 q 551 680 570 731 q 474 588 536 642 l 397 661 l 370 661 l 340 492 q 231 382 259 418 q 176 239 176 311 q 199 146 176 198 q 240 138 220 138 q 388 250 322 138 q 412 359 412 290 q 355 484 412 420 l 355 503 q 374 642 355 530 l 393 647 q 490 553 437 602 l 505 552 q 551 556 508 552 q 621 821 551 725 q 852 966 691 916 q 960 839 939 886 q 980 680 980 792 m 487 1139 q 434 1168 476 1147 l 406 1096 l 436 1044 l 469 1084 l 487 1139 m 848 873 q 837 935 848 920 l 833 935 q 800 924 829 935 q 651 819 704 886 q 585 686 601 756 q 574 537 576 642 q 504 529 539 529 q 391 606 420 529 q 378 494 385 568 q 435 355 435 428 q 379 193 435 264 q 231 115 318 115 q 104 186 160 115 q 51 326 51 254 q 115 507 51 427 q 261 634 158 560 q 415 756 376 716 q 447 802 439 781 q 340 715 382 745 q 164 597 252 656 q 46 423 81 530 q 27 317 27 364 q 73 121 27 206 q 231 16 130 16 q 465 441 441 16 q 507 427 487 427 q 563 436 523 427 l 570 317 l 574 437 q 678 481 612 437 q 848 873 848 593 m 817 812 q 779 708 817 771 q 576 536 702 576 q 586 618 585 610 q 612 694 595 672 q 698 778 648 741 q 804 824 759 824 l 817 812 z "},"ط":{"ha":900,"x_min":-27,"x_max":892,"o":"m 892 572 q 807 255 892 416 q 593 5 722 94 q 594 -57 593 -16 q 595 -117 595 -98 q 578 -147 595 -147 q 488 -51 555 -147 q 302 -97 443 -80 q 104 -111 193 -111 q 34 -68 85 -111 q -27 -7 -14 -28 q -10 26 -27 9 q 431 218 285 110 q 453 448 431 342 q 457 458 454 452 q 446 677 457 587 q 444 639 444 665 q 445 612 444 630 q 447 585 447 593 q 419 539 447 539 q 308 659 403 539 q 305 711 307 676 q 296 746 304 722 q 288 782 288 768 q 310 1001 288 859 q 366 1182 336 1175 q 489 1067 412 1145 q 569 908 519 1029 q 601 797 587 867 q 625 683 613 740 q 755 770 716 764 q 828 709 811 724 q 888 640 876 665 q 892 572 892 595 m 766 659 q 759 747 766 732 q 635 663 707 720 q 534 560 550 595 q 518 518 533 557 l 496 526 q 506 680 506 596 q 447 993 506 766 q 368 1154 431 1057 q 340 1050 348 1114 q 328 942 336 1014 q 311 801 311 804 q 317 762 311 787 q 323 724 323 736 l 326 724 q 365 989 330 877 q 412 928 392 960 q 480 453 480 817 q 473 419 480 441 q 464 385 465 395 q 454 207 454 296 q 47 17 291 83 q 92 16 69 16 q 458 109 313 16 q 464 8 470 36 l 467 5 q 474 54 474 28 q 467 118 474 88 q 754 567 688 272 q 766 659 766 621 m 728 585 q 622 387 699 486 q 470 219 574 323 q 551 475 470 396 q 700 610 633 553 q 710 612 709 612 q 728 585 727 612 z "},"ظ":{"ha":900,"x_min":-27,"x_max":892,"o":"m 796 962 q 779 904 781 910 q 744 855 767 876 q 589 974 644 911 q 633 1093 600 1027 q 788 977 722 1060 q 796 962 791 972 m 892 572 q 807 255 892 416 q 593 5 722 94 q 594 -57 593 -16 q 595 -117 595 -98 q 578 -147 595 -147 q 488 -51 555 -147 q 302 -97 443 -80 q 104 -111 193 -111 q 34 -68 85 -111 q -27 -7 -14 -28 q -10 26 -27 9 q 431 218 285 110 q 453 448 431 342 q 457 458 454 452 q 446 677 457 587 q 444 639 444 665 q 445 612 444 630 q 447 585 447 593 q 419 539 447 539 q 308 659 403 539 q 305 711 307 676 q 296 746 304 722 q 288 782 288 768 q 310 1001 288 859 q 366 1182 336 1175 q 489 1067 412 1145 q 569 908 519 1029 q 601 797 587 867 q 625 683 613 740 q 755 770 716 764 q 828 709 811 724 q 888 640 876 665 q 892 572 892 595 m 700 1029 q 647 1059 689 1037 l 619 986 l 673 956 q 700 1029 683 974 m 766 659 q 759 747 766 732 q 635 663 707 720 q 534 560 550 595 q 518 518 533 557 l 496 526 q 506 680 506 596 q 447 993 506 766 q 368 1154 431 1057 q 340 1050 348 1114 q 328 942 336 1014 q 311 801 311 804 q 317 762 311 787 q 323 724 323 736 l 326 724 q 365 989 330 877 q 412 928 392 960 q 480 453 480 817 q 473 419 480 441 q 464 385 465 395 q 454 207 454 296 q 47 17 291 83 q 92 16 69 16 q 458 109 313 16 q 464 8 470 36 l 467 5 q 474 54 474 28 q 467 118 474 88 q 754 567 688 272 q 766 659 766 621 m 728 585 q 622 387 699 486 q 470 219 574 323 q 551 475 470 396 q 700 610 633 553 q 710 612 709 612 q 728 585 727 612 z "},"ع":{"ha":783,"x_min":56,"x_max":907,"o":"m 907 361 q 854 244 907 333 q 509 -81 712 5 q 300 -130 393 -130 q 183 -80 231 -130 l 71 37 q 56 132 56 52 q 125 336 56 227 q 261 509 164 398 q 144 591 144 533 q 264 823 144 749 q 370 857 319 857 q 517 741 397 857 q 607 822 558 781 q 729 702 645 787 q 697 589 721 637 l 542 445 l 534 315 q 509 288 533 288 q 492 305 490 288 l 444 372 q 289 180 391 309 q 248 119 275 159 q 686 353 466 119 q 738 422 695 363 q 793 481 772 469 q 907 361 907 379 m 749 386 l 749 390 q 725 363 744 386 q 612 252 680 309 q 220 90 422 90 q 140 104 176 90 q 94 161 94 124 q 121 224 94 178 q 409 554 192 343 l 416 432 l 418 559 l 576 705 q 597 783 586 732 q 419 641 493 679 q 421 747 421 737 q 357 833 421 833 q 274 804 326 833 q 168 591 168 743 q 223 540 168 557 q 304 524 237 535 q 154 334 184 381 q 79 109 79 218 q 223 -5 79 -5 q 335 16 258 -5 q 435 59 418 40 q 612 197 528 104 q 748 376 708 302 q 749 386 749 378 m 412 636 q 319 620 363 620 q 218 639 289 620 l 208 656 l 210 667 q 266 718 225 696 q 340 738 304 738 q 412 636 413 738 z "},"غ":{"ha":783,"x_min":56,"x_max":907,"o":"m 428 1059 q 410 1001 413 1007 q 376 952 399 973 q 220 1071 275 1008 q 265 1190 232 1124 q 349 1148 325 1168 q 386 1110 354 1143 q 420 1074 418 1077 l 428 1059 m 907 361 q 854 244 907 333 q 509 -81 712 5 q 300 -130 393 -130 q 183 -80 231 -130 l 71 37 q 56 132 56 52 q 125 336 56 227 q 261 509 164 398 q 144 591 144 533 q 264 823 144 749 q 370 857 319 857 q 517 741 397 857 q 607 822 558 781 q 729 702 645 787 q 697 589 721 637 l 542 445 l 534 315 q 509 288 533 288 q 492 305 490 288 l 444 372 q 289 180 391 309 q 248 119 275 159 q 686 353 466 119 q 738 422 695 363 q 793 481 772 469 q 907 361 907 379 m 332 1126 q 279 1156 321 1134 l 251 1083 l 304 1053 q 332 1126 315 1071 m 749 386 l 749 390 q 725 363 744 386 q 612 252 680 309 q 220 90 422 90 q 140 104 176 90 q 94 161 94 124 q 121 224 94 178 q 409 554 192 343 l 416 432 l 418 559 l 576 705 q 597 783 586 732 q 419 641 493 679 q 421 747 421 737 q 357 833 421 833 q 274 804 326 833 q 168 591 168 743 q 223 540 168 557 q 304 524 237 535 q 154 334 184 381 q 79 109 79 218 q 223 -5 79 -5 q 335 16 258 -5 q 435 59 418 40 q 612 197 528 104 q 748 376 708 302 q 749 386 749 378 m 412 636 q 319 620 363 620 q 218 639 289 620 l 208 656 l 210 667 q 266 718 225 696 q 340 738 304 738 q 412 636 413 738 z "},"ـ":{"ha":404,"x_min":-3,"x_max":507,"o":"m 406 412 l -1 410 l -1 439 l 406 440 l 406 412 m 507 180 l 98 179 l -3 308 l 406 309 l 507 180 z "},"ف":{"ha":1286,"x_min":12,"x_max":1284,"o":"m 1284 356 q 1270 275 1284 342 q 1246 189 1257 218 q 1101 27 1217 113 q 521 -180 826 -180 q 240 -100 351 -180 q 128 8 231 -94 q 39 118 60 75 q 12 258 12 171 q 52 399 12 330 q 281 570 119 515 q 576 648 429 609 q 825 802 747 699 q 764 842 791 818 q 823 949 772 880 q 935 870 863 930 q 1025 774 1014 805 q 1006 719 1016 747 q 970 673 993 687 l 960 680 q 709 494 842 536 q 401 393 444 410 q 176 210 176 300 q 199 110 176 140 q 475 53 308 53 q 738 111 591 53 q 978 239 866 162 q 1029 276 1011 261 q 1069 323 1063 304 q 1013 372 1029 356 q 968 424 970 412 q 967 448 967 429 q 984 547 967 495 q 1042 616 1006 616 q 1156 547 1076 616 q 1255 450 1213 498 q 1284 356 1284 418 m 1158 467 q 1047 591 1158 540 q 1043 593 1044 593 q 1003 525 1020 593 q 990 435 990 472 l 991 428 q 1023 418 997 418 q 1087 465 1064 418 q 1138 397 1138 433 q 1137 387 1138 391 q 849 135 1088 250 q 467 30 631 30 q 190 85 298 30 q 50 311 50 158 q 278 511 50 416 q 599 618 336 536 q 768 699 701 650 q 857 806 802 724 l 869 803 q 898 876 883 822 q 830 919 888 893 l 792 849 q 848 815 821 830 q 822 766 842 809 q 763 709 808 736 q 519 607 652 643 q 352 567 436 587 q 199 509 257 543 q 75 391 123 465 q 35 253 35 328 q 158 14 35 94 q 429 -54 262 -54 q 819 44 614 -54 q 1122 300 1040 151 q 1146 382 1133 319 q 1158 467 1158 441 z "},"ق":{"ha":728,"x_min":-8,"x_max":694,"o":"m 694 309 q 633 32 694 150 q 413 -115 557 -115 q 216 -57 296 -115 q 69 92 179 -31 q 14 201 37 128 q -8 324 -8 270 q 62 598 -8 448 q 197 802 103 685 q 347 996 323 960 q 285 980 337 994 q 222 970 246 970 q 195 975 204 970 q 239 1092 201 1012 q 332 1113 286 1103 q 422 1128 404 1129 l 431 1127 q 547 1012 473 1090 q 548 967 548 994 q 505 863 548 939 q 420 750 468 798 q 392 754 404 754 q 300 594 300 754 q 207 423 245 517 q 164 235 164 317 q 191 134 164 191 q 307 117 229 117 q 514 322 445 117 l 538 318 q 321 93 439 93 q 176 112 222 93 q 70 216 112 138 q 41 329 41 271 q 140 640 41 477 q 323 893 157 669 q 422 1102 422 1026 q 254 1071 409 1102 q 220 994 243 1044 q 304 1009 243 996 q 389 1021 355 1021 q 263 846 354 951 q 130 677 162 730 q 54 517 100 629 q 16 346 16 422 q 36 214 16 277 q 57 155 40 202 q 161 46 82 86 q 311 10 231 10 q 513 151 441 10 q 571 407 571 263 q 465 686 571 605 q 397 715 428 715 q 364 707 382 715 q 339 600 339 682 q 341 554 339 563 q 365 515 345 532 q 408 494 387 494 q 458 522 441 494 q 480 578 469 536 q 559 442 559 532 q 538 318 559 388 l 514 323 q 527 372 522 342 q 456 390 474 374 q 315 566 315 519 q 392 738 315 738 q 468 720 450 738 l 583 604 q 642 539 604 583 q 694 309 694 468 z "},"ك":{"ha":864,"x_min":-128,"x_max":844,"o":"m 844 1436 q 780 1222 808 1337 q 766 1128 772 1190 q 755 1035 760 1061 q 737 1010 752 1022 l 719 1010 l 644 1128 q 366 972 503 1026 q 555 714 465 882 q 646 802 612 756 q 709 909 669 833 l 722 918 q 791 861 757 890 q 842 791 842 814 q 818 705 842 760 q 741 591 785 632 q 629 509 732 585 q 676 248 676 351 q 672 123 676 154 q 633 5 665 64 q 541 -130 583 -88 q 394 -193 477 -193 q 214 -96 318 -193 q 88 70 120 -9 q 61 201 61 137 q 273 561 61 426 q 243 768 271 593 q 227 977 224 895 q 125 1051 209 985 l 124 1058 q 134 1074 124 1069 q 199 1099 156 1082 q 342 1164 273 1130 q 542 1333 414 1200 q 701 1539 669 1466 l 718 1551 q 844 1436 779 1499 m 247 785 q 209 730 247 761 q 171 690 171 699 q 219 640 191 673 q 222 591 222 616 q 199 536 222 566 q 76 451 168 496 q -66 407 -16 407 l -128 486 q 81 623 -60 534 q 39 664 43 659 q 21 719 21 687 q 69 807 21 755 q 153 858 117 858 q 182 854 172 858 l 247 792 l 247 785 m 708 1501 q 547 1303 640 1401 q 354 1143 435 1185 q 258 1100 321 1126 l 241 1084 q 455 1198 379 1146 q 637 1359 547 1259 l 658 1348 q 641 1135 643 1274 l 627 1135 q 640 1220 635 1148 q 708 1501 651 1353 m 688 816 l 684 823 q 604 720 644 756 q 492 650 564 684 q 256 1050 431 869 q 253 979 256 1027 q 250 906 250 930 q 271 739 250 883 q 298 549 281 673 q 85 201 85 421 q 144 18 85 97 q 311 -68 210 -68 q 467 30 391 -68 q 546 203 534 118 q 551 345 551 243 q 499 622 551 437 q 614 701 557 662 q 688 816 673 750 m 166 836 q 90 792 123 821 q 48 718 48 757 q 109 628 48 692 l 109 625 q -59 500 82 591 q 45 547 -12 514 q 132 619 113 587 q 144 675 144 642 q 117 706 144 682 q 90 741 90 730 q 122 792 90 766 q 166 836 160 822 m 471 641 q 414 610 465 637 q 317 551 397 600 q 281 879 281 781 q 288 913 281 882 q 471 641 442 759 m 526 361 q 472 137 526 230 q 284 24 406 24 q 152 86 199 24 q 111 231 111 142 q 123 301 111 247 q 187 435 141 383 q 305 528 221 473 q 324 404 313 486 l 328 404 l 334 406 l 315 531 q 482 625 379 563 q 526 424 526 469 l 526 361 m 437 648 l 393 726 l 407 637 l 437 648 m 499 370 q 498 372 499 368 l 496 386 l 492 437 q 442 416 475 435 q 459 239 459 294 q 440 222 459 231 q 410 269 420 222 q 400 333 405 301 l 390 376 q 296 303 319 329 q 248 196 261 264 q 236 100 236 139 q 237 61 236 98 q 285 47 267 47 q 401 91 342 47 q 499 370 499 165 z "},"ل":{"ha":891,"x_min":18,"x_max":923,"o":"m 923 922 q 716 799 795 833 q 805 579 771 730 q 834 340 834 451 q 806 176 834 269 q 784 98 795 137 q 751 24 770 52 q 499 -113 656 -113 q 296 -46 392 -113 q 136 102 250 -13 q 50 239 81 157 q 18 401 18 321 q 58 577 18 481 q 158 723 98 673 q 416 882 256 805 q 342 1209 342 1109 q 349 1295 342 1256 q 470 1172 418 1227 q 543 1077 500 1139 q 612 979 593 1003 q 803 1057 675 1006 q 923 922 823 1055 m 798 1022 l 791 1027 q 571 927 720 991 q 368 1242 481 1085 l 365 1241 l 365 1230 q 392 1047 365 1151 q 444 869 418 958 q 334 812 382 841 q 176 704 218 745 q 72 543 112 645 q 41 391 41 466 q 76 242 41 332 q 300 35 143 68 q 385 22 360 22 q 682 283 605 22 q 710 450 710 380 q 676 693 710 561 q 576 913 637 845 l 798 1022 m 539 915 l 449 872 q 416 988 438 903 q 392 1097 392 1079 q 399 1116 392 1103 q 539 915 454 1050 m 680 507 q 671 379 680 422 q 557 189 651 277 q 359 96 459 96 q 165 183 246 96 q 85 382 85 269 q 115 534 85 448 q 234 727 157 659 q 427 848 279 767 l 507 552 l 512 547 l 517 546 q 475 701 496 623 q 451 857 451 796 l 545 900 q 680 507 680 649 m 657 502 q 635 626 657 555 q 593 746 614 686 l 578 741 q 617 564 582 709 q 640 386 643 456 l 639 371 q 501 475 593 406 q 444 671 482 530 q 274 511 327 606 q 224 282 224 420 q 238 160 224 185 q 348 119 260 119 q 540 203 447 119 q 649 383 630 284 q 657 502 657 426 z "},"م":{"ha":766,"x_min":54,"x_max":781,"o":"m 781 -454 q 653 -481 775 -481 q 444 -442 551 -481 q 264 -332 332 -400 q 111 -161 139 -203 q 54 59 54 -72 q 80 186 54 95 q 224 448 117 316 q 432 668 280 518 q 423 738 423 691 q 427 792 423 779 q 529 825 501 800 q 577 923 557 850 l 585 932 q 604 937 598 937 l 609 937 l 716 834 q 722 774 722 810 q 631 518 722 641 q 444 311 623 507 q 286 68 326 184 q 257 -90 257 -18 q 297 -228 257 -174 q 414 -290 319 -257 q 549 -328 490 -317 q 692 -336 593 -336 q 670 -332 675 -336 l 685 -329 q 781 -454 691 -338 m 682 -360 l 672 -360 q 414 -319 528 -361 q 304 -262 363 -300 q 207 -183 239 -220 q 133 54 133 -96 q 157 165 133 89 q 281 380 189 270 q 452 564 366 472 q 568 726 545 665 q 597 892 596 798 q 543 804 581 832 q 447 770 510 780 l 447 738 q 452 679 447 693 l 464 667 q 207 382 287 495 q 76 31 76 198 q 134 -152 76 -75 q 279 -282 171 -200 q 423 -351 352 -338 q 598 -364 492 -364 q 682 -360 669 -364 z "},"ن":{"ha":616,"x_min":-24,"x_max":567,"o":"m 567 283 q 562 240 567 266 q 541 134 556 204 q 473 20 528 80 q 365 -54 416 -43 q 294 -60 333 -60 q 134 16 205 -60 l 18 142 q -10 218 5 157 q -24 303 -24 275 q 243 854 -24 591 q 300 922 288 898 q 333 1001 304 928 q 362 1012 346 1009 q 459 895 399 972 l 459 890 q 441 816 459 879 q 417 746 423 753 q 340 669 391 720 q 138 225 138 454 q 146 185 138 227 q 210 175 175 175 q 279 197 247 175 q 233 240 271 216 q 189 277 195 264 l 188 285 q 198 374 188 311 q 227 509 216 481 q 333 579 258 579 q 469 497 388 579 q 558 361 546 418 q 567 283 567 318 m 456 396 q 416 501 456 450 q 322 555 374 555 q 212 354 234 555 q 214 320 213 342 l 212 285 l 216 283 l 218 281 q 286 267 259 274 q 297 309 295 281 q 303 351 299 340 l 305 353 q 269 364 286 363 l 277 363 q 232 362 262 363 q 318 450 241 450 q 385 431 359 450 q 416 371 416 410 q 290 175 416 264 q 182 151 255 151 q 100 180 138 151 q 46 260 58 210 q 39 358 39 289 q 61 476 39 394 q 164 686 90 586 q 321 859 211 749 q 358 978 327 865 q 309 884 331 947 q 227 798 255 830 q 60 571 99 647 q 0 296 0 456 q 40 160 0 229 q 144 68 83 85 q 214 64 159 64 q 394 180 323 64 q 456 396 456 279 z "},"ه":{"ha":454,"x_min":0,"x_max":435,"o":"m 435 589 q 406 475 435 538 q 334 385 374 406 q 186 178 326 303 l 16 338 q 113 473 26 350 q 68 528 108 484 q 8 614 19 583 q 0 720 0 640 q 37 863 0 783 q 133 966 80 954 q 174 970 154 970 q 251 941 214 970 q 391 790 353 860 q 435 589 435 711 m 309 678 q 254 900 309 837 q 173 947 214 947 q 105 922 131 947 q 47 823 71 889 q 24 710 24 760 q 50 576 24 604 q 41 666 41 648 q 68 785 41 729 q 160 852 103 852 q 253 799 207 852 q 298 698 298 745 q 277 631 298 665 q 228 579 256 596 q 231 614 231 594 q 228 662 231 646 q 205 702 224 677 q 171 730 184 730 q 117 539 117 730 q 143 479 117 500 q 54 343 87 367 l 61 343 q 159 399 109 341 q 209 504 208 454 q 278 578 247 523 q 309 678 309 634 m 225 578 q 174 545 203 545 q 139 562 155 545 q 123 597 123 578 q 161 642 123 642 q 225 578 201 642 z "},"و":{"ha":611,"x_min":-60,"x_max":603,"o":"m 603 403 q 548 132 603 235 q 464 21 527 92 q 364 -53 416 -33 q 107 -85 279 -85 q 58 -79 83 -85 q -59 41 13 -39 q -46 60 -60 55 q 136 117 16 76 q 417 433 343 209 l 372 450 q 302 523 337 486 q 252 601 252 580 q 319 775 252 775 q 476 675 387 775 q 603 403 603 532 m 478 509 q 472 572 478 555 q 320 752 410 752 q 275 602 275 752 q 297 570 275 585 q 338 554 319 554 q 415 608 382 554 q 454 505 454 537 q 365 275 454 391 q 176 111 285 170 q -17 42 119 81 q 39 41 -1 41 q 176 47 112 41 q 346 139 277 58 l 390 191 q 478 509 478 294 z "},"ى":{"ha":764,"x_min":-35,"x_max":682,"o":"m 682 104 q 594 -119 682 -25 q 376 -216 505 -216 q 168 -98 279 -216 q 87 -14 127 -56 q 14 76 35 41 q -35 288 -35 155 q -13 421 -35 343 q 154 751 46 628 q 271 877 193 792 q 380 1010 307 922 q 422 1086 391 1022 q 459 1146 449 1142 q 578 1025 538 1091 q 540 890 570 963 q 465 774 505 807 q 373 702 433 752 q 233 490 293 620 q 170 247 170 353 q 184 146 170 208 q 214 49 198 83 q 320 36 254 36 q 473 128 408 36 q 364 207 416 155 q 291 317 306 264 q 281 427 281 351 q 286 507 281 484 q 345 646 299 570 q 449 735 399 735 q 538 706 509 735 l 652 592 q 656 551 656 576 q 642 502 656 531 q 610 465 627 470 l 592 481 l 591 486 q 558 501 579 501 q 448 380 497 501 l 448 374 l 458 368 l 509 359 q 614 273 587 299 q 678 157 669 216 q 682 104 682 134 m 556 225 q 526 324 556 304 q 422 349 511 335 q 315 435 315 365 q 355 558 315 497 q 457 626 399 626 q 505 606 481 626 l 513 591 q 524 629 513 602 q 531 669 532 654 l 530 680 q 449 712 496 712 q 355 618 404 712 q 307 479 314 538 q 304 384 304 463 q 363 259 304 289 q 472 237 382 250 q 530 188 530 229 q 478 92 530 142 q 385 27 435 50 q 311 13 353 13 q 219 21 251 13 q 79 139 132 43 q 31 322 31 225 q 189 714 31 511 q 294 833 210 741 q 393 958 360 907 q 429 1035 411 986 q 288 861 357 943 q 121 661 121 661 q 16 423 48 559 q -11 257 -11 313 q 80 24 -11 133 q 297 -90 176 -90 q 465 -14 387 -90 q 551 151 539 60 q 556 225 556 186 z "},"ي":{"ha":764,"x_min":-35,"x_max":682,"o":"m 682 104 q 594 -119 682 -25 q 376 -216 505 -216 q 168 -98 279 -216 q 87 -14 127 -56 q 14 76 35 41 q -35 288 -35 155 q -13 421 -35 343 q 154 751 46 628 q 271 877 193 792 q 380 1010 307 922 q 422 1086 391 1022 q 459 1146 449 1142 q 578 1025 538 1091 q 540 890 570 963 q 465 774 505 807 q 373 702 433 752 q 233 490 293 620 q 170 247 170 353 q 184 146 170 208 q 214 49 198 83 q 320 36 254 36 q 473 128 408 36 q 364 207 416 155 q 291 317 306 264 q 281 427 281 351 q 286 507 281 484 q 345 646 299 570 q 449 735 399 735 q 538 706 509 735 l 652 592 q 656 551 656 576 q 642 502 656 531 q 610 465 627 470 l 592 481 l 591 486 q 558 501 579 501 q 448 380 497 501 l 448 374 l 458 368 l 509 359 q 614 273 587 299 q 678 157 669 216 q 682 104 682 134 m 556 225 q 526 324 556 304 q 422 349 511 335 q 315 435 315 365 q 355 558 315 497 q 457 626 399 626 q 505 606 481 626 l 513 591 q 524 629 513 602 q 531 669 532 654 l 530 680 q 449 712 496 712 q 355 618 404 712 q 307 479 314 538 q 304 384 304 463 q 363 259 304 289 q 472 237 382 250 q 530 188 530 229 q 478 92 530 142 q 385 27 435 50 q 311 13 353 13 q 219 21 251 13 q 79 139 132 43 q 31 322 31 225 q 189 714 31 511 q 294 833 210 741 q 393 958 360 907 q 429 1035 411 986 q 288 861 357 943 q 121 661 121 661 q 16 423 48 559 q -11 257 -11 313 q 80 24 -11 133 q 297 -90 176 -90 q 465 -14 387 -90 q 551 151 539 60 q 556 225 556 186 z "},"ً":{"ha":0,"x_min":0,"x_max":253,"o":"m 253 315 q 223 226 253 243 l 0 99 q 7 158 0 144 q 50 198 15 178 l 253 315 m 253 216 q 223 127 253 144 l 0 0 q 7 59 0 45 q 50 99 15 79 l 253 216 m 228 273 l 62 178 q 40 163 46 168 q 25 141 30 154 l 211 246 q 228 273 222 253 m 228 174 l 62 79 q 40 64 46 69 q 25 42 30 55 l 211 147 q 228 174 222 154 z "},"ٌ":{"ha":0,"x_min":-3,"x_max":290,"o":"m 290 113 l 289 55 q 216 98 264 67 q 134 31 162 46 q 31 0 99 12 q 70 103 70 77 q 47 128 70 128 q 26 87 31 128 l 3 84 q -3 130 -3 107 q 16 185 -3 160 q 64 210 35 210 q 122 131 122 210 q 119 86 122 115 q 172 127 138 94 q 134 193 134 162 q 162 268 134 231 q 228 304 191 304 q 286 229 286 304 q 267 165 286 214 q 290 113 290 146 m 267 113 l 262 134 q 238 157 256 143 q 263 237 263 218 q 229 281 263 281 q 179 253 202 281 q 156 199 156 226 q 204 134 156 159 q 154 85 163 92 q 93 50 130 65 q 100 133 100 88 q 92 167 100 151 q 65 186 81 186 q 20 136 25 186 q 48 151 35 151 q 92 105 92 151 q 72 31 92 73 q 214 130 146 50 q 267 93 231 116 l 267 113 m 239 212 q 232 163 239 195 q 174 232 174 206 q 202 258 174 258 q 239 212 239 258 m 216 205 l 216 213 q 199 235 216 235 q 193 231 193 235 q 216 205 193 219 z "},"ٍ":{"ha":0,"x_min":0,"x_max":253,"o":"m 253 0 q 223 -90 253 -73 l 0 -216 q 7 -157 0 -172 q 50 -117 15 -138 l 253 0 m 253 -99 q 223 -189 253 -172 l 0 -315 q 7 -256 0 -271 q 50 -216 15 -237 l 253 -99 m 228 -42 l 62 -138 q 40 -153 46 -147 q 25 -174 30 -161 l 211 -69 q 228 -42 222 -62 m 228 -141 l 62 -237 q 40 -252 46 -246 q 25 -273 30 -260 l 211 -168 q 228 -141 222 -161 z "},"َ":{"ha":0,"x_min":0,"x_max":253,"o":"m 253 216 q 223 127 253 144 l 0 0 q 7 59 0 45 q 50 99 15 79 l 253 216 m 228 174 l 62 79 q 40 64 46 69 q 25 42 30 55 l 211 147 q 228 174 222 154 z "},"ُ":{"ha":0,"x_min":0,"x_max":275,"o":"m 275 146 l 268 55 q 205 94 231 76 q 62 0 127 0 q 0 16 50 0 q 156 125 87 62 q 121 186 121 159 q 146 267 121 227 q 211 312 173 312 q 269 241 269 312 q 251 165 269 207 l 275 146 m 251 135 l 224 158 q 246 241 246 208 q 212 289 246 289 q 161 252 182 289 q 144 187 144 220 q 191 130 144 160 q 61 23 138 81 l 69 23 q 202 125 111 23 q 248 94 210 119 l 251 135 m 228 193 q 219 159 228 191 q 158 229 158 196 q 182 254 158 254 q 228 193 228 254 m 204 197 l 204 201 q 179 231 204 231 q 204 197 179 218 z "},"ِ":{"ha":0,"x_min":0,"x_max":253,"o":"m 253 0 q 223 -90 253 -73 l 0 -216 q 7 -157 0 -172 q 50 -117 15 -138 l 253 0 m 228 -42 l 62 -138 q 40 -153 46 -147 q 25 -174 30 -161 l 211 -69 q 228 -42 222 -62 z "},"ّ":{"ha":0,"x_min":0,"x_max":264,"o":"m 264 161 q 245 83 264 116 q 181 44 223 44 q 144 52 162 44 q 67 0 121 0 q 0 85 0 0 q 17 163 0 114 l 54 170 q 69 92 54 92 q 120 200 98 92 l 151 211 q 182 140 165 140 q 216 236 216 140 l 250 252 q 264 161 264 193 m 241 159 q 239 195 241 178 q 222 143 224 146 q 180 117 209 117 q 137 165 157 117 q 68 69 119 69 q 31 125 40 69 q 23 85 23 102 q 66 23 23 23 q 130 90 113 23 q 180 67 161 67 q 227 100 210 67 q 241 159 241 126 z "},"ْ":{"ha":0,"x_min":0,"x_max":198,"o":"m 198 123 q 164 39 198 77 q 84 0 130 0 q 0 94 0 0 q 24 189 0 150 q 104 235 52 235 q 172 197 144 235 q 198 123 198 163 m 175 123 q 155 181 175 154 q 104 212 134 212 q 24 87 24 212 q 84 23 24 23 q 147 55 119 23 q 175 123 175 87 m 161 106 q 96 67 161 67 q 31 119 31 67 q 83 176 31 176 q 133 152 104 176 q 161 106 161 127 m 138 106 q 116 135 138 117 q 82 153 94 153 q 54 119 54 153 q 96 90 54 90 q 138 106 138 90 z "},"ٓ":{"ha":0,"x_min":9,"x_max":490,"o":"m 490 71 l 378 71 q 279 36 353 71 q 157 0 205 0 q 66 22 112 0 q 9 87 10 47 q 133 69 96 69 q 233 100 170 69 q 332 130 296 130 q 490 71 404 130 m 402 95 q 332 106 369 106 q 237 76 300 106 q 133 45 175 45 q 53 56 102 45 q 157 24 109 24 q 274 59 201 24 q 378 95 347 95 l 402 95 z "},"ٔ":{"ha":0,"x_min":0,"x_max":212,"o":"m 127 80 q 78 132 78 80 q 102 210 78 168 q 161 259 130 259 q 191 250 172 259 q 189 201 192 215 q 164 187 187 197 q 144 167 144 179 l 167 168 q 212 125 212 169 q 144 29 212 64 q 22 0 88 0 q 0 16 0 0 q 3 33 0 27 q 127 80 47 48 m 18 18 q 82 28 42 18 q 142 49 127 39 q 184 125 184 79 q 157 141 184 141 q 117 170 117 140 q 135 194 117 183 q 166 201 153 204 q 169 235 166 209 q 122 200 141 235 q 105 129 105 169 q 115 105 105 110 q 136 104 118 104 q 159 85 159 104 q 91 43 159 62 q 18 18 20 22 z "},"ٕ":{"ha":0,"x_min":0,"x_max":212,"o":"m 127 -179 q 78 -127 78 -179 q 102 -49 78 -92 q 161 0 130 0 q 191 -9 172 0 q 189 -58 192 -44 q 164 -72 187 -62 q 144 -92 144 -80 l 167 -92 q 212 -134 212 -90 q 144 -230 212 -195 q 22 -259 88 -259 q 0 -243 0 -259 q 3 -227 0 -232 q 127 -179 47 -211 m 18 -241 q 82 -231 42 -241 q 142 -210 127 -220 q 184 -134 184 -180 q 157 -118 184 -118 q 117 -90 117 -119 q 135 -65 117 -76 q 166 -58 153 -55 q 169 -24 166 -50 q 122 -59 141 -24 q 105 -130 105 -90 q 115 -154 105 -149 q 136 -155 118 -155 q 159 -174 159 -155 q 91 -216 159 -197 q 18 -241 20 -237 z "},"٠":{"ha":642,"x_min":231,"x_max":513,"o":"m 513 198 l 485 54 l 465 44 q 327 140 391 93 q 296 186 313 162 q 236 231 270 203 l 231 244 q 273 397 242 297 l 296 403 q 513 198 346 359 m 385 296 q 292 369 326 338 q 259 247 273 315 q 359 180 294 219 q 385 296 366 223 z "},"١":{"ha":642,"x_min":185,"x_max":516,"o":"m 516 85 q 496 -106 516 38 l 481 -115 l 473 -113 l 357 3 q 187 552 353 311 l 185 562 q 223 695 200 630 l 343 601 q 409 497 356 591 q 483 297 449 427 q 516 85 516 167 m 387 99 l 387 168 q 347 424 387 290 q 240 660 307 558 q 214 562 222 604 q 361 228 319 395 q 387 99 368 184 z "},"٢":{"ha":642,"x_min":121,"x_max":593,"o":"m 593 578 q 569 414 593 462 q 428 349 533 342 q 489 54 489 176 q 486 -21 489 26 q 481 -96 481 -76 l 467 -109 l 431 -98 l 332 7 q 270 309 332 144 q 123 579 212 465 l 121 592 l 158 693 l 182 696 q 251 621 229 639 q 345 584 294 584 q 419 616 388 584 q 453 692 450 648 q 593 578 500 655 m 462 610 l 461 629 q 345 557 408 557 q 248 588 292 557 q 176 661 220 608 l 149 589 q 342 168 283 411 q 355 79 346 138 l 358 77 q 360 166 360 161 q 292 461 360 296 l 307 480 q 350 476 336 476 q 436 516 406 476 q 462 610 464 553 z "},"٣":{"ha":696,"x_min":73,"x_max":690,"o":"m 690 591 q 551 378 690 378 q 467 414 504 378 q 366 359 427 359 q 407 112 407 253 q 391 -90 407 43 l 376 -102 l 350 -96 l 243 14 q 245 78 245 68 q 75 555 245 323 l 73 568 l 108 688 l 132 692 q 189 623 152 652 q 269 589 229 589 q 382 697 338 589 l 395 706 l 403 706 l 416 694 q 482 614 427 614 q 549 694 530 614 q 690 591 613 651 m 557 629 q 482 587 522 587 q 395 666 435 587 q 262 562 357 562 q 184 591 220 562 q 126 654 163 608 l 101 566 q 272 58 272 345 q 278 231 278 222 q 233 471 278 383 l 248 490 q 269 488 257 488 q 355 547 314 488 l 376 547 q 449 507 403 507 q 557 629 540 507 z "},"٤":{"ha":642,"x_min":172,"x_max":609,"o":"m 609 7 l 577 -96 l 562 -106 q 295 -24 446 -88 q 191 113 191 100 q 234 235 191 171 q 317 338 252 262 q 229 378 247 367 q 172 448 172 410 q 253 597 172 512 q 392 709 318 665 l 515 594 l 486 488 q 413 446 477 475 q 547 309 547 321 q 425 153 547 287 q 522 89 475 129 q 609 7 566 48 m 477 104 q 380 129 401 123 q 290 168 319 147 q 276 197 276 178 q 340 298 276 222 q 420 409 410 383 q 338 457 419 414 q 257 522 257 499 q 359 602 257 559 l 377 667 q 199 448 199 540 q 260 391 199 422 q 346 355 263 389 l 351 333 q 263 234 280 257 q 218 113 218 170 q 328 53 218 83 q 453 25 333 52 l 477 104 z "},"٥":{"ha":642,"x_min":119,"x_max":627,"o":"m 627 266 q 600 173 627 233 q 520 66 565 97 q 392 35 473 35 q 305 54 340 35 q 236 110 281 66 q 152 191 207 136 q 119 295 119 227 q 176 467 119 376 q 313 568 237 568 q 453 507 391 568 l 582 380 q 627 266 627 336 m 498 376 q 434 489 498 435 q 313 541 373 541 q 202 430 259 541 q 150 267 150 329 q 197 188 150 216 q 290 163 237 163 q 404 191 363 163 q 474 286 444 218 q 498 376 498 340 m 480 304 q 357 240 480 240 q 190 311 190 240 q 214 414 190 363 q 290 476 243 476 q 408 413 336 476 q 480 304 480 349 m 437 313 q 371 347 437 347 q 335 326 355 347 q 311 287 316 304 q 344 272 313 272 q 437 313 437 272 z "},"٦":{"ha":682,"x_min":115,"x_max":631,"o":"m 631 55 l 619 -77 l 600 -92 q 471 9 540 -64 q 390 131 408 75 q 378 237 378 166 q 364 374 376 317 q 232 417 271 378 q 134 516 182 467 q 115 633 115 543 q 119 677 115 642 l 132 688 l 146 688 l 158 681 q 294 622 190 622 q 432 647 348 622 l 551 531 q 549 448 549 517 q 547 392 549 429 q 544 335 544 354 q 568 144 544 264 q 625 67 576 103 l 631 55 m 501 152 q 483 179 494 163 q 412 536 412 279 q 418 615 412 541 q 287 595 349 595 q 144 654 216 595 q 142 610 142 640 q 146 549 142 558 q 254 505 161 505 q 370 525 305 505 l 387 512 l 387 491 q 397 330 387 455 q 410 168 404 249 q 492 43 427 67 l 501 152 z "},"٧":{"ha":751,"x_min":63,"x_max":676,"o":"m 676 429 l 669 417 q 465 -82 527 342 l 452 -94 l 300 20 q 252 239 283 153 q 142 434 216 333 q 71 501 106 484 l 63 514 l 86 673 l 105 684 l 172 642 q 373 332 299 561 l 404 459 q 439 541 406 470 q 555 688 492 654 l 675 576 l 676 429 m 554 538 l 547 652 q 456 517 499 618 q 400 360 447 496 q 328 146 372 279 q 277 367 294 316 q 180 572 248 459 q 112 651 145 631 l 91 522 q 165 450 121 507 q 324 35 273 312 q 391 258 334 108 q 490 470 448 409 q 554 538 519 513 z "},"٨":{"ha":669,"x_min":77,"x_max":676,"o":"m 676 75 l 668 -88 l 617 -85 q 476 60 519 4 q 381 239 418 134 q 315 50 345 115 q 198 -100 261 -70 q 77 14 177 -89 l 77 160 l 83 172 q 197 353 134 200 q 266 562 250 479 q 295 688 280 633 q 439 569 348 650 q 511 300 457 433 q 668 87 579 130 l 676 75 m 547 169 q 463 250 511 187 q 403 351 415 310 l 313 655 q 238 387 298 548 q 104 153 167 195 l 104 39 q 231 273 151 68 q 323 544 296 436 q 398 270 368 357 q 539 39 461 90 l 547 169 z "},"٩":{"ha":710,"x_min":135,"x_max":628,"o":"m 628 38 l 610 -113 l 586 -122 l 488 -22 q 466 -9 480 -18 q 407 82 431 15 q 385 190 385 141 q 353 216 385 211 q 275 237 320 220 l 157 355 q 135 443 135 378 q 164 557 135 488 q 224 660 193 627 q 315 696 260 696 q 397 661 355 696 q 463 595 430 627 q 528 528 499 558 q 549 365 544 484 q 562 175 555 218 q 620 52 576 77 l 628 38 m 498 133 q 444 226 457 157 q 433 338 443 231 l 416 536 q 315 669 405 669 q 205 585 254 669 q 162 443 162 510 q 188 368 162 397 q 260 340 214 340 q 383 395 317 340 l 406 385 q 484 12 406 71 l 498 133 m 370 477 l 366 466 q 277 437 323 437 q 222 455 248 437 q 193 502 193 475 q 224 549 193 532 q 283 564 251 564 q 370 477 356 564 z "},"٪":{"ha":642,"x_min":68,"x_max":578,"o":"m 210 695 q 190 644 210 667 q 140 621 169 621 q 89 642 109 621 q 68 694 68 663 q 89 745 68 724 q 140 766 110 766 q 189 745 168 766 q 210 695 210 724 m 532 820 l 177 -102 l 106 -102 l 458 820 l 532 820 m 578 32 q 557 -18 578 2 q 507 -37 537 -37 q 456 -17 478 -37 q 434 32 434 3 q 456 82 434 62 q 508 103 478 103 q 557 82 536 103 q 578 32 578 60 m 187 694 q 173 728 187 713 q 140 743 159 743 q 106 728 121 743 q 91 695 91 714 q 105 660 91 675 q 140 645 120 645 q 173 660 159 645 q 187 694 187 675 m 498 796 l 474 796 l 140 -79 l 161 -79 l 498 796 m 554 32 q 551 50 554 45 q 509 80 545 80 q 473 66 489 80 q 457 33 457 52 q 472 0 457 13 q 507 -14 487 -14 q 554 32 554 -14 z "},"٫":{"ha":386,"x_min":92,"x_max":271,"o":"m 271 61 q 229 -74 271 -12 q 132 -178 203 -111 l 92 -137 q 187 13 187 -50 q 127 37 152 13 q 103 96 103 61 q 127 150 103 127 q 182 172 151 172 q 249 137 224 172 q 271 61 271 106 m 243 61 q 229 117 243 94 q 182 145 212 145 q 146 131 161 145 q 130 96 130 117 q 146 56 130 77 q 213 41 178 41 l 214 8 q 131 -137 214 -61 l 134 -140 q 243 61 243 -37 z "},"٬":{"ha":386,"x_min":92,"x_max":271,"o":"m 271 61 q 229 -74 271 -12 q 132 -178 203 -111 l 92 -137 q 187 13 187 -50 q 127 37 152 13 q 103 96 103 61 q 127 150 103 127 q 182 172 151 172 q 249 137 224 172 q 271 61 271 106 m 243 61 q 229 117 243 94 q 182 145 212 145 q 146 131 161 145 q 130 96 130 117 q 146 56 130 77 q 213 41 178 41 l 214 8 q 131 -137 214 -61 l 134 -140 q 243 61 243 -37 z "},"ٰ":{"ha":0,"x_min":0,"x_max":144,"o":"m 0 0 q 96 153 96 118 q 73 231 96 172 q 50 186 71 216 q 35 250 35 220 q 58 404 35 332 q 144 163 144 254 q 0 0 144 12 m 122 157 q 65 342 122 235 q 59 315 62 329 q 120 153 120 195 q 97 85 120 118 q 53 35 90 76 q 122 157 122 66 z "},"ٱ":{"ha":617,"x_min":7,"x_max":604,"o":"m 604 406 q 562 208 604 309 q 494 66 524 119 q 334 -81 441 -27 q 121 -132 234 -132 q 58 -86 94 -120 q 7 -24 22 -52 q 20 19 7 -14 q 149 93 47 20 q 420 555 420 289 q 397 679 420 596 q 398 642 397 667 q 400 604 400 617 q 370 530 400 538 q 296 595 318 574 q 231 667 255 633 q 216 848 225 726 q 203 1031 203 1025 q 253 1179 203 1074 l 360 1075 q 462 904 397 1040 q 604 406 604 610 m 477 493 q 410 827 477 648 q 265 1138 368 941 q 239 1072 242 1082 q 231 1000 231 1043 q 237 920 231 970 q 246 841 245 854 q 254 679 249 787 l 268 671 q 271 743 271 682 q 258 999 271 830 l 284 1005 q 448 541 448 707 q 249 135 448 305 q 160 68 219 113 q 117 34 125 40 q 68 8 92 17 q 195 34 149 18 q 293 91 242 50 q 437 268 396 174 q 477 493 477 356 m 49 1192 q 151 1290 100 1279 q 234 1375 163 1330 q 338 1419 301 1419 q 395 1381 375 1419 q 423 1312 409 1346 q 397 1280 416 1303 q 298 1200 359 1234 q 201 1168 239 1168 q 180 1170 194 1168 q 159 1173 166 1173 q 119 1146 146 1173 q 71 1118 92 1120 l 47 1176 q 49 1192 47 1179 m 156 1267 q 83 1201 123 1259 q 159 1237 125 1237 q 180 1235 166 1237 q 201 1232 194 1232 q 306 1283 241 1232 q 371 1369 371 1333 q 338 1395 371 1395 q 234 1350 295 1395 q 156 1267 177 1308 m 332 1383 q 355 1379 326 1383 q 206 1267 290 1267 l 167 1267 q 238 1344 182 1305 q 332 1383 295 1383 z "},"‌":{"ha":31,"x_min":-12,"x_max":43,"o":"m 43 -12 l -12 -12 l -12 1116 l 43 1116 l 43 -12 m 19 12 l 19 1092 l 12 1092 l 12 12 l 19 12 z "},"‍":{"ha":31,"x_min":-93,"x_max":126,"o":"m 126 1160 l 53 1087 l 125 1015 l 90 978 l 43 1023 l 43 -12 l -11 -12 l -11 1023 l -56 978 l -93 1015 l -20 1087 l -93 1160 l -56 1196 l 16 1124 l 89 1196 l 126 1160 m 93 1015 l 21 1087 l 93 1160 l 89 1164 l 17 1091 l -56 1164 l -60 1160 l 13 1087 l -60 1015 l -56 1010 l 13 1080 l 13 12 l 20 12 l 20 1080 l 89 1010 l 93 1015 z "},"‎":{"ha":31,"x_min":-12,"x_max":222,"o":"m 222 1088 l 113 978 l 76 1015 l 121 1061 l 43 1061 l 43 -12 l -12 -12 l -12 1116 l 119 1116 l 75 1160 l 113 1197 l 222 1088 m 189 1088 l 113 1164 l 108 1160 l 176 1092 l 12 1092 l 12 12 l 19 12 l 19 1085 l 178 1085 l 108 1015 l 113 1010 l 189 1088 z "},"‏":{"ha":31,"x_min":-191,"x_max":43,"o":"m 43 -12 l -11 -12 l -11 1061 l -90 1061 l -44 1015 l -82 978 l -191 1088 l -81 1197 l -44 1160 l -88 1116 l 43 1116 l 43 -12 m 20 12 l 20 1092 l -144 1092 l -77 1160 l -81 1164 l -158 1088 l -81 1010 l -77 1015 l -146 1085 l 13 1085 l 13 12 l 20 12 z "},"◌":{"ha":665,"x_min":-10,"x_max":647,"o":"m 562 722 q 530 688 564 688 q 497 714 499 688 q 531 750 494 750 q 562 722 560 750 m 467 786 q 435 750 470 750 q 402 778 404 750 q 436 814 400 814 q 467 786 465 814 m 625 628 q 591 590 627 590 q 559 619 562 590 q 593 654 557 654 q 625 628 623 654 m 355 810 q 322 772 357 772 q 292 800 294 772 q 325 836 290 836 q 355 810 353 836 m 645 515 q 612 479 647 479 q 580 507 582 479 q 614 542 577 542 q 645 515 643 542 m 244 786 q 210 750 246 750 q 180 778 182 750 q 211 814 178 814 q 244 786 242 814 m 621 403 q 587 367 623 367 q 555 395 557 367 q 588 431 553 431 q 621 403 618 431 m 147 722 q 113 688 149 688 q 83 713 85 688 q 114 750 81 750 q 147 722 145 750 m 554 307 q 523 271 556 271 q 492 298 493 271 q 524 336 489 336 q 554 307 552 336 m 81 627 q 50 590 84 590 q 19 618 21 590 q 50 654 16 654 q 81 627 79 654 m 456 245 q 426 208 459 208 q 395 237 396 208 q 427 272 392 272 q 456 245 455 272 m 57 515 q 25 479 60 479 q -8 507 -6 479 q 26 542 -10 542 q 57 515 56 542 m 345 222 q 312 184 347 184 q 282 212 284 184 q 315 249 279 249 q 345 222 342 249 m 77 403 q 45 367 80 367 q 14 395 16 367 q 46 431 12 431 q 77 403 76 431 m 235 245 q 201 208 237 208 q 170 236 172 208 q 202 272 167 272 q 235 245 233 272 m 140 307 q 107 271 142 271 q 75 298 77 271 q 107 336 72 336 q 140 307 138 336 z "},"ﺀ":{"ha":627,"x_min":7,"x_max":571,"o":"m 571 774 q 514 690 571 734 q 457 631 457 646 q 507 584 482 608 q 533 522 533 557 q 529 458 533 474 q 347 288 509 374 q 101 206 196 206 l 7 326 q 323 532 173 436 q 260 593 268 582 q 231 674 231 629 q 303 807 231 730 q 431 884 375 884 q 473 878 457 884 q 571 784 524 832 l 571 774 m 450 851 q 391 827 410 838 q 315 762 350 802 q 273 674 273 713 q 305 600 273 641 q 363 538 306 600 l 364 534 q 260 446 364 515 l 111 347 q 254 410 169 362 q 378 499 339 458 q 416 609 416 540 q 376 654 416 616 q 335 709 335 692 q 389 789 335 747 q 450 851 446 834 z "},"ﺁ":{"ha":617,"x_min":2,"x_max":604,"o":"m 429 1329 q 373 1230 415 1272 q 272 1183 327 1183 q 206 1194 250 1183 q 141 1205 163 1205 q 80 1153 123 1205 l 2 1216 q 26 1304 2 1264 q 98 1352 54 1352 q 127 1346 109 1352 q 156 1338 149 1339 q 228 1333 186 1333 q 350 1394 312 1333 l 429 1329 m 604 406 q 562 208 604 309 q 494 66 524 119 q 334 -81 441 -27 q 121 -132 234 -132 q 58 -86 94 -120 q 7 -24 22 -52 q 20 19 7 -14 q 149 93 47 20 q 420 555 420 289 q 397 679 420 596 q 398 642 397 667 q 400 604 400 617 q 370 530 400 538 q 296 595 318 574 q 231 667 255 633 q 216 848 225 726 q 203 1031 203 1025 q 253 1179 203 1074 l 360 1075 q 462 904 397 1040 q 604 406 604 610 m 323 1331 q 229 1305 268 1305 q 150 1311 184 1305 q 123 1319 143 1312 q 96 1325 105 1325 q 30 1255 68 1325 q 102 1286 58 1286 q 162 1276 121 1286 q 224 1265 203 1265 q 323 1331 279 1265 m 477 493 q 410 827 477 647 q 265 1138 368 941 q 239 1072 242 1082 q 231 1000 231 1043 q 237 920 231 970 q 246 841 245 854 q 254 679 249 787 l 268 671 q 271 743 271 682 q 258 999 271 830 l 284 1005 q 448 541 448 707 q 249 135 448 305 q 160 68 219 113 q 117 34 125 40 q 68 8 92 17 q 195 34 149 18 q 293 91 242 50 q 437 268 396 174 q 477 493 477 356 z "},"ﺂ":{"ha":463,"x_min":8,"x_max":566,"o":"m 435 1265 q 379 1166 421 1208 q 278 1119 333 1119 q 212 1130 256 1119 q 147 1141 169 1141 q 86 1088 129 1141 l 8 1152 q 32 1240 8 1200 q 104 1288 60 1288 q 133 1282 115 1288 q 162 1274 155 1275 q 234 1268 193 1268 q 356 1329 318 1268 l 435 1265 m 566 180 q 467 144 530 144 q 347 203 410 144 l 227 317 q 60 775 184 358 q 30 1001 30 878 q 46 1062 30 1035 l 174 964 q 184 935 180 960 q 189 901 187 918 q 251 714 212 834 q 298 547 275 631 q 366 389 328 447 q 464 439 401 387 l 464 412 q 372 361 433 361 q 227 491 290 361 q 157 694 201 546 l 62 1013 l 56 1011 l 56 1005 q 68 857 56 915 q 220 384 99 701 q 260 321 235 343 q 357 273 313 273 q 465 310 418 273 l 566 180 m 329 1267 q 235 1241 274 1241 q 156 1246 191 1241 q 129 1255 149 1248 q 102 1261 111 1261 q 36 1190 74 1261 q 108 1222 64 1222 q 168 1211 127 1222 q 230 1200 209 1200 q 329 1267 285 1200 z "},"ﺃ":{"ha":617,"x_min":7,"x_max":604,"o":"m 437 1358 q 399 1303 437 1334 q 361 1263 361 1273 q 409 1213 382 1246 q 412 1190 412 1194 q 389 1109 412 1140 q 266 1025 358 1070 q 123 981 174 981 l 62 1060 q 271 1197 130 1108 q 229 1238 235 1231 q 211 1293 211 1261 q 259 1380 211 1329 q 343 1432 307 1432 q 372 1428 361 1432 l 437 1366 l 437 1358 m 604 256 q 562 59 604 161 q 494 -83 525 -30 q 334 -231 440 -177 q 121 -281 235 -281 q 57 -235 92 -269 q 7 -174 22 -202 q 20 -130 9 -157 q 149 -56 52 -128 q 345 141 283 45 q 420 406 420 256 q 397 530 420 448 q 398 493 397 518 q 400 455 400 468 q 370 381 400 389 q 296 446 317 426 q 231 518 256 483 q 216 699 227 561 q 203 882 203 870 q 253 1030 203 925 l 360 926 q 462 755 397 890 q 604 256 604 460 m 356 1410 q 279 1366 312 1394 q 238 1292 238 1331 q 298 1202 238 1265 l 299 1198 q 132 1078 248 1150 q 262 1135 206 1096 q 334 1249 334 1185 q 307 1279 334 1255 q 279 1315 279 1303 q 311 1366 279 1341 q 356 1410 349 1395 m 477 344 q 410 678 477 498 q 265 989 368 792 q 231 850 231 907 q 237 771 231 819 q 246 692 245 704 q 254 530 249 637 l 268 522 q 271 577 271 538 q 258 850 271 681 l 284 856 q 448 391 448 558 q 68 -141 448 79 q 195 -116 151 -131 q 293 -58 242 -99 q 437 119 395 24 q 477 344 477 208 z "},"ﺄ":{"ha":463,"x_min":12,"x_max":566,"o":"m 330 1313 q 273 1246 330 1291 l 266 1232 q 309 1170 310 1192 l 309 1145 q 210 1042 307 1096 q 64 991 121 991 l 12 1059 q 190 1176 71 1099 q 154 1211 158 1205 q 138 1257 138 1230 q 180 1331 138 1286 q 251 1375 222 1375 q 296 1356 273 1375 q 330 1319 298 1354 l 330 1313 m 566 180 q 467 144 530 144 q 347 203 410 144 l 227 317 q 184 404 212 332 q 122 557 153 486 q 75 732 98 615 q 52 916 52 849 q 68 977 52 949 l 197 879 q 207 850 203 874 q 212 816 210 833 q 234 751 219 794 q 285 600 262 670 q 319 492 302 546 q 366 389 340 429 q 464 439 401 387 l 464 412 q 372 361 433 361 q 222 494 286 361 q 151 701 194 552 q 85 928 139 743 l 79 926 l 79 920 q 132 618 79 808 q 148 564 137 600 q 178 498 158 543 q 217 387 197 443 q 290 300 244 323 q 357 273 339 273 q 465 310 418 273 l 566 180 m 262 1357 q 198 1319 230 1347 q 161 1257 161 1286 q 213 1180 161 1236 l 214 1177 q 71 1071 165 1130 q 91 1078 77 1072 q 189 1130 165 1112 q 243 1219 243 1168 q 220 1245 243 1225 q 197 1276 197 1266 q 228 1323 197 1297 q 262 1357 260 1348 z "},"ﺅ":{"ha":611,"x_min":-60,"x_max":603,"o":"m 441 1160 q 403 1105 441 1137 q 365 1065 365 1074 q 413 1015 385 1049 q 416 967 416 992 q 393 911 416 941 q 270 827 361 871 q 127 783 178 783 l 66 862 q 275 999 134 910 q 233 1040 237 1035 q 215 1095 215 1063 q 263 1182 215 1131 q 347 1234 311 1234 q 376 1230 366 1234 l 441 1168 l 441 1160 m 603 403 q 548 132 603 235 q 464 21 528 95 q 364 -53 416 -34 q 107 -85 277 -85 q 58 -79 83 -85 q -59 41 14 -40 q -46 60 -60 56 q 136 117 14 75 q 417 433 343 208 l 372 450 q 304 520 338 485 q 252 601 252 579 q 271 741 252 688 q 319 775 283 775 q 476 675 387 775 q 603 403 603 533 m 360 1212 q 283 1168 317 1196 q 242 1094 242 1133 q 302 1004 242 1068 l 303 1000 q 135 876 276 966 q 230 918 173 886 q 313 978 288 951 q 338 1050 338 1005 q 311 1081 338 1057 q 283 1117 283 1105 q 316 1168 283 1142 q 360 1212 354 1198 m 478 503 q 472 572 478 557 q 418 687 437 657 q 320 752 376 752 q 288 719 295 752 q 275 602 275 650 q 298 569 275 585 q 338 554 320 554 q 415 608 382 554 q 454 505 454 537 q 365 275 454 392 q 176 111 284 168 q -17 42 117 81 q 39 41 -2 41 q 176 47 108 41 q 346 139 276 58 l 390 191 q 458 339 433 241 q 478 503 478 421 z "},"ﺆ":{"ha":610,"x_min":-145,"x_max":714,"o":"m 469 858 q 431 803 469 834 q 393 763 393 772 q 441 713 414 747 q 444 664 444 690 q 421 609 444 639 q 298 525 390 569 q 156 480 206 480 l 94 559 q 304 696 163 608 q 261 737 265 732 q 243 792 243 760 q 292 880 243 829 q 376 931 340 931 q 404 927 394 931 l 469 865 l 469 858 m 714 180 q 595 107 696 162 q 543 -106 591 -2 q 401 -271 487 -224 q 231 -305 336 -305 q -33 -260 98 -305 q -88 -204 -41 -258 q -145 -137 -131 -156 l -133 -127 q -77 -135 -115 -128 q -20 -142 -40 -142 q 224 -75 109 -142 q 405 102 336 -10 q 321 180 378 132 q 299 196 310 188 q 284 218 288 203 q 281 254 281 232 q 295 355 281 310 q 356 419 315 419 q 425 396 391 419 q 473 340 458 373 q 612 439 549 375 l 612 411 q 459 304 557 361 q 363 396 422 396 q 315 351 331 396 q 304 278 304 317 q 307 227 304 243 q 368 198 329 198 q 451 218 391 198 q 456 176 456 199 q 395 48 456 136 q -2 -169 260 -142 q 84 -180 63 -180 q 289 -149 210 -180 q 377 -65 325 -134 q 470 224 470 58 q 612 309 552 263 l 714 180 m 389 909 q 312 865 345 894 q 271 791 271 830 q 331 701 271 766 l 332 698 q 163 573 304 664 q 259 616 201 583 q 341 675 316 648 q 366 748 366 703 q 339 779 366 755 q 312 814 312 803 q 345 865 312 840 q 389 909 382 895 z "},"ﺇ":{"ha":617,"x_min":7,"x_max":604,"o":"m 604 406 q 562 208 604 309 q 494 66 524 119 q 334 -81 441 -27 q 121 -132 234 -132 q 58 -86 94 -120 q 7 -24 22 -52 q 20 19 7 -14 q 149 93 47 20 q 420 555 420 289 q 397 679 420 596 q 398 642 397 667 q 400 604 400 617 q 370 530 400 538 q 296 595 318 574 q 231 667 255 633 q 216 848 225 726 q 203 1031 203 1025 q 253 1179 203 1074 l 360 1075 q 462 904 397 1040 q 604 406 604 610 m 438 -224 q 400 -279 438 -248 q 362 -319 362 -311 q 410 -370 382 -336 q 413 -417 413 -393 q 390 -473 413 -442 q 268 -558 359 -513 q 125 -602 176 -602 l 63 -523 q 273 -386 132 -475 q 230 -345 236 -352 q 212 -290 212 -322 q 260 -202 212 -254 q 345 -151 309 -151 q 373 -155 363 -151 l 438 -217 l 438 -224 m 477 493 q 410 827 477 647 q 265 1138 368 941 q 239 1072 242 1082 q 231 1000 231 1043 q 237 920 231 970 q 246 841 245 854 q 254 679 249 787 l 268 671 q 271 743 271 682 q 258 999 271 830 l 284 1005 q 448 541 448 707 q 249 135 448 305 q 160 68 219 113 q 117 34 125 40 q 68 8 92 17 q 195 34 149 18 q 293 91 242 50 q 437 268 396 174 q 477 493 477 356 m 357 -173 q 281 -217 315 -187 q 239 -291 239 -254 q 300 -381 239 -317 l 300 -385 q 132 -509 273 -418 q 235 -462 180 -493 q 321 -393 302 -424 q 335 -334 335 -370 q 308 -303 335 -328 q 281 -268 281 -279 q 313 -217 281 -243 q 357 -173 351 -187 z "},"ﺈ":{"ha":463,"x_min":30,"x_max":566,"o":"m 566 180 q 467 144 530 144 q 347 203 410 144 l 227 317 q 60 775 184 358 q 30 1001 30 878 q 46 1062 30 1035 l 174 964 q 184 935 180 960 q 189 901 187 918 q 251 714 212 834 q 298 547 275 631 q 366 389 328 447 q 464 439 401 387 l 464 412 q 372 361 433 361 q 227 491 290 361 q 157 694 201 546 l 62 1013 l 56 1011 l 56 1005 q 68 857 56 915 q 220 384 99 701 q 260 321 235 343 q 357 273 313 273 q 465 310 418 273 l 566 180 m 414 44 q 376 -11 414 20 q 338 -51 338 -42 q 386 -101 358 -67 q 389 -149 389 -124 q 366 -204 389 -174 q 243 -289 335 -245 q 100 -334 152 -334 l 39 -254 q 248 -117 107 -206 q 205 -77 212 -83 q 188 -22 188 -54 q 236 66 188 15 q 320 117 284 117 q 349 113 338 117 l 414 52 l 414 44 m 333 96 q 256 52 290 80 q 215 -22 215 16 q 275 -113 215 -48 l 276 -116 q 108 -241 249 -150 q 211 -193 156 -224 q 297 -124 277 -155 q 311 -66 311 -101 q 283 -35 311 -59 q 256 1 256 -11 q 289 52 256 26 q 333 96 327 81 z "},"ﺉ":{"ha":764,"x_min":-58,"x_max":667,"o":"m 317 1217 q 279 1162 317 1194 q 241 1122 241 1131 q 289 1072 261 1106 q 292 1024 292 1049 q 269 968 292 998 q 145 884 237 928 q 3 840 54 840 l -58 919 q 151 1056 10 967 q 109 1097 113 1092 q 91 1152 91 1120 q 139 1239 91 1188 q 223 1291 187 1291 q 252 1286 241 1291 l 317 1225 l 317 1217 m 667 104 q 580 -119 667 -25 q 362 -216 491 -216 q 153 -98 264 -216 q 73 -14 113 -56 q -1 76 21 41 q -50 288 -50 155 q -27 421 -50 343 q 140 751 32 628 q 256 877 179 792 q 366 1010 293 922 q 408 1086 376 1022 q 445 1146 435 1142 q 564 1025 524 1091 q 526 890 555 963 q 451 774 491 807 q 359 702 418 752 q 219 490 279 620 q 156 247 156 353 q 170 146 156 208 q 200 49 184 83 q 306 36 239 36 q 458 128 394 36 q 350 207 402 155 q 277 317 292 264 q 267 427 267 351 q 272 507 267 484 q 330 646 285 570 q 435 735 385 735 q 524 706 494 735 l 637 592 q 642 551 642 576 q 627 502 642 531 q 595 465 612 470 l 578 481 l 577 486 q 544 501 565 501 q 434 380 483 501 l 434 374 l 444 368 l 494 359 q 600 273 573 299 q 664 157 655 216 q 667 104 667 134 m 236 1269 q 159 1225 193 1253 q 118 1151 118 1190 q 178 1061 118 1125 l 179 1057 q 11 932 152 1023 q 106 975 49 943 q 189 1035 163 1008 q 214 1107 214 1062 q 186 1138 214 1114 q 159 1174 159 1162 q 192 1225 159 1199 q 236 1269 230 1255 m 542 225 q 512 324 542 304 q 408 349 497 335 q 300 435 300 365 q 340 558 300 497 q 443 626 385 626 q 491 606 467 626 l 498 591 q 509 629 499 602 q 517 669 518 654 l 516 680 q 435 712 481 712 q 341 618 390 712 q 292 479 299 538 q 290 385 290 463 q 349 259 290 290 q 458 237 368 249 q 516 188 516 229 q 464 92 516 142 q 370 27 421 50 q 297 13 339 13 q 205 21 237 13 q 64 139 118 43 q 16 322 16 225 q 175 714 16 511 q 279 833 196 741 q 378 958 346 907 q 415 1035 397 986 q 274 861 336 933 q 107 666 191 764 q 1 429 36 570 q -25 257 -25 323 q 65 23 -25 132 q 283 -90 159 -90 q 450 -14 372 -90 q 537 151 525 60 q 542 225 542 186 z "},"ﺊ":{"ha":499,"x_min":-67,"x_max":646,"o":"m 372 1012 q 334 957 372 988 q 296 917 296 926 q 345 867 317 901 q 347 818 347 844 q 324 763 347 793 q 201 679 293 723 q 59 634 109 634 l -3 713 q 207 850 66 762 q 164 891 168 886 q 146 946 146 914 q 195 1034 146 983 q 279 1085 243 1085 q 307 1081 297 1085 l 372 1019 l 372 1012 m 646 -193 q 569 -450 646 -326 q 356 -589 481 -589 q 183 -559 239 -589 q 51 -440 146 -539 q -8 -377 31 -420 q -52 -268 -34 -347 q -67 -149 -67 -201 q -12 93 -67 -48 q 89 324 39 209 q 112 425 106 365 q 121 529 117 477 q 144 557 124 553 l 202 504 q 254 452 249 460 q 267 380 267 431 q 230 127 267 231 q 152 -62 191 32 q 109 -260 109 -176 q 128 -338 109 -303 q 212 -358 170 -358 q 315 -339 275 -358 q 423 -235 376 -310 q 482 -94 464 -170 l 479 -81 q 469 -75 473 -76 q 368 -38 434 -65 q 286 185 286 10 q 362 332 286 261 q 500 439 431 386 l 500 412 q 392 324 464 380 q 326 254 342 286 q 309 159 309 221 q 360 -1 309 47 q 454 -45 383 -22 q 505 -98 505 -61 q 476 -197 505 -131 q 371 -329 440 -278 q 213 -382 298 -382 q 87 -342 152 -382 q 3 -243 19 -300 q -11 -157 -11 -197 q 6 -20 -11 -102 q 47 109 24 62 q 106 241 70 153 q 142 463 138 348 q 86 260 119 336 q 1 55 15 93 q -43 -159 -43 -71 q -25 -274 -43 -213 l -11 -321 q 89 -433 11 -393 q 239 -467 157 -467 q 315 -452 264 -467 q 467 -299 405 -425 q 522 -83 522 -189 q 503 -7 522 -48 q 431 51 486 33 q 346 94 366 72 q 317 139 317 125 q 395 231 317 168 q 500 310 448 270 l 602 180 l 472 73 q 586 -45 529 14 q 646 -193 646 -119 m 292 1063 q 215 1019 248 1048 q 174 945 174 984 q 234 855 174 920 l 235 852 q 66 727 208 818 q 162 770 104 737 q 244 829 219 802 q 269 902 269 857 q 242 933 269 909 q 215 968 215 957 q 248 1019 215 994 q 292 1063 286 1049 z "},"ﺋ":{"ha":214,"x_min":-137,"x_max":238,"o":"m 238 1185 q 200 1130 238 1161 q 162 1090 162 1099 q 210 1040 182 1074 q 213 991 213 1017 q 190 936 213 965 q 68 851 156 893 q -75 807 -19 809 l -137 886 q 73 1023 -68 935 q 30 1064 34 1059 q 12 1119 12 1087 q 60 1207 12 1156 q 144 1258 109 1258 q 173 1254 163 1258 l 238 1192 l 238 1185 m 196 387 q 100 178 196 264 l -1 308 q 43 393 21 351 q 68 484 68 443 q 38 612 68 553 q -31 723 3 667 q -54 612 -56 656 l -54 602 l -38 627 q 17 563 -9 605 q 46 486 46 517 q 32 441 46 466 q -2 410 16 414 l -2 437 q 11 473 11 457 q -60 555 11 513 q -81 599 -81 555 q -68 685 -81 636 q -30 757 -53 746 q 121 592 81 649 q 196 387 196 488 m 157 1236 q 81 1192 114 1221 q 39 1118 39 1157 q 100 1028 39 1093 l 100 1025 q -68 900 73 991 q 37 947 -21 914 q 123 1019 104 987 q 135 1075 135 1042 q 108 1106 135 1082 q 81 1141 81 1130 q 113 1192 81 1166 q 157 1236 151 1222 z "},"ﺌ":{"ha":275,"x_min":-117,"x_max":379,"o":"m 201 899 q 144 832 201 877 l 137 818 q 180 755 181 778 l 180 731 q 81 627 178 682 q -65 577 -8 577 l -117 645 q 61 762 -58 685 q 25 796 29 791 q 9 842 9 816 q 51 917 9 872 q 122 961 93 961 q 167 941 144 961 q 201 905 169 940 l 201 899 m 277 412 q 119 336 217 336 q 20 354 45 336 q 45 437 46 404 l 45 463 q -3 410 38 435 l -3 437 q 31 505 8 452 q 47 517 37 517 q 174 372 67 517 q 277 439 234 397 l 277 412 m 379 180 q 228 130 318 130 q 151 149 201 130 q 98 180 109 165 l -4 308 q 122 257 37 257 q 277 309 203 257 l 379 180 m 133 943 q 69 905 101 932 q 33 842 33 872 q 84 766 33 821 l 85 762 q -58 656 37 715 q -38 664 -52 658 q 60 715 37 698 q 114 805 114 754 q 91 831 114 810 q 68 862 68 852 q 99 908 68 883 q 133 943 131 934 z "},"ﺍ":{"ha":617,"x_min":7,"x_max":604,"o":"m 604 406 q 562 208 604 309 q 494 66 524 119 q 334 -81 441 -27 q 121 -132 234 -132 q 58 -86 94 -120 q 7 -24 22 -52 q 20 19 7 -14 q 149 93 47 20 q 420 555 420 289 q 397 679 420 596 q 398 642 397 667 q 400 604 400 617 q 370 530 400 538 q 296 595 318 574 q 231 667 255 633 q 216 848 225 726 q 203 1031 203 1025 q 253 1179 203 1074 l 360 1075 q 462 904 397 1040 q 604 406 604 610 m 477 493 q 410 827 477 647 q 265 1138 368 941 q 239 1072 242 1082 q 231 1000 231 1043 q 237 920 231 970 q 246 841 245 854 q 254 679 249 787 l 268 671 q 271 743 271 682 q 258 999 271 830 l 284 1005 q 448 541 448 707 q 249 135 448 305 q 160 68 219 113 q 117 34 125 40 q 68 8 92 17 q 195 34 149 18 q 293 91 242 50 q 437 268 396 174 q 477 493 477 356 z "},"ﺎ":{"ha":463,"x_min":30,"x_max":566,"o":"m 566 180 q 467 144 530 144 q 347 203 410 144 l 227 317 q 60 775 184 358 q 30 1001 30 878 q 46 1062 30 1035 l 174 964 q 184 935 180 960 q 189 901 187 918 q 251 714 212 834 q 298 547 275 631 q 366 389 328 447 q 464 439 401 387 l 464 412 q 372 361 433 361 q 227 491 290 361 q 157 694 201 546 l 62 1013 l 56 1011 l 56 1005 q 68 857 56 915 q 220 384 99 701 q 260 321 235 343 q 357 273 313 273 q 465 310 418 273 l 566 180 z "},"ﺏ":{"ha":1156,"x_min":-4,"x_max":1177,"o":"m 1177 559 q 1169 512 1177 523 q 1135 479 1157 500 q 1078 394 1114 458 q 852 26 924 115 q 494 -175 687 -175 q 284 -108 376 -175 q 123 49 252 -84 q -4 346 -4 179 q 71 559 -4 471 q 268 673 143 644 q 532 689 332 689 q 649 688 559 689 q 766 688 722 687 q 880 563 812 644 q 789 534 880 543 q 674 527 732 530 q 448 503 509 516 q 256 396 319 474 q 200 239 200 326 q 405 65 200 65 q 545 116 472 65 q 627 176 602 156 q 701 244 673 212 q 818 414 726 272 l 996 689 q 1056 736 1002 700 q 1176 614 1131 679 q 1177 615 1176 615 l 1177 599 l 1177 559 m 642 -404 q 625 -462 625 -461 q 590 -511 614 -488 q 435 -392 490 -454 q 479 -273 446 -339 q 564 -316 532 -289 q 601 -353 570 -320 q 634 -389 633 -386 q 642 -404 637 -394 m 1048 657 q 1046 696 1048 688 q 1019 674 1023 681 l 841 399 q 385 38 607 38 q 251 65 311 38 q 189 112 227 76 q 75 347 75 218 q 170 553 75 475 q 387 637 252 620 q 669 663 578 663 q 681 659 676 663 q 520 663 587 663 q 251 640 331 663 q 50 475 112 602 q 18 343 18 408 q 89 131 18 236 q 257 -18 158 29 q 393 -46 315 -46 q 872 363 644 -46 q 949 505 910 434 q 1045 625 1002 597 q 1048 657 1048 661 m 546 -337 q 493 -307 535 -329 l 465 -380 l 495 -431 l 528 -391 l 546 -337 z "},"ﺐ":{"ha":1135,"x_min":-18,"x_max":1240,"o":"m 1240 180 q 1167 146 1211 146 q 1071 188 1111 146 q 1021 283 1034 225 q 812 2 883 76 q 515 -153 665 -153 q 110 102 336 -153 q 59 159 62 156 q 16 221 31 193 q -18 369 -18 286 q 51 579 -18 484 q 235 693 124 682 q 519 714 377 704 q 793 781 687 731 q 910 656 897 694 l 908 649 l 905 644 q 539 522 713 522 q 484 526 521 522 q 428 530 446 530 q 362 523 398 530 q 229 436 292 508 q 164 292 164 362 q 185 182 164 219 q 271 113 208 140 q 378 87 331 87 q 741 305 570 87 q 953 559 939 559 q 966 555 958 558 q 977 534 975 547 q 978 509 979 525 q 976 484 976 488 q 1044 390 976 390 q 1137 439 1086 390 l 1137 412 q 1060 363 1111 363 q 987 387 1017 363 q 956 455 956 413 q 953 490 956 464 q 951 524 950 511 q 895 458 942 519 q 756 279 825 368 q 591 125 670 176 q 377 60 490 60 q 193 124 290 60 q 62 269 95 189 q 35 398 35 332 q 123 573 35 490 q 302 656 210 656 q 357 653 321 656 q 412 650 393 650 q 652 694 549 650 q 715 727 673 706 l 715 730 q 521 682 591 682 q 477 683 506 682 q 433 685 448 685 q 329 673 412 685 q 243 667 321 671 q 180 648 219 666 q 54 535 98 609 q 9 369 9 460 q 50 216 9 281 q 201 55 107 123 q 403 -24 307 -24 q 615 54 512 -24 q 783 232 694 114 q 917 424 850 328 q 945 434 932 434 q 991 331 954 361 q 1100 300 1027 300 q 1138 311 1125 300 l 1240 180 m 642 -337 q 625 -395 625 -394 q 590 -444 614 -420 q 435 -325 490 -387 q 479 -205 446 -272 q 564 -249 532 -222 q 601 -286 570 -253 q 634 -321 633 -319 q 642 -337 637 -327 m 546 -270 q 493 -240 535 -262 l 465 -313 l 495 -364 l 528 -324 l 546 -270 z "},"ﺑ":{"ha":214,"x_min":-81,"x_max":222,"o":"m 196 387 q 100 178 196 264 l -1 308 q 43 393 21 351 q 68 484 68 443 q 38 612 68 553 q -31 723 3 667 q -54 612 -56 656 l -54 602 l -38 627 q 17 563 -9 605 q 46 486 46 517 q 32 441 46 466 q -2 410 16 414 l -2 437 q 11 473 11 457 q -60 555 11 513 q -81 599 -81 555 q -68 685 -81 636 q -30 757 -53 746 q 121 592 81 649 q 196 387 196 488 m 222 -34 q 205 -92 205 -91 q 170 -140 195 -117 q 15 -22 70 -84 q 60 98 26 31 q 214 -18 149 64 q 222 -34 217 -24 m 126 33 q 73 63 115 41 l 45 -9 l 75 -61 l 108 -21 l 126 33 z "},"ﺒ":{"ha":277,"x_min":-4,"x_max":379,"o":"m 277 412 q 119 336 217 336 q 20 354 45 336 q 45 437 46 404 l 45 463 q -3 410 38 435 l -3 437 q 31 505 8 452 q 47 517 37 517 q 174 372 67 517 q 277 439 234 397 l 277 412 m 379 180 q 228 130 318 130 q 151 149 201 130 q 98 180 109 165 l -4 308 q 122 257 37 257 q 277 309 203 257 l 379 180 m 229 -46 q 211 -104 212 -103 q 176 -153 201 -130 q 21 -34 76 -96 q 66 85 33 19 q 149 43 125 63 q 186 5 155 39 q 220 -31 218 -28 l 229 -46 m 132 21 q 79 51 121 29 l 52 -22 l 81 -73 l 114 -33 l 132 21 z "},"ﺓ":{"ha":466,"x_min":43,"x_max":456,"o":"m 301 739 q 291 691 301 713 q 222 627 280 669 q 140 581 165 585 q 87 624 90 622 q 56 680 56 655 q 74 781 56 715 q 227 881 160 830 l 299 816 q 300 777 299 803 q 301 739 301 751 m 456 172 q 408 -6 456 83 q 271 -110 352 -110 q 112 -37 180 -110 q 43 127 43 36 q 79 353 43 240 q 212 505 127 505 q 356 397 221 500 q 390 370 368 389 q 456 172 456 307 m 207 803 l 206 832 q 97 766 172 804 q 80 679 85 724 q 159 731 119 705 q 207 803 208 769 m 327 311 q 295 416 327 361 q 212 478 259 478 q 102 332 144 478 q 71 127 71 222 q 92 42 71 64 q 174 19 113 19 q 293 132 249 19 q 327 311 327 220 m 277 236 q 239 186 277 207 q 174 170 206 170 q 100 223 100 170 q 127 290 100 252 q 182 330 156 330 q 242 295 207 330 q 277 236 277 260 z "},"ﺔ":{"ha":424,"x_min":56,"x_max":528,"o":"m 307 635 q 297 587 307 610 q 229 523 286 565 q 146 477 171 481 q 94 520 96 518 q 62 576 62 551 q 80 677 62 612 q 233 777 166 726 l 305 712 q 306 673 305 699 q 307 635 307 648 m 528 180 q 475 150 515 164 q 414 137 437 137 q 385 142 404 137 q 356 146 366 146 q 281 113 313 146 q 235 40 262 93 q 191 -31 208 -13 q 79 74 123 13 q 56 181 56 106 q 117 312 56 231 q 226 397 180 397 q 275 385 243 397 q 323 372 307 372 q 425 439 352 372 l 425 410 q 315 349 374 349 q 270 361 299 349 q 226 373 241 373 q 135 296 190 373 q 79 181 79 219 q 92 111 79 144 q 150 214 104 163 q 250 272 201 272 q 280 267 260 272 q 311 262 300 262 q 426 309 372 262 l 528 180 m 213 699 l 212 728 q 103 662 178 701 q 86 575 91 620 q 165 627 125 601 q 213 699 214 665 z "},"ﺕ":{"ha":1156,"x_min":-4,"x_max":1177,"o":"m 709 910 q 699 863 709 885 q 631 799 688 840 q 548 753 573 757 q 496 795 498 793 q 464 852 464 827 q 482 952 464 887 q 635 1053 568 1002 l 707 987 q 708 949 707 975 q 709 910 709 923 m 1177 559 q 1169 512 1177 523 q 1135 479 1157 500 q 1078 394 1114 458 q 852 26 924 115 q 494 -175 687 -175 q 284 -108 376 -175 q 123 49 252 -84 q -4 346 -4 179 q 71 559 -4 471 q 268 673 143 644 q 532 689 332 689 q 649 688 559 689 q 766 688 722 687 q 880 563 812 644 q 789 534 880 543 q 674 527 732 530 q 448 503 509 516 q 256 396 319 474 q 200 239 200 326 q 405 65 200 65 q 545 116 472 65 q 627 176 602 156 q 701 244 673 212 q 818 414 726 272 l 996 689 q 1056 736 1002 700 q 1176 614 1131 679 q 1177 615 1176 615 l 1177 599 l 1177 559 m 615 975 l 614 1004 q 505 937 581 976 q 488 850 493 895 q 567 903 528 876 q 615 975 616 941 m 1048 657 q 1046 696 1048 688 q 1019 674 1023 681 l 841 399 q 385 38 607 38 q 251 65 311 38 q 189 112 227 76 q 75 347 75 218 q 170 553 75 475 q 387 637 252 620 q 669 663 578 663 q 681 659 676 663 q 520 663 587 663 q 251 640 331 663 q 50 475 112 602 q 18 343 18 408 q 89 131 18 236 q 257 -18 158 29 q 393 -46 315 -46 q 872 363 644 -46 q 949 505 910 434 q 1045 625 1002 597 q 1048 657 1048 661 z "},"ﺖ":{"ha":1135,"x_min":-18,"x_max":1240,"o":"m 666 954 q 655 906 666 928 q 587 842 645 884 q 505 796 530 800 q 452 839 455 837 q 420 895 420 870 q 439 996 420 930 q 592 1096 525 1045 l 664 1031 q 665 992 664 1018 q 666 954 666 966 m 1240 180 q 1167 146 1211 146 q 1071 188 1111 146 q 1021 283 1034 225 q 812 2 883 76 q 515 -153 665 -153 q 110 102 336 -153 q 59 159 62 156 q 16 221 31 193 q -18 369 -18 286 q 51 579 -18 484 q 235 693 124 682 q 519 714 377 704 q 793 781 687 731 q 910 656 897 694 l 908 649 l 905 644 q 539 522 713 522 q 484 526 521 522 q 428 530 446 530 q 362 523 398 530 q 229 436 292 508 q 164 292 164 362 q 185 182 164 219 q 271 113 208 140 q 378 87 331 87 q 741 305 570 87 q 953 559 939 559 q 966 555 958 558 q 977 534 975 547 q 978 509 979 525 q 976 484 976 488 q 1044 390 976 390 q 1137 439 1086 390 l 1137 412 q 1060 363 1111 363 q 987 387 1017 363 q 956 455 956 413 q 953 490 956 464 q 951 524 950 511 q 895 458 942 519 q 756 279 825 368 q 591 125 670 176 q 377 60 490 60 q 193 124 290 60 q 62 269 95 189 q 35 398 35 332 q 123 573 35 490 q 302 656 210 656 q 357 653 321 656 q 412 650 393 650 q 652 694 549 650 q 715 727 673 706 l 715 730 q 521 682 591 682 q 477 683 506 682 q 433 685 448 685 q 329 673 412 685 q 243 667 321 671 q 180 648 219 666 q 54 535 98 609 q 9 369 9 460 q 50 216 9 281 q 201 55 107 123 q 403 -24 307 -24 q 615 54 512 -24 q 783 232 694 114 q 917 424 850 328 q 945 434 932 434 q 991 331 954 361 q 1100 300 1027 300 q 1138 311 1125 300 l 1240 180 m 572 1018 l 571 1047 q 462 981 537 1019 q 445 894 450 939 q 524 946 484 920 q 572 1018 572 984 z "},"ﺗ":{"ha":214,"x_min":-127,"x_max":196,"o":"m 119 964 q 108 916 119 939 q 41 852 97 893 q -43 807 -16 812 q -94 849 -68 828 q -127 904 -127 880 q -109 1006 -127 926 q 45 1107 -29 1053 l 117 1042 q 118 1003 117 1029 q 119 964 119 977 m 196 387 q 100 178 196 264 l -1 308 q 43 393 21 351 q 68 484 68 443 q 38 612 68 553 q -31 723 3 667 q -54 612 -56 656 l -54 602 l -38 627 q 17 563 -9 605 q 46 486 46 517 q 32 441 46 466 q -2 410 16 414 l -2 437 q 11 473 11 457 q -60 555 11 513 q -81 599 -81 555 q -68 685 -81 636 q -30 757 -53 746 q 121 592 81 649 q 196 387 196 488 m 24 1029 l 24 1058 q -85 991 -10 1031 q -102 905 -92 973 q -24 957 -63 930 q 24 1029 25 995 z "},"ﺘ":{"ha":275,"x_min":-66,"x_max":379,"o":"m 180 694 q 169 646 180 669 q 101 582 159 624 q 18 536 43 541 q -33 578 -7 557 q -66 633 -66 609 q -47 736 -66 656 q 106 836 39 785 l 178 771 q 179 732 178 758 q 180 694 180 707 m 277 412 q 119 336 217 336 q 20 354 45 336 q 45 437 46 404 l 45 463 q -3 410 38 435 l -3 437 q 31 505 8 452 q 47 517 37 517 q 174 372 67 517 q 277 439 234 397 l 277 412 m 379 180 q 228 130 318 130 q 151 149 201 130 q 98 180 109 165 l -4 308 q 122 257 37 257 q 277 309 203 257 l 379 180 m 85 758 l 85 787 q -24 721 51 760 q -41 634 -31 703 q 37 686 -2 661 q 85 758 86 725 z "},"ﺙ":{"ha":1156,"x_min":-4,"x_max":1177,"o":"m 690 1031 q 675 968 690 1001 q 632 927 658 927 l 621 931 q 608 950 616 937 q 591 956 593 956 q 519 890 552 956 q 481 788 519 887 l 387 858 q 384 895 384 886 q 385 933 384 903 q 444 1068 388 987 q 553 1155 504 1155 q 602 1137 584 1155 q 654 1088 627 1113 q 690 1031 690 1051 m 1177 559 q 1169 512 1177 523 q 1135 479 1157 500 q 1078 394 1114 458 q 852 26 924 115 q 494 -175 687 -175 q 284 -108 376 -175 q 123 49 252 -84 q -4 346 -4 179 q 71 559 -4 471 q 268 673 143 644 q 532 689 332 689 q 649 688 559 689 q 766 688 722 687 q 880 563 812 644 q 789 534 880 543 q 674 527 732 530 q 448 503 509 516 q 256 396 319 474 q 200 239 200 326 q 405 65 200 65 q 545 116 472 65 q 627 176 602 156 q 701 244 673 212 q 818 414 726 272 l 996 689 q 1056 736 1002 700 q 1176 614 1131 679 q 1177 615 1176 615 l 1177 599 l 1177 559 m 595 1097 q 582 1119 595 1110 q 553 1127 568 1127 q 466 1050 515 1127 q 412 937 427 989 q 454 1011 446 1001 q 525 1050 484 1050 q 568 1024 557 1050 l 564 1022 q 595 1097 595 1044 m 1048 657 q 1046 696 1048 688 q 1019 674 1023 681 l 841 399 q 385 38 607 38 q 251 65 311 38 q 189 112 227 76 q 75 347 75 218 q 170 553 75 475 q 387 637 252 620 q 669 663 578 663 q 681 659 676 663 q 520 663 587 663 q 251 640 331 663 q 50 475 112 602 q 18 343 18 408 q 89 131 18 236 q 257 -18 158 29 q 393 -46 315 -46 q 872 363 644 -46 q 949 505 910 434 q 1045 625 1002 597 q 1048 657 1048 661 z "},"ﺚ":{"ha":1135,"x_min":-18,"x_max":1240,"o":"m 684 1080 q 669 1017 684 1050 q 626 976 652 976 l 614 980 q 602 999 610 986 q 585 1004 587 1004 q 514 939 546 1004 q 475 837 513 936 l 381 907 q 378 943 378 935 q 379 982 378 952 q 437 1117 382 1036 q 547 1204 498 1204 q 595 1186 578 1204 q 648 1137 621 1162 q 684 1080 684 1100 m 1240 180 q 1167 146 1211 146 q 1071 188 1111 146 q 1021 283 1034 225 q 812 2 883 76 q 515 -153 665 -153 q 110 102 336 -153 q 59 159 62 156 q 16 221 31 193 q -18 369 -18 286 q 51 579 -18 484 q 235 693 124 682 q 519 714 377 704 q 793 781 687 731 q 910 656 897 694 l 908 649 l 905 644 q 539 522 713 522 q 484 526 521 522 q 428 530 446 530 q 362 523 398 530 q 229 436 292 508 q 164 292 164 362 q 185 182 164 219 q 271 113 208 140 q 378 87 331 87 q 741 305 570 87 q 953 559 939 559 q 966 555 958 558 q 977 534 975 547 q 978 509 979 525 q 976 484 976 488 q 1044 390 976 390 q 1137 439 1086 390 l 1137 412 q 1060 363 1111 363 q 987 387 1017 363 q 956 455 956 413 q 953 490 956 464 q 951 524 950 511 q 895 458 942 519 q 756 279 825 368 q 591 125 670 176 q 377 60 490 60 q 193 124 290 60 q 62 269 95 189 q 35 398 35 332 q 123 573 35 490 q 302 656 210 656 q 357 653 321 656 q 412 650 393 650 q 652 694 549 650 q 715 727 673 706 l 715 730 q 521 682 591 682 q 477 683 506 682 q 433 685 448 685 q 329 673 412 685 q 243 667 321 671 q 180 648 219 666 q 54 535 98 609 q 9 369 9 460 q 50 216 9 281 q 201 55 107 123 q 403 -24 307 -24 q 615 54 512 -24 q 783 232 694 114 q 917 424 850 328 q 945 434 932 434 q 991 331 954 361 q 1100 300 1027 300 q 1138 311 1125 300 l 1240 180 m 589 1146 q 575 1167 589 1159 q 547 1176 562 1176 q 460 1099 509 1176 q 406 985 420 1038 q 448 1060 440 1050 q 519 1099 477 1099 q 562 1073 551 1099 l 558 1071 q 589 1146 589 1093 z "},"ﺛ":{"ha":214,"x_min":-143,"x_max":196,"o":"m 163 1039 q 149 975 163 1008 q 105 935 131 935 l 94 939 q 81 958 89 945 q 64 963 66 963 q -7 897 24 963 q -45 795 -7 897 l -140 865 q -143 902 -143 894 q -135 966 -143 945 q 26 1162 -60 1162 q 75 1145 57 1162 q 127 1096 100 1120 q 163 1039 163 1059 m 196 387 q 100 178 196 264 l -1 308 q 43 393 21 351 q 68 484 68 443 q 38 612 68 553 q -31 723 3 667 q -54 612 -56 656 l -54 602 l -38 627 q 17 563 -9 605 q 46 486 46 517 q 32 441 46 466 q -2 410 16 414 l -2 437 q 11 473 11 457 q -60 555 11 513 q -81 599 -81 555 q -68 685 -81 636 q -30 757 -53 746 q 121 592 81 649 q 196 387 196 488 m 68 1105 q 55 1126 68 1118 q 26 1135 41 1135 q -39 1086 2 1135 q -90 1013 -73 1046 q -115 944 -102 987 q -73 1019 -81 1008 q -2 1058 -43 1058 q 41 1031 31 1058 l 37 1029 q 68 1105 68 1052 z "},"ﺜ":{"ha":275,"x_min":-81,"x_max":379,"o":"m 225 813 q 210 749 225 783 q 167 709 193 709 l 155 713 q 143 732 151 719 q 125 737 128 737 q 55 671 87 737 q 16 570 54 669 l -78 640 q -81 676 -81 668 q 15 894 -81 795 q 87 937 57 937 q 136 919 119 937 q 189 870 162 895 q 225 813 225 833 m 277 412 q 119 336 217 336 q 20 354 45 336 q 45 437 46 404 l 45 463 q -3 410 38 435 l -3 437 q 31 505 8 452 q 47 517 37 517 q 174 372 67 517 q 277 439 234 397 l 277 412 m 379 180 q 228 130 318 130 q 151 149 201 130 q 98 180 109 165 l -4 308 q 122 257 37 257 q 277 309 203 257 l 379 180 m 130 879 q 116 900 130 892 q 88 909 102 909 q 22 860 64 909 q -28 787 -12 820 q -54 718 -40 762 q -12 793 -19 783 q 60 832 18 832 q 102 806 92 832 l 99 804 q 130 879 130 826 z "},"ﺝ":{"ha":692,"x_min":12,"x_max":926,"o":"m 926 -183 q 756 -231 924 -231 q 568 -218 621 -231 q 413 -178 460 -193 q 267 -113 326 -151 q 114 33 198 -68 q 12 273 12 155 q 68 484 12 362 q 188 668 121 597 q 291 770 223 705 q 253 871 253 823 q 263 932 253 887 q 275 979 267 950 q 414 1080 286 1023 q 477 1109 446 1095 q 544 1127 515 1124 q 687 983 687 1002 q 669 808 687 851 q 564 661 637 734 q 428 538 496 600 q 277 363 372 488 q 202 155 202 266 q 238 49 202 107 q 407 -20 280 18 q 591 -60 528 -56 q 703 -64 628 -61 q 743 -70 711 -64 q 785 -75 771 -75 q 802 -73 795 -75 l 926 -183 m 580 231 q 562 173 565 179 q 528 124 551 145 q 372 243 427 180 q 417 362 384 296 q 500 320 477 340 q 538 282 506 315 q 572 246 570 249 q 580 231 574 241 m 749 -100 l 747 -92 q 506 -79 560 -92 q 324 -30 368 -46 q 167 71 232 5 q 95 169 115 123 q 75 286 75 214 q 87 344 75 301 q 229 570 114 445 q 429 768 232 574 q 543 922 534 871 q 558 1080 553 983 q 532 1103 548 1097 q 414 1051 511 1102 q 302 979 308 995 q 281 848 281 916 q 286 824 281 851 q 322 764 299 805 q 159 587 210 662 q 57 368 102 504 q 41 262 41 322 q 509 -95 41 -22 q 729 -102 557 -102 q 749 -100 743 -102 m 484 298 q 431 328 473 306 l 403 255 l 433 203 l 465 243 l 484 298 m 554 1022 q 470 888 521 941 q 349 785 448 864 l 329 802 l 330 816 q 291 901 331 838 q 374 960 305 922 q 468 1004 440 998 l 554 1022 m 468 922 l 453 922 q 414 902 435 922 q 393 864 393 882 l 393 850 l 401 852 q 468 922 407 860 z "},"ﺞ":{"ha":504,"x_min":0,"x_max":776,"o":"m 776 -710 q 740 -740 776 -732 q 511 -767 612 -767 q 409 -760 460 -767 q 205 -701 272 -742 q 47 -555 156 -671 q 0 -430 0 -504 q 179 -95 0 -236 l 146 -104 l 136 -83 q 113 -57 113 -83 q 136 87 113 4 q 172 212 146 130 q 260 304 193 272 q 387 365 323 335 q 506 439 459 401 l 506 411 q 406 345 481 382 q 275 281 340 313 q 208 219 229 256 q 164 80 188 181 q 140 -54 140 -25 l 134 -56 q 222 8 164 -29 q 313 69 290 52 l 318 62 l 328 63 l 328 54 q 250 -58 328 18 q 105 -213 140 -167 q 27 -427 27 -319 q 79 -549 27 -496 q 198 -611 126 -597 q 311 -631 256 -623 q 486 -642 374 -642 q 560 -624 496 -642 q 376 -623 542 -623 q 169 -582 265 -623 q 44 -435 44 -530 q 210 -201 44 -353 q 328 -71 297 -121 q 369 98 369 -1 q 368 140 369 112 q 367 180 367 168 q 278 127 309 144 q 184 91 220 96 q 266 192 205 151 q 386 250 301 216 q 506 309 471 285 l 608 180 q 486 123 574 152 l 384 174 l 486 102 q 498 5 498 77 q 420 -235 498 -154 q 269 -379 345 -307 q 175 -552 175 -479 q 372 -595 253 -595 l 545 -595 q 661 -590 632 -595 q 776 -708 734 -663 l 776 -710 m 553 -441 q 535 -498 536 -498 q 500 -547 525 -524 q 345 -429 400 -491 q 390 -309 357 -376 q 475 -353 442 -326 q 512 -390 480 -357 q 545 -425 543 -422 q 553 -441 547 -431 m 456 -374 q 404 -344 446 -366 l 376 -416 l 406 -468 l 438 -428 l 456 -374 z "},"ﺟ":{"ha":479,"x_min":-7,"x_max":517,"o":"m 517 629 q 507 592 517 605 q 330 458 407 550 q 199 276 328 455 q 234 174 202 264 q 263 88 263 92 q 245 68 263 66 q 120 193 201 109 l 98 179 l -3 307 q 60 376 22 333 q 99 290 73 344 q 68 385 82 332 q 172 530 120 457 q 286 658 241 624 q 386 713 317 681 l 387 739 l 385 793 q 262 760 319 760 q 204 764 243 760 q 146 768 165 768 q 20 635 20 768 q 45 453 20 532 q -3 410 20 420 l -3 438 l 16 459 q -7 657 -7 528 q 172 795 -7 795 q 213 791 186 795 q 254 787 241 787 q 397 834 333 787 l 501 729 q 517 629 517 713 m 238 684 q 52 452 191 637 q 26 585 26 538 q 32 612 26 593 q 119 680 50 667 q 238 684 140 684 m 309 -125 q 291 -182 292 -182 q 256 -231 281 -208 q 101 -113 156 -175 q 146 7 113 -60 q 231 -37 198 -9 q 268 -74 236 -41 q 300 -109 299 -106 q 309 -125 303 -115 m 212 -58 q 159 -28 201 -50 l 132 -100 l 161 -152 l 194 -112 l 212 -58 z "},"ﺠ":{"ha":674,"x_min":-3,"x_max":777,"o":"m 675 412 q 605 366 658 382 q 519 352 562 352 q 361 426 409 352 q 311 601 327 478 q 410 637 363 630 l 422 713 q 358 703 380 703 q 254 720 323 703 q 150 737 185 737 q 27 564 27 737 q 30 439 27 459 l -3 410 l -3 437 l -1 441 l -1 533 q 23 688 -1 637 q 150 764 58 764 q 250 747 184 764 q 351 730 317 730 q 444 755 386 730 l 549 647 q 550 634 549 644 q 551 620 551 625 q 531 513 551 553 q 363 437 413 478 q 435 395 382 413 q 520 379 484 379 q 675 439 608 379 l 675 412 m 777 180 q 626 130 728 130 q 475 197 547 130 q 383 296 433 238 q 315 399 315 374 q 170 244 266 348 q 187 149 172 230 q 201 66 201 78 q 197 53 201 62 l 182 41 q 129 201 155 41 q 98 178 122 193 l -3 308 q 39 353 11 324 l 62 264 q 42 357 51 299 q 163 490 132 458 q 305 598 239 564 q 330 441 326 454 q 406 307 351 354 q 526 258 463 258 q 675 311 603 258 l 777 180 m 265 630 q 33 441 167 583 q 29 506 29 477 q 50 611 29 578 q 143 653 75 653 q 265 630 169 653 m 327 -161 q 309 -219 310 -218 q 275 -268 299 -245 q 119 -149 174 -212 q 164 -30 131 -96 q 319 -146 248 -56 q 327 -161 321 -151 m 231 -94 q 178 -64 220 -86 l 150 -137 l 180 -189 l 212 -149 l 231 -94 z "},"ﺡ":{"ha":692,"x_min":12,"x_max":926,"o":"m 926 -183 q 756 -231 924 -231 q 568 -218 621 -231 q 413 -178 460 -193 q 267 -113 326 -151 q 114 33 198 -68 q 12 273 12 155 q 68 484 12 362 q 188 668 121 597 q 291 770 223 705 q 253 871 253 823 q 263 932 253 887 q 275 979 267 950 q 414 1080 286 1023 q 477 1109 446 1095 q 544 1127 515 1124 q 687 983 687 1002 q 669 808 687 851 q 564 661 637 734 q 428 538 496 600 q 277 363 372 488 q 202 155 202 266 q 238 49 202 107 q 407 -20 280 18 q 591 -60 528 -56 q 703 -64 628 -61 q 743 -70 711 -64 q 785 -75 771 -75 q 802 -73 795 -75 l 926 -183 m 749 -100 l 747 -92 q 506 -79 560 -92 q 324 -30 368 -46 q 167 71 232 5 q 95 169 115 123 q 75 286 75 214 q 87 344 75 301 q 229 570 114 445 q 429 768 232 574 q 543 922 534 871 q 558 1080 553 983 q 532 1103 548 1097 q 414 1051 511 1102 q 302 979 308 995 q 281 848 281 916 q 286 824 281 851 q 322 764 299 805 q 159 587 210 662 q 57 368 102 504 q 41 262 41 322 q 509 -95 41 -22 q 729 -102 557 -102 q 749 -100 743 -102 m 554 1022 q 470 888 521 941 q 349 785 448 864 l 329 802 l 330 816 q 291 901 331 838 q 374 960 305 922 q 468 1004 440 998 l 554 1022 m 468 922 l 453 922 q 414 902 435 922 q 393 864 393 882 l 393 850 l 401 852 q 468 922 407 860 z "},"ﺢ":{"ha":504,"x_min":0,"x_max":776,"o":"m 776 -710 q 740 -740 776 -732 q 511 -767 612 -767 q 409 -760 460 -767 q 205 -701 272 -742 q 47 -555 157 -671 q 0 -430 0 -504 q 179 -95 0 -236 l 146 -104 l 136 -83 q 113 -57 113 -83 q 136 87 113 4 q 172 212 146 130 q 260 304 193 272 q 387 365 323 335 q 506 439 459 401 l 506 411 q 406 345 481 382 q 275 281 340 313 q 208 219 229 256 q 164 80 187 181 q 140 -54 140 -25 l 134 -56 q 222 8 164 -29 q 313 69 290 52 l 318 62 l 328 63 l 328 54 q 250 -58 328 18 q 105 -213 140 -167 q 27 -427 27 -319 q 79 -549 27 -496 q 198 -611 126 -597 q 311 -631 256 -623 q 486 -642 374 -642 q 560 -624 496 -642 q 376 -623 542 -623 q 169 -582 265 -623 q 44 -435 44 -530 q 210 -201 44 -353 q 328 -71 297 -121 q 369 98 369 -1 q 368 140 369 112 q 367 180 367 168 q 278 127 309 144 q 184 91 220 96 q 266 192 205 151 q 386 250 301 216 q 506 309 471 285 l 608 180 q 486 123 574 152 l 384 174 l 486 102 q 498 5 498 77 q 420 -235 498 -154 q 269 -379 345 -307 q 175 -552 175 -479 q 372 -595 253 -595 l 545 -595 q 661 -590 632 -595 q 776 -708 734 -663 l 776 -710 z "},"ﺣ":{"ha":479,"x_min":-7,"x_max":517,"o":"m 517 629 q 507 592 517 605 q 330 458 407 550 q 199 276 328 455 q 234 174 202 264 q 263 88 263 92 q 245 68 263 66 q 120 193 201 109 l 98 179 l -3 307 q 60 376 22 333 q 99 290 73 344 q 68 385 82 332 q 172 530 120 457 q 286 658 241 624 q 386 713 317 681 l 387 739 l 385 793 q 262 760 319 760 q 204 764 243 760 q 146 768 165 768 q 20 635 20 768 q 45 453 20 532 q -3 410 20 420 l -3 438 l 16 459 q -7 657 -7 528 q 172 795 -7 795 q 213 791 186 795 q 254 787 241 787 q 397 834 333 787 l 501 729 q 517 629 517 713 m 238 684 q 52 452 191 637 q 26 585 26 538 q 32 612 26 593 q 119 680 50 667 q 238 684 140 684 z "},"ﺤ":{"ha":674,"x_min":-3,"x_max":777,"o":"m 675 412 q 605 366 658 382 q 519 352 562 352 q 361 426 409 352 q 311 601 327 478 q 410 637 363 630 l 422 713 q 358 703 380 703 q 254 720 323 703 q 150 737 185 737 q 27 564 27 737 q 30 439 27 459 l -3 410 l -3 437 l -1 441 l -1 533 q 23 688 -1 637 q 150 764 58 764 q 250 747 184 764 q 351 730 317 730 q 444 755 386 730 l 549 647 q 550 634 549 644 q 551 620 551 625 q 531 513 551 553 q 363 437 413 478 q 435 395 382 413 q 520 379 484 379 q 675 439 608 379 l 675 412 m 777 180 q 626 130 728 130 q 475 197 547 130 q 383 296 433 238 q 315 399 315 374 q 170 244 266 348 q 187 149 172 230 q 201 66 201 78 q 197 53 201 62 l 182 41 q 129 201 155 41 q 98 178 122 193 l -3 308 q 39 353 11 324 l 62 264 q 42 357 51 299 q 163 490 132 458 q 305 598 239 564 q 330 441 326 454 q 406 307 351 354 q 526 258 463 258 q 675 311 603 258 l 777 180 m 265 630 q 33 441 167 583 q 29 506 29 477 q 50 611 29 578 q 143 653 75 653 q 265 630 169 653 z "},"ﺥ":{"ha":692,"x_min":12,"x_max":926,"o":"m 360 1321 q 342 1263 345 1270 q 308 1215 331 1236 q 153 1333 208 1271 q 197 1453 164 1386 q 281 1411 257 1430 q 318 1373 286 1406 q 352 1337 350 1339 q 360 1321 355 1331 m 926 -183 q 756 -231 924 -231 q 568 -218 621 -231 q 413 -178 460 -193 q 267 -113 326 -151 q 114 33 198 -68 q 12 273 12 155 q 68 484 12 362 q 188 668 121 597 q 291 770 223 705 q 253 871 253 823 q 263 932 253 887 q 275 979 267 950 q 414 1080 286 1023 q 477 1109 446 1095 q 544 1127 515 1124 q 687 983 687 1002 q 669 808 687 851 q 564 661 637 734 q 428 538 496 600 q 277 363 372 488 q 202 155 202 266 q 238 49 202 107 q 407 -20 280 18 q 591 -60 528 -56 q 703 -64 628 -61 q 743 -70 711 -64 q 785 -75 771 -75 q 802 -73 795 -75 l 926 -183 m 264 1388 q 211 1418 253 1396 l 183 1345 l 213 1294 l 245 1334 l 264 1388 m 749 -100 l 747 -92 q 506 -79 560 -92 q 324 -30 368 -46 q 167 71 232 5 q 95 169 115 123 q 75 286 75 214 q 87 344 75 301 q 229 570 114 445 q 429 768 232 574 q 543 922 534 871 q 558 1080 553 983 q 532 1103 548 1097 q 414 1051 511 1102 q 302 979 308 995 q 281 848 281 916 q 286 824 281 851 q 322 764 299 805 q 159 587 210 662 q 57 368 102 504 q 41 262 41 322 q 509 -95 41 -22 q 729 -102 557 -102 q 749 -100 743 -102 m 554 1022 q 470 888 521 941 q 349 785 448 864 l 329 802 l 330 816 q 291 901 331 838 q 374 960 305 922 q 468 1004 440 998 l 554 1022 m 468 922 l 453 922 q 414 902 435 922 q 393 864 393 882 l 393 850 l 401 852 q 468 922 407 860 z "},"ﺦ":{"ha":504,"x_min":0,"x_max":776,"o":"m 338 458 q 320 401 323 407 q 286 352 309 373 q 130 471 185 408 q 175 590 142 524 q 330 474 264 557 q 338 458 332 469 m 776 -710 q 740 -740 776 -732 q 511 -767 612 -767 q 409 -760 460 -767 q 205 -701 272 -742 q 47 -555 156 -671 q 0 -430 0 -504 q 179 -95 0 -236 l 146 -104 l 136 -83 q 113 -57 113 -83 q 136 87 113 4 q 172 212 146 130 q 260 304 193 272 q 387 365 323 335 q 506 439 459 401 l 506 411 q 406 345 481 382 q 275 281 340 313 q 208 219 229 256 q 164 80 188 181 q 140 -54 140 -25 l 134 -56 q 222 8 164 -29 q 313 69 290 52 l 318 62 l 328 63 l 328 54 q 250 -58 328 18 q 105 -213 140 -167 q 27 -427 27 -319 q 79 -549 27 -496 q 198 -611 126 -597 q 311 -631 256 -623 q 486 -642 374 -642 q 560 -624 496 -642 q 376 -623 542 -623 q 169 -582 265 -623 q 44 -435 44 -530 q 210 -201 44 -353 q 328 -71 297 -121 q 369 98 369 -1 q 368 140 369 112 q 367 180 367 168 q 278 127 309 144 q 184 91 220 96 q 266 192 205 151 q 386 250 301 216 q 506 309 471 285 l 608 180 q 486 123 574 152 l 384 174 l 486 102 q 498 5 498 77 q 420 -235 498 -154 q 269 -379 345 -307 q 175 -552 175 -479 q 372 -595 253 -595 l 545 -595 q 661 -590 632 -595 q 776 -708 734 -663 l 776 -710 m 241 526 q 189 555 231 534 l 161 483 l 191 431 l 223 471 l 241 526 z "},"ﺧ":{"ha":479,"x_min":-7,"x_max":517,"o":"m 288 994 q 271 937 273 943 q 236 888 259 909 q 81 1006 136 944 q 125 1126 92 1059 q 280 1010 214 1093 q 288 994 283 1004 m 517 629 q 507 592 517 605 q 330 458 407 550 q 199 276 328 455 q 234 174 202 264 q 263 88 263 92 q 245 68 263 66 q 120 193 201 109 l 98 179 l -3 307 q 60 376 22 333 q 99 290 73 344 q 68 385 82 332 q 172 530 120 457 q 286 658 241 624 q 386 713 317 681 l 387 739 l 385 793 q 262 760 319 760 q 204 764 243 760 q 146 768 165 768 q 20 635 20 768 q 45 453 20 532 q -3 410 20 420 l -3 438 l 16 459 q -7 657 -7 528 q 172 795 -7 795 q 213 791 186 795 q 254 787 241 787 q 397 834 333 787 l 501 729 q 517 629 517 713 m 238 684 q 52 452 191 637 q 26 585 26 538 q 32 612 26 593 q 119 680 50 667 q 238 684 140 684 m 192 1061 q 139 1091 181 1069 l 111 1019 l 141 967 l 174 1007 l 192 1061 z "},"ﺨ":{"ha":674,"x_min":-3,"x_max":777,"o":"m 311 969 q 293 911 296 918 q 258 863 281 884 q 103 981 158 919 q 148 1101 115 1034 q 231 1059 208 1078 q 269 1021 237 1054 q 302 985 300 987 l 311 969 m 675 412 q 605 366 658 382 q 519 352 562 352 q 361 426 409 352 q 311 601 327 478 q 410 637 363 630 l 422 713 q 358 703 380 703 q 254 720 323 703 q 150 737 185 737 q 27 564 27 737 q 30 439 27 459 l -3 410 l -3 437 l -1 441 l -1 533 q 23 688 -1 637 q 150 764 58 764 q 250 747 184 764 q 351 730 317 730 q 444 755 386 730 l 549 647 q 550 634 549 644 q 551 620 551 625 q 531 513 551 553 q 363 437 413 478 q 435 395 382 413 q 520 379 484 379 q 675 439 608 379 l 675 412 m 777 180 q 626 130 728 130 q 475 197 547 130 q 383 296 433 238 q 315 399 315 374 q 170 244 266 348 q 187 149 172 230 q 201 66 201 78 q 197 53 201 62 l 182 41 q 129 201 155 41 q 98 178 122 193 l -3 308 q 39 353 11 324 l 62 264 q 42 357 51 299 q 163 490 132 458 q 305 598 239 564 q 330 441 326 454 q 406 307 351 354 q 526 258 463 258 q 675 311 603 258 l 777 180 m 265 630 q 33 441 167 583 q 29 506 29 477 q 50 611 29 578 q 143 653 75 653 q 265 630 169 653 m 214 1036 q 161 1066 203 1044 l 134 994 l 163 942 l 196 982 l 214 1036 z "},"ﺩ":{"ha":766,"x_min":-16,"x_max":781,"o":"m 781 450 q 692 128 781 271 q 441 -89 604 -14 q 286 -127 357 -127 q 86 -116 113 -127 l -16 12 q 356 172 187 72 q 596 456 596 315 q 570 554 596 514 q 540 561 566 561 q 441 549 503 561 q 366 517 366 535 q 425 446 366 511 q 485 330 485 381 q 481 272 485 304 l 426 235 q 216 459 246 401 q 192 570 192 505 q 256 742 192 678 q 429 806 320 806 q 580 763 535 806 q 715 625 689 659 q 781 450 781 540 m 652 552 q 587 720 652 639 q 429 779 540 779 q 276 722 333 779 q 219 570 219 666 q 256 448 219 500 q 347 353 274 422 q 356 433 356 385 q 296 535 356 474 q 237 617 237 596 q 324 673 237 652 q 439 688 387 688 q 569 623 507 688 q 623 456 623 566 q 403 170 623 311 q 49 5 256 77 q 117 3 69 5 q 186 1 163 1 q 477 138 325 1 q 652 552 652 294 z "},"ﺪ":{"ha":682,"x_min":-87,"x_max":787,"o":"m 787 180 q 648 114 709 114 q 533 227 574 114 l 516 235 q 365 -79 448 -35 l 330 -97 q 181 -118 290 -118 q 29 -97 102 -118 q -87 13 19 -94 q -63 41 -87 41 q 71 54 28 41 q 191 121 121 68 q 303 255 277 189 q 381 471 328 328 q 441 539 410 539 q 563 430 480 507 q 571 363 565 408 q 685 438 621 377 l 685 410 q 624 354 664 379 q 547 328 582 328 q 441 505 452 328 l 437 509 q 376 385 411 483 q 328 243 352 313 q 230 118 306 187 q 126 45 173 66 q 5 18 79 24 l 20 16 l 17 15 q 87 11 90 11 q 190 19 154 11 q 316 134 267 37 q 378 307 334 170 q 436 403 407 398 l 445 398 q 456 345 448 380 q 549 243 477 256 l 551 243 q 685 309 599 243 l 787 180 z "},"ﺫ":{"ha":766,"x_min":-16,"x_max":781,"o":"m 521 987 l 515 967 l 427 890 l 350 954 q 279 1031 350 978 l 279 1053 l 367 1123 l 380 1125 q 460 1067 414 1114 q 521 987 504 1023 m 781 450 q 692 128 781 271 q 441 -89 604 -14 q 286 -127 357 -127 q 86 -116 113 -127 l -16 12 q 356 172 187 72 q 596 456 596 315 q 570 554 596 514 q 540 561 566 561 q 441 549 503 561 q 366 517 366 535 q 425 446 366 511 q 485 330 485 381 q 481 272 485 304 l 426 235 q 216 459 246 401 q 192 570 192 505 q 256 742 192 678 q 429 806 320 806 q 580 763 535 806 q 715 625 689 659 q 781 450 781 540 m 437 1036 q 377 1097 428 1071 l 310 1043 q 344 1014 338 1019 q 370 979 363 995 l 437 1036 m 652 552 q 587 720 652 639 q 429 779 540 779 q 276 722 333 779 q 219 570 219 666 q 256 448 219 500 q 347 353 274 422 q 356 433 356 385 q 296 535 356 474 q 237 617 237 596 q 324 673 237 652 q 439 688 387 688 q 569 623 507 688 q 623 456 623 566 q 403 170 623 311 q 49 5 256 77 q 117 3 69 5 q 186 1 163 1 q 477 138 325 1 q 652 552 652 294 z "},"ﺬ":{"ha":682,"x_min":-87,"x_max":787,"o":"m 511 722 l 506 701 l 417 625 l 340 688 q 270 766 340 712 l 270 787 l 357 857 l 370 859 q 450 801 404 848 q 511 722 494 757 m 787 180 q 648 114 709 114 q 533 227 574 114 l 516 235 q 365 -79 448 -35 l 330 -97 q 181 -118 290 -118 q 29 -97 102 -118 q -87 13 19 -94 q -63 41 -87 41 q 71 54 28 41 q 191 121 121 68 q 303 255 277 189 q 381 471 328 328 q 441 539 410 539 q 563 430 480 507 q 571 363 565 408 q 685 438 621 377 l 685 410 q 624 354 664 379 q 547 328 582 328 q 441 505 452 328 l 437 509 q 376 385 411 483 q 328 243 352 313 q 230 118 306 187 q 126 45 173 66 q 5 18 79 24 l 20 16 l 17 15 q 87 11 90 11 q 190 19 154 11 q 316 134 267 37 q 378 307 334 170 q 436 403 407 398 l 445 398 q 456 345 448 380 q 549 243 477 256 l 551 243 q 685 309 599 243 l 787 180 m 427 770 q 368 831 418 805 l 300 777 q 334 748 328 753 q 361 713 353 729 l 427 770 z "},"ﺭ":{"ha":678,"x_min":-68,"x_max":654,"o":"m 654 488 q 654 465 654 481 q 633 446 646 446 q 604 469 627 446 q 593 457 597 465 q 558 261 586 440 q 509 49 533 100 q 345 -84 464 -47 q 243 -98 302 -98 q 32 -75 56 -98 q -68 34 -1 -38 q -52 53 -66 52 q 30 58 -11 56 q 111 72 77 61 q 217 128 161 88 q 301 211 273 168 q 382 436 353 290 q 404 555 393 496 q 435 673 418 627 q 475 707 448 707 q 499 703 495 707 l 614 590 q 654 488 654 551 m 526 585 q 513 642 525 612 q 476 679 498 679 q 412 446 445 679 q 319 194 391 297 q 104 42 237 75 q 44 36 99 41 q 134 31 73 31 q 357 119 290 31 q 425 326 405 182 q 465 566 452 522 q 504 598 475 598 q 526 585 510 598 z "},"ﺮ":{"ha":654,"x_min":-37,"x_max":757,"o":"m 757 180 q 601 35 620 84 q 576 -81 593 16 q 512 -311 545 -256 q 307 -410 453 -410 q 160 -406 191 -410 q 28 -346 87 -394 q -37 -260 -19 -307 l -25 -246 q 56 -254 34 -254 q 387 5 295 -254 q 419 133 397 34 q 460 257 437 212 q 548 357 486 306 q 655 439 602 398 l 655 410 q 566 332 635 384 q 484 244 505 286 q 444 123 462 199 q 412 -2 417 13 q 56 -281 328 -274 q 85 -283 66 -281 q 114 -284 104 -284 q 314 -260 254 -284 q 403 -168 375 -237 q 448 25 422 -121 q 463 105 459 92 q 494 179 474 152 q 655 309 520 215 l 757 180 z "},"ﺯ":{"ha":678,"x_min":-68,"x_max":654,"o":"m 532 886 l 526 865 l 437 789 l 361 852 q 290 930 361 876 l 290 951 l 378 1021 l 391 1023 q 471 965 425 1012 q 532 886 515 921 m 654 488 q 654 465 654 481 q 633 446 646 446 q 604 469 627 446 q 593 457 597 465 q 558 261 586 440 q 509 49 533 100 q 345 -84 464 -47 q 243 -98 302 -98 q 32 -75 56 -98 q -68 34 -1 -38 q -52 53 -66 52 q 30 58 -11 56 q 111 72 77 61 q 217 128 161 88 q 301 211 273 168 q 382 436 353 290 q 404 555 393 496 q 435 673 418 627 q 475 707 448 707 q 499 703 495 707 l 614 590 q 654 488 654 551 m 448 935 q 388 995 439 969 l 321 941 q 355 912 349 918 q 381 877 374 893 l 448 935 m 526 585 q 513 642 525 612 q 476 679 498 679 q 412 446 445 679 q 319 194 391 297 q 104 42 237 75 q 44 36 99 41 q 134 31 73 31 q 357 119 290 31 q 425 326 405 182 q 465 566 452 522 q 504 598 475 598 q 526 585 510 598 z "},"ﺰ":{"ha":654,"x_min":-37,"x_max":757,"o":"m 534 500 l 529 480 l 440 404 l 363 467 q 293 545 363 491 l 293 566 l 380 636 l 393 638 q 473 580 427 627 q 534 500 517 536 m 757 180 q 601 35 620 84 q 576 -81 593 16 q 512 -311 545 -256 q 307 -410 453 -410 q 160 -406 191 -410 q 28 -346 87 -394 q -37 -260 -19 -307 l -25 -246 q 56 -254 34 -254 q 387 5 295 -254 q 419 133 397 34 q 460 257 437 212 q 548 357 486 306 q 655 439 602 398 l 655 410 q 566 332 635 384 q 484 244 505 286 q 444 123 462 199 q 412 -2 417 13 q 56 -281 328 -274 q 85 -283 66 -281 q 114 -284 104 -284 q 314 -260 254 -284 q 403 -168 375 -237 q 448 25 422 -121 q 463 105 459 92 q 494 179 474 152 q 655 309 520 215 l 757 180 m 450 549 q 391 610 441 584 l 323 556 q 357 527 351 532 q 384 492 376 508 l 450 549 z "},"ﺱ":{"ha":926,"x_min":14,"x_max":909,"o":"m 909 951 l 903 934 q 777 852 876 909 q 726 883 761 865 q 706 844 713 865 l 706 808 q 359 597 443 668 q 188 248 188 450 q 216 138 188 181 q 311 87 248 87 q 396 111 358 87 q 482 197 440 139 q 528 307 528 260 q 455 456 528 399 q 394 498 434 470 q 393 523 393 514 q 415 620 393 571 q 524 543 463 603 q 546 539 538 539 q 622 566 589 539 q 659 635 659 594 q 651 701 659 633 q 673 731 656 720 q 727 671 681 726 q 737 707 737 695 q 729 769 737 728 q 720 832 720 811 q 741 861 720 855 l 855 751 q 900 548 900 637 q 798 385 900 414 q 675 309 776 317 q 688 195 688 280 q 625 -28 688 71 q 437 -144 553 -144 q 273 -79 334 -144 l 153 47 q 14 395 14 193 q 39 511 14 444 q 179 717 81 627 q 338 840 275 806 q 567 947 380 862 q 789 1066 709 1010 q 909 951 837 1029 m 775 659 q 747 808 775 683 l 747 802 q 753 754 746 785 q 760 707 760 722 q 743 649 760 679 q 700 614 725 614 q 684 620 695 614 q 683 646 680 632 l 680 646 l 680 614 q 633 545 680 576 q 549 515 589 515 l 514 522 q 429 587 471 563 q 418 509 426 574 q 512 427 476 479 q 549 309 549 372 q 471 145 549 226 q 311 64 393 64 q 213 95 258 64 q 138 168 184 115 q 65 364 65 252 q 142 607 65 477 q 646 957 224 747 q 457 873 595 939 q 162 675 258 779 q 38 349 38 540 q 63 236 38 315 q 165 63 95 135 q 342 -19 246 -19 q 508 94 443 -19 q 563 300 563 191 q 547 447 563 385 q 581 435 568 435 q 677 509 650 435 q 755 562 729 509 q 775 659 775 602 z "},"ﺲ":{"ha":843,"x_min":5,"x_max":946,"o":"m 946 180 q 871 121 915 149 q 790 84 848 108 q 711 59 726 57 q 651 24 692 45 q 654 -26 654 4 q 585 -311 654 -167 q 379 -485 503 -485 q 229 -420 293 -485 l 117 -307 q 35 -165 67 -256 q 5 -5 5 -80 q 265 426 5 275 q 407 507 336 467 q 528 619 473 550 l 538 622 q 655 503 553 619 q 634 450 656 493 q 498 326 608 398 l 430 368 l 401 266 q 235 119 283 181 q 165 -89 165 30 q 195 -193 165 -144 q 279 -212 237 -212 q 425 -123 361 -212 q 481 45 481 -41 q 404 202 481 131 q 431 338 416 277 q 448 345 437 345 q 508 296 460 345 l 522 296 q 623 422 603 296 q 645 449 627 446 q 693 393 656 443 q 702 483 699 406 q 716 492 709 492 q 798 401 729 492 q 844 439 825 420 l 844 412 q 718 325 798 369 q 724 385 724 363 q 723 417 724 393 q 723 449 722 437 q 701 359 710 374 q 631 305 691 343 q 645 410 645 345 q 602 309 625 335 q 501 272 570 272 l 450 319 l 429 211 q 488 130 473 161 q 505 31 505 92 q 435 -146 505 -62 q 271 -235 362 -235 q 102 -149 169 -235 q 40 36 40 -68 q 180 306 40 181 q 440 485 227 348 q 505 554 481 511 q 459 511 479 524 q 309 420 436 494 q 166 320 216 366 q 28 15 28 193 q 87 -227 28 -116 q 277 -360 158 -360 q 416 -270 349 -360 q 529 86 529 -119 q 520 148 529 120 q 602 189 561 148 q 617 184 614 184 q 677 208 649 184 q 844 309 730 210 l 946 180 z "},"ﺳ":{"ha":437,"x_min":-4,"x_max":410,"o":"m 410 579 q 381 456 410 522 q 298 373 347 377 q 189 280 252 280 q 151 222 180 256 q 98 179 119 184 l -4 308 q 62 408 62 365 q 181 504 130 406 l 187 503 q 259 572 233 500 q 278 682 278 625 q 271 767 278 724 l 270 769 q 262 673 269 697 q 203 602 249 622 q 186 611 191 606 l 178 645 q 179 629 179 637 q 176 595 179 613 q 149 543 174 573 q 102 511 122 511 l 90 514 q 78 557 83 520 q 81 537 81 547 q -3 410 81 488 l -3 437 q 58 576 58 521 q 69 613 58 608 l 85 610 l 127 557 q 152 624 152 588 q 149 660 152 636 q 145 696 145 684 l 148 708 l 155 716 l 167 721 l 181 714 l 229 661 q 243 730 243 682 q 241 769 243 743 q 239 808 239 795 l 243 829 l 256 837 q 329 772 273 826 q 397 688 385 718 q 410 579 410 659 z "},"ﺴ":{"ha":427,"x_min":-3,"x_max":530,"o":"m 428 412 q 299 349 374 349 q 165 439 189 349 q 219 605 219 496 q 213 657 219 644 q 214 635 214 646 q 193 570 214 605 q 140 534 168 532 l 132 535 q 125 587 132 564 q 125 560 125 581 q 98 486 125 526 q 37 444 70 444 q 33 488 32 465 q -3 410 26 422 l -3 437 q 7 487 -3 452 q 28 526 18 526 q 54 471 53 526 q 94 528 84 494 q 105 597 96 533 q 125 623 109 623 q 154 563 144 623 q 184 599 166 574 q 191 656 187 627 q 214 699 197 699 q 334 582 245 682 q 344 496 344 531 q 321 378 344 422 q 428 439 378 384 l 428 412 m 530 180 q 418 146 492 146 q 262 252 319 146 q 252 279 254 267 l 247 285 l 237 288 q 197 235 224 258 q 137 213 167 210 q 98 179 123 194 l -3 308 l 28 341 q 40 340 34 340 q 131 431 96 340 l 163 437 q 315 271 199 271 q 428 309 383 271 l 530 180 z "},"ﺵ":{"ha":926,"x_min":14,"x_max":909,"o":"m 711 1216 q 696 1152 711 1185 q 653 1112 679 1112 l 642 1116 q 629 1135 637 1122 q 612 1140 614 1140 q 541 1074 573 1140 q 503 972 540 1072 l 408 1042 q 405 1079 405 1071 q 406 1118 405 1088 q 465 1253 409 1171 q 574 1339 525 1339 q 623 1322 605 1339 q 675 1273 648 1297 q 711 1216 711 1236 m 909 951 l 903 934 q 777 852 876 909 q 726 883 761 865 q 706 844 713 865 l 706 808 q 359 597 443 668 q 188 248 188 450 q 216 138 188 181 q 311 87 248 87 q 396 111 358 87 q 482 197 440 139 q 528 307 528 260 q 455 456 528 399 q 394 498 434 470 q 393 523 393 514 q 415 620 393 571 q 524 543 463 603 q 546 539 538 539 q 622 566 589 539 q 659 635 659 594 q 651 701 659 633 q 673 731 656 720 q 727 671 681 726 q 737 707 737 695 q 729 769 737 728 q 720 832 720 811 q 741 861 720 855 l 855 751 q 900 548 900 637 q 798 385 900 414 q 675 309 776 317 q 688 195 688 280 q 625 -28 688 71 q 437 -144 553 -144 q 273 -79 334 -144 l 153 47 q 14 395 14 193 q 39 511 14 444 q 179 717 81 627 q 338 840 275 806 q 567 947 380 862 q 789 1066 709 1010 q 909 951 837 1029 m 616 1282 q 603 1303 616 1295 q 574 1312 589 1312 q 487 1235 536 1312 q 433 1121 448 1173 q 475 1196 467 1185 q 546 1235 505 1235 q 589 1208 578 1235 l 585 1206 q 616 1282 616 1229 m 775 659 q 747 808 775 683 l 747 802 q 753 754 746 785 q 760 707 760 722 q 743 649 760 679 q 700 614 725 614 q 684 620 695 614 q 683 646 680 632 l 680 646 l 680 614 q 633 545 680 576 q 549 515 589 515 l 514 522 q 429 587 471 563 q 418 509 426 574 q 512 427 476 479 q 549 309 549 372 q 471 145 549 226 q 311 64 393 64 q 213 95 258 64 q 138 168 184 115 q 65 364 65 252 q 142 607 65 477 q 646 957 224 747 q 457 873 595 939 q 162 675 258 779 q 38 349 38 540 q 63 236 38 315 q 165 63 95 135 q 342 -19 246 -19 q 508 94 443 -19 q 563 300 563 191 q 547 447 563 385 q 581 435 568 435 q 677 509 650 435 q 755 562 729 509 q 775 659 775 602 z "},"ﺶ":{"ha":843,"x_min":5,"x_max":946,"o":"m 745 918 q 730 854 745 887 q 687 813 713 813 l 675 817 q 663 836 671 823 q 646 842 648 842 q 575 776 607 842 q 536 674 574 773 l 442 744 q 439 781 439 772 q 440 819 439 789 q 498 954 443 873 q 608 1041 559 1041 q 656 1023 639 1041 q 709 975 682 999 q 745 918 745 937 m 946 180 q 871 121 915 149 q 790 84 848 108 q 711 59 726 57 q 651 24 692 45 q 654 -26 654 4 q 585 -311 654 -167 q 379 -485 503 -485 q 229 -420 293 -485 l 117 -307 q 35 -165 67 -256 q 5 -5 5 -80 q 265 426 5 275 q 407 507 336 467 q 528 619 473 550 l 538 622 q 655 503 553 619 q 634 450 656 493 q 498 326 608 398 l 430 368 l 401 266 q 235 119 283 181 q 165 -89 165 30 q 195 -193 165 -144 q 279 -212 237 -212 q 425 -123 361 -212 q 481 45 481 -41 q 404 202 481 131 q 431 338 416 277 q 448 345 437 345 q 508 296 460 345 l 522 296 q 623 422 603 296 q 645 449 627 446 q 693 393 656 443 q 702 483 699 406 q 716 492 709 492 q 798 401 729 492 q 844 439 825 420 l 844 412 q 718 325 798 369 q 724 385 724 363 q 723 417 724 393 q 723 449 722 437 q 701 359 710 374 q 631 305 691 343 q 645 410 645 345 q 602 309 625 335 q 501 272 570 272 l 450 319 l 429 211 q 488 130 473 161 q 505 31 505 92 q 435 -146 505 -62 q 271 -235 362 -235 q 102 -149 169 -235 q 40 36 40 -68 q 180 306 40 181 q 440 485 227 348 q 505 554 481 511 q 459 511 479 524 q 309 420 436 494 q 166 320 216 366 q 28 15 28 193 q 87 -227 28 -116 q 277 -360 158 -360 q 416 -270 349 -360 q 529 86 529 -119 q 520 148 529 120 q 602 189 561 148 q 617 184 614 184 q 677 208 649 184 q 844 309 730 210 l 946 180 m 650 983 q 636 1005 650 996 q 608 1013 623 1013 q 521 937 570 1013 q 467 823 481 875 q 509 897 501 887 q 580 937 538 937 q 623 910 612 937 l 619 908 q 650 983 650 930 z "},"ﺷ":{"ha":437,"x_min":-4,"x_max":410,"o":"m 348 1067 q 333 1004 348 1037 q 290 963 315 963 l 278 967 q 266 986 273 973 q 248 991 251 991 q 177 926 210 991 q 139 824 176 923 l 45 894 q 41 930 41 922 q 43 969 41 939 q 101 1104 45 1023 q 210 1191 161 1191 q 259 1173 241 1191 q 311 1124 285 1149 q 348 1067 348 1087 m 410 579 q 381 456 410 522 q 298 373 347 377 q 189 280 252 280 q 151 222 180 256 q 98 179 119 184 l -4 308 q 62 408 62 365 q 181 504 130 406 l 187 503 q 259 572 233 500 q 278 682 278 625 q 271 767 278 724 l 270 769 q 262 673 269 697 q 203 602 249 622 q 186 611 191 606 l 178 645 q 179 629 179 637 q 176 595 179 613 q 149 543 174 573 q 102 511 122 511 l 90 514 q 78 557 83 520 q 81 537 81 547 q -3 410 81 488 l -3 437 q 58 576 58 521 q 69 613 58 608 l 85 610 l 127 557 q 152 624 152 588 q 149 660 152 636 q 145 696 145 684 l 148 708 l 155 716 l 167 721 l 181 714 l 229 661 q 243 730 243 682 q 241 769 243 743 q 239 808 239 795 l 243 829 l 256 837 q 329 772 273 826 q 397 688 385 718 q 410 579 410 659 m 253 1133 q 239 1155 253 1146 q 211 1163 225 1163 q 123 1086 172 1163 q 69 972 84 1025 q 111 1047 104 1037 q 182 1086 141 1086 q 225 1060 215 1086 l 222 1058 q 253 1133 253 1080 z "},"ﺸ":{"ha":427,"x_min":-9,"x_max":530,"o":"m 297 915 q 282 851 297 884 q 239 810 264 810 l 227 814 q 215 833 222 821 q 197 839 200 839 q 127 773 159 839 q 88 671 125 770 l -6 741 q -9 778 -9 770 q -1 842 -9 821 q 159 1038 73 1038 q 208 1021 191 1038 q 260 972 234 996 q 297 915 297 935 m 428 412 q 299 349 374 349 q 165 439 189 349 q 219 605 219 496 q 213 657 219 644 q 214 635 214 646 q 193 570 214 605 q 140 534 168 532 l 132 535 q 125 587 132 564 q 125 560 125 581 q 98 486 125 526 q 37 444 70 444 q 33 488 32 465 q -3 410 26 422 l -3 437 q 7 487 -3 452 q 28 526 18 526 q 54 471 53 526 q 94 528 84 494 q 105 597 96 533 q 125 623 109 623 q 154 563 144 623 q 184 599 166 574 q 191 656 187 627 q 214 699 197 699 q 334 582 245 682 q 344 496 344 531 q 321 378 344 422 q 428 439 378 384 l 428 412 m 530 180 q 418 146 492 146 q 262 252 319 146 q 252 279 254 267 l 247 285 l 237 288 q 197 235 224 258 q 137 213 167 210 q 98 179 123 194 l -3 308 l 28 341 q 40 340 34 340 q 131 431 96 340 l 163 437 q 315 271 199 271 q 428 309 383 271 l 530 180 m 202 981 q 188 1002 202 994 q 160 1010 174 1010 q 73 934 121 1010 q 18 820 33 872 q 60 895 53 884 q 132 934 90 934 q 174 907 164 934 l 171 905 q 202 981 202 928 z "},"ﺹ":{"ha":1001,"x_min":4,"x_max":980,"o":"m 980 680 q 895 450 980 559 q 693 315 810 341 q 692 186 692 310 q 675 167 692 173 q 655 184 665 168 q 649 306 655 203 q 586 303 609 299 l 587 298 q 550 77 587 179 q 410 -90 511 -33 q 333 -109 376 -109 q 208 -61 257 -109 q 58 102 90 54 q 4 319 4 189 q 45 486 4 404 q 251 686 92 580 q 474 876 422 799 l 484 879 q 590 783 520 848 q 551 680 570 731 q 474 588 536 642 l 397 661 l 370 661 l 340 492 q 231 382 259 418 q 176 239 176 311 q 199 146 176 198 q 240 138 220 138 q 388 250 322 138 q 412 359 412 290 q 355 484 412 420 l 355 503 q 374 642 355 530 l 393 647 q 490 553 437 602 l 505 552 q 551 556 508 552 q 621 821 551 725 q 852 966 691 916 q 960 839 939 886 q 980 680 980 792 m 848 873 q 837 935 848 920 l 833 935 q 800 924 829 935 q 651 819 704 886 q 585 686 601 756 q 574 537 576 642 q 504 529 539 529 q 391 606 420 529 q 378 494 385 568 q 435 355 435 428 q 379 193 435 264 q 231 115 318 115 q 104 186 160 115 q 51 326 51 254 q 115 507 51 427 q 261 634 158 560 q 415 756 376 716 q 447 802 439 781 q 340 715 382 745 q 164 597 252 656 q 46 423 81 530 q 27 317 27 364 q 73 121 27 206 q 231 16 130 16 q 465 441 441 16 q 507 427 487 427 q 563 436 523 427 l 570 317 l 574 437 q 678 481 612 437 q 848 873 848 593 m 817 812 q 779 708 817 771 q 576 536 702 576 q 586 618 585 610 q 612 694 595 672 q 698 778 648 741 q 804 824 759 824 l 817 812 z "},"ﺺ":{"ha":975,"x_min":-2,"x_max":1081,"o":"m 810 494 q 773 391 810 454 q 570 218 696 259 q 580 300 578 292 q 606 376 589 355 q 692 460 642 423 q 798 507 753 507 l 810 494 m 1081 180 q 977 121 1044 145 q 860 100 913 99 q 687 -3 772 17 q 686 -132 686 -7 q 669 -151 686 -144 q 649 -134 659 -150 q 643 -12 649 -114 q 580 -14 603 -18 l 581 -19 q 555 -199 581 -109 q 471 -357 525 -307 q 327 -427 397 -427 q 201 -378 252 -427 q 52 -215 84 -265 q -2 1 -2 -128 q 39 169 -2 87 q 245 368 85 262 q 468 559 416 481 l 478 562 q 584 465 514 530 q 545 363 564 414 q 468 271 530 324 l 391 344 l 364 344 l 334 175 q 260 109 330 171 q 198 22 227 80 q 170 -78 170 -35 q 193 -171 170 -119 q 234 -180 222 -180 q 360 -104 309 -180 q 406 42 406 -36 q 349 167 406 103 l 349 185 q 368 325 349 213 l 387 330 q 484 235 431 284 l 498 235 q 545 239 502 235 q 615 503 545 408 q 846 649 685 599 q 901 593 859 638 q 954 524 945 546 q 972 437 961 509 l 977 438 l 977 412 q 878 353 949 400 q 774 304 818 313 q 842 542 842 455 q 831 618 842 605 l 827 618 q 799 608 825 618 q 645 502 700 570 q 579 369 595 439 q 568 220 570 324 q 498 212 533 212 q 385 288 414 212 q 372 176 379 250 q 429 37 429 111 q 373 -125 429 -53 q 224 -203 312 -203 q 98 -131 155 -203 q 45 9 45 -63 q 109 190 45 110 q 255 317 152 243 q 409 439 370 399 q 441 484 433 464 q 334 397 376 428 q 158 279 246 338 q 40 106 75 213 q 21 -1 21 47 q 67 -197 21 -111 q 225 -302 124 -302 q 459 124 435 -302 q 500 109 481 109 q 557 119 517 109 l 564 0 l 568 119 q 749 225 631 119 q 868 258 780 225 q 979 311 957 290 l 1081 180 z "},"ﺻ":{"ha":644,"x_min":-4,"x_max":630,"o":"m 485 650 q 446 584 485 632 q 244 429 393 519 q 235 518 235 508 q 269 591 235 541 q 356 642 283 610 q 456 674 429 674 q 485 650 485 674 m 630 604 q 555 379 630 477 q 357 240 480 281 q 368 167 368 170 q 353 151 368 151 q 338 157 349 151 q 319 229 325 202 q 175 209 220 209 q 138 213 152 209 q 98 179 126 199 l -4 308 q 24 340 12 323 q 82 336 41 336 q 227 358 166 336 l 247 294 l 229 359 q 430 491 354 393 q 505 718 505 589 q 496 758 505 734 l 492 762 q 468 764 485 764 q 375 731 452 764 q 267 669 290 694 q 231 551 238 637 q 228 421 231 545 q 39 362 122 360 l 29 362 q 48 455 48 422 q 45 469 48 463 q -3 410 28 437 l -3 437 q 22 480 1 442 q 47 515 39 513 q 138 408 71 496 q 205 434 157 411 l 205 442 q 247 682 203 631 q 363 750 271 710 q 485 787 447 787 l 498 785 q 613 677 554 736 q 629 640 617 663 q 630 604 630 611 z "},"ﺼ":{"ha":657,"x_min":-3,"x_max":761,"o":"m 485 644 q 439 577 479 631 q 349 486 394 519 q 238 418 323 467 q 235 503 235 499 q 357 637 235 583 q 456 668 427 668 q 485 644 483 668 m 659 412 q 475 353 580 353 q 341 412 417 353 q 427 488 401 456 q 483 596 460 528 q 505 718 505 664 q 496 758 505 734 l 492 762 q 468 764 485 764 q 375 731 451 764 q 282 682 307 702 q 235 592 240 648 q 229 420 232 566 q 38 362 118 360 l 29 362 q 47 437 47 420 q 45 478 47 443 q -3 410 25 425 l -3 437 q 20 482 5 446 q 55 515 33 509 l 149 411 q 205 434 162 410 l 205 442 q 247 682 203 631 q 363 750 271 710 q 485 787 447 787 l 498 785 q 616 667 513 771 q 629 640 620 656 q 630 605 630 611 q 564 391 630 488 q 659 439 610 399 l 659 412 m 761 180 q 612 138 711 138 q 420 268 502 138 q 357 239 383 245 q 368 164 368 168 q 356 149 368 149 q 338 157 351 149 q 319 229 325 202 q 175 209 220 209 q 138 213 152 209 q 98 179 115 188 l -2 309 q 24 340 7 319 q 82 336 41 336 q 226 357 154 336 l 245 308 l 235 360 q 328 401 280 371 q 510 264 395 264 q 659 309 603 264 l 761 180 z "},"ﺽ":{"ha":1001,"x_min":4,"x_max":980,"o":"m 583 1072 q 566 1014 568 1020 q 531 965 554 986 q 376 1084 431 1021 q 420 1203 387 1137 q 504 1161 480 1181 q 541 1123 509 1156 q 575 1087 573 1090 q 583 1072 578 1082 m 980 680 q 895 450 980 559 q 693 315 810 341 q 692 186 692 310 q 675 167 692 173 q 655 184 665 168 q 649 306 655 203 q 586 303 609 299 l 587 298 q 550 77 587 179 q 410 -90 511 -33 q 333 -109 376 -109 q 208 -61 257 -109 q 58 102 90 54 q 4 319 4 189 q 45 486 4 404 q 251 686 92 580 q 474 876 422 799 l 484 879 q 590 783 520 848 q 551 680 570 731 q 474 588 536 642 l 397 661 l 370 661 l 340 492 q 231 382 259 418 q 176 239 176 311 q 199 146 176 198 q 240 138 220 138 q 388 250 322 138 q 412 359 412 290 q 355 484 412 420 l 355 503 q 374 642 355 530 l 393 647 q 490 553 437 602 l 505 552 q 551 556 508 552 q 621 821 551 725 q 852 966 691 916 q 960 839 939 886 q 980 680 980 792 m 487 1139 q 434 1168 476 1147 l 406 1096 l 436 1044 l 469 1084 l 487 1139 m 848 873 q 837 935 848 920 l 833 935 q 800 924 829 935 q 651 819 704 886 q 585 686 601 756 q 574 537 576 642 q 504 529 539 529 q 391 606 420 529 q 378 494 385 568 q 435 355 435 428 q 379 193 435 264 q 231 115 318 115 q 104 186 160 115 q 51 326 51 254 q 115 507 51 427 q 261 634 158 560 q 415 756 376 716 q 447 802 439 781 q 340 715 382 745 q 164 597 252 656 q 46 423 81 530 q 27 317 27 364 q 73 121 27 206 q 231 16 130 16 q 465 441 441 16 q 507 427 487 427 q 563 436 523 427 l 570 317 l 574 437 q 678 481 612 437 q 848 873 848 593 m 817 812 q 779 708 817 771 q 576 536 702 576 q 586 618 585 610 q 612 694 595 672 q 698 778 648 741 q 804 824 759 824 l 817 812 z "},"ﺾ":{"ha":975,"x_min":-2,"x_max":1081,"o":"m 629 765 q 612 707 614 713 q 577 659 600 680 q 422 777 477 715 q 467 897 433 830 q 550 854 526 874 q 587 817 555 850 q 621 781 619 783 l 629 765 m 810 494 q 773 391 810 454 q 570 218 696 259 q 580 300 578 292 q 606 376 589 355 q 692 460 642 423 q 798 507 753 507 l 810 494 m 1081 180 q 977 121 1044 145 q 860 100 913 99 q 687 -3 772 17 q 686 -132 686 -7 q 669 -151 686 -144 q 649 -134 659 -150 q 643 -12 649 -114 q 580 -14 603 -18 l 581 -19 q 555 -199 581 -109 q 471 -357 525 -307 q 327 -427 397 -427 q 201 -378 252 -427 q 52 -215 84 -265 q -2 1 -2 -128 q 39 169 -2 87 q 245 368 85 262 q 468 559 416 481 l 478 562 q 584 465 514 530 q 545 363 564 414 q 468 271 530 324 l 391 344 l 364 344 l 334 175 q 260 109 330 171 q 198 22 227 80 q 170 -78 170 -35 q 193 -171 170 -119 q 234 -180 222 -180 q 360 -104 309 -180 q 406 42 406 -36 q 349 167 406 103 l 349 185 q 368 325 349 213 l 387 330 q 484 235 431 284 l 498 235 q 545 239 502 235 q 615 503 545 408 q 846 649 685 599 q 901 593 859 638 q 954 524 945 546 q 972 437 961 509 l 977 438 l 977 412 q 878 353 949 400 q 774 304 818 313 q 842 542 842 455 q 831 618 842 605 l 827 618 q 799 608 825 618 q 645 502 700 570 q 579 369 595 439 q 568 220 570 324 q 498 212 533 212 q 385 288 414 212 q 372 176 379 250 q 429 37 429 111 q 373 -125 429 -53 q 224 -203 312 -203 q 98 -131 155 -203 q 45 9 45 -63 q 109 190 45 110 q 255 317 152 243 q 409 439 370 399 q 441 484 433 464 q 334 397 376 428 q 158 279 246 338 q 40 106 75 213 q 21 -1 21 47 q 67 -197 21 -111 q 225 -302 124 -302 q 459 124 435 -302 q 500 109 481 109 q 557 119 517 109 l 564 0 l 568 119 q 749 225 631 119 q 868 258 780 225 q 979 311 957 290 l 1081 180 m 533 832 q 480 862 522 840 l 452 789 l 482 738 l 515 778 l 533 832 z "},"ﺿ":{"ha":644,"x_min":-4,"x_max":630,"o":"m 257 830 q 239 772 242 779 q 205 724 228 745 q 50 842 104 780 q 94 962 61 895 q 178 920 154 939 q 215 882 183 915 q 249 846 247 848 q 257 830 252 840 m 485 650 q 446 584 485 632 q 244 429 393 519 q 235 518 235 508 q 269 591 235 541 q 356 642 283 610 q 456 674 429 674 q 485 650 485 674 m 630 604 q 555 379 630 477 q 357 240 480 281 q 368 167 368 170 q 353 151 368 151 q 338 157 349 151 q 319 229 325 202 q 175 209 220 209 q 138 213 152 209 q 98 179 126 199 l -4 308 q 24 340 12 323 q 82 336 41 336 q 227 358 166 336 l 247 294 l 229 359 q 430 491 354 393 q 505 718 505 589 q 496 758 505 734 l 492 762 q 468 764 485 764 q 375 731 452 764 q 267 669 290 694 q 231 551 238 637 q 228 421 231 545 q 39 362 122 360 l 29 362 q 48 455 48 422 q 45 469 48 463 q -3 410 28 437 l -3 437 q 22 480 1 442 q 47 515 39 513 q 138 408 71 496 q 205 434 157 411 l 205 442 q 247 682 203 631 q 363 750 271 710 q 485 787 447 787 l 498 785 q 613 677 554 736 q 629 640 617 663 q 630 604 630 611 m 161 897 q 108 927 150 905 l 80 854 l 110 803 l 142 843 l 161 897 z "},"ﻀ":{"ha":657,"x_min":-3,"x_max":761,"o":"m 281 863 q 264 805 267 811 q 229 756 252 777 q 74 875 129 812 q 119 994 85 928 q 273 878 208 961 q 281 863 276 873 m 485 644 q 439 577 479 631 q 349 486 394 519 q 238 418 323 467 q 235 503 235 499 q 357 637 235 583 q 456 668 427 668 q 485 644 483 668 m 659 412 q 475 353 580 353 q 341 412 417 353 q 427 488 401 456 q 483 596 460 528 q 505 718 505 664 q 496 758 505 734 l 492 762 q 468 764 485 764 q 375 731 451 764 q 282 682 307 702 q 235 592 240 648 q 229 420 232 566 q 38 362 118 360 l 29 362 q 47 437 47 420 q 45 478 47 443 q -3 410 25 425 l -3 437 q 20 482 5 446 q 55 515 33 509 l 149 411 q 205 434 162 410 l 205 442 q 247 682 203 631 q 363 750 271 710 q 485 787 447 787 l 498 785 q 616 667 513 771 q 629 640 620 656 q 630 605 630 611 q 564 391 630 488 q 659 439 610 399 l 659 412 m 761 180 q 612 138 711 138 q 420 268 502 138 q 357 239 383 245 q 368 164 368 168 q 356 149 368 149 q 338 157 351 149 q 319 229 325 202 q 175 209 220 209 q 138 213 152 209 q 98 179 115 188 l -2 309 q 24 340 7 319 q 82 336 41 336 q 226 357 154 336 l 245 308 l 235 360 q 328 401 280 371 q 510 264 395 264 q 659 309 603 264 l 761 180 m 185 930 q 132 960 174 938 l 104 887 l 134 836 l 167 876 l 185 930 z "},"ﻁ":{"ha":900,"x_min":-27,"x_max":892,"o":"m 892 572 q 807 255 892 416 q 593 5 722 94 q 594 -57 593 -16 q 595 -117 595 -98 q 578 -147 595 -147 q 488 -51 555 -147 q 302 -97 443 -80 q 104 -111 193 -111 q 34 -68 85 -111 q -27 -7 -14 -28 q -10 26 -27 9 q 431 218 285 110 q 453 448 431 342 q 457 458 454 452 q 446 677 457 587 q 444 639 444 665 q 445 612 444 630 q 447 585 447 593 q 419 539 447 539 q 308 659 403 539 q 305 711 307 676 q 296 746 304 722 q 288 782 288 768 q 310 1001 288 859 q 366 1182 336 1175 q 489 1067 412 1145 q 569 908 519 1029 q 601 797 587 867 q 625 683 613 740 q 755 770 716 764 q 828 709 811 724 q 888 640 876 665 q 892 572 892 595 m 766 659 q 759 747 766 732 q 635 663 707 720 q 534 560 550 595 q 518 518 533 557 l 496 526 q 506 680 506 596 q 447 993 506 766 q 368 1154 431 1057 q 340 1050 348 1114 q 328 942 336 1014 q 311 801 311 804 q 317 762 311 787 q 323 724 323 736 l 326 724 q 365 989 330 877 q 412 928 392 960 q 480 453 480 817 q 473 419 480 441 q 464 385 465 395 q 454 207 454 296 q 47 17 291 83 q 92 16 69 16 q 458 109 313 16 q 464 8 470 36 l 467 5 q 474 54 474 28 q 467 118 474 88 q 754 567 688 272 q 766 659 766 621 m 728 585 q 622 387 699 486 q 470 219 574 323 q 551 475 470 396 q 700 610 633 553 q 710 612 709 612 q 728 585 727 612 z "},"ﻂ":{"ha":715,"x_min":-8,"x_max":818,"o":"m 818 180 q 646 98 769 142 q 458 41 543 60 q 449 -21 458 16 l 435 -28 q 374 33 426 -26 q 214 19 342 19 q 111 28 156 19 q -2 126 64 64 l -8 140 l -1 163 q 85 185 31 180 q 174 196 157 191 q 315 255 231 210 l 315 279 q 330 450 314 350 q 318 432 320 435 q 301 421 310 422 q 201 518 255 460 l 201 525 q 195 561 202 538 q 186 595 187 585 q 181 897 181 707 q 227 1129 181 990 q 368 971 333 1021 q 460 780 417 902 q 501 614 496 679 q 556 625 522 623 l 667 522 q 692 422 694 498 l 716 439 l 716 410 q 458 257 562 290 q 567 522 567 378 q 548 606 567 584 q 384 503 526 606 q 395 636 395 541 q 339 863 395 708 q 237 1079 285 1013 q 204 894 204 947 q 213 582 204 681 l 220 581 l 220 654 q 232 943 220 882 q 311 806 264 905 q 376 551 376 669 q 359 458 376 517 q 339 241 338 387 q 185 179 273 199 q 21 151 166 174 q 197 144 138 144 q 329 161 255 144 q 332 88 332 136 q 336 162 339 103 q 533 219 422 177 q 716 309 651 264 l 818 180 m 536 461 q 467 332 536 395 q 342 243 428 296 q 385 406 354 366 q 533 486 418 450 q 536 461 536 461 z "},"ﻃ":{"ha":370,"x_min":-199,"x_max":412,"o":"m 412 669 q 401 589 412 658 q 361 460 387 507 q 169 236 313 374 q 179 182 179 191 q 178 169 179 176 q 159 157 168 157 q 134 203 149 163 q 98 178 122 195 l -4 308 q 37 346 9 311 l 54 304 l 57 306 l 45 354 q 123 429 85 386 q 225 551 208 524 q 277 700 261 607 q 288 770 288 763 q 262 793 288 793 q 134 739 214 793 q 27 644 66 691 q 32 711 28 662 q 35 779 35 753 q -9 996 35 885 q -131 1179 -56 1112 q -168 1093 -154 1163 q -176 994 -177 1039 l -176 947 q -131 1090 -180 1080 q -121 1085 -125 1088 q -14 899 -56 1036 q 24 682 20 787 q 29 438 26 601 l -3 410 l -3 437 l 5 446 l 5 479 q -46 911 5 774 q -52 847 -49 880 q -77 800 -59 799 q -196 916 -100 819 q -199 985 -199 943 q -188 1106 -199 1050 q -138 1200 -172 1190 q -96 1178 -117 1196 q 39 1042 1 1093 q 117 870 94 969 q 136 770 136 784 l 138 768 q 260 817 191 817 q 288 812 283 817 q 360 747 323 779 q 412 669 412 696 m 271 680 l 266 659 q 154 540 225 602 q 27 435 91 488 l 27 567 q 130 659 58 610 q 252 711 206 711 q 271 680 271 711 z "},"ﻄ":{"ha":454,"x_min":-206,"x_max":557,"o":"m 456 412 q 382 364 412 376 q 294 351 349 351 q 203 378 248 351 q 142 448 153 407 q 227 555 215 536 q 274 683 259 606 q 288 770 288 755 q 262 793 288 793 q 135 739 213 793 q 27 644 75 695 q 1 931 24 823 q -131 1179 -37 1104 q -183 1004 -184 1140 l -182 947 q -170 1030 -176 989 q -132 1090 -156 1090 q -121 1085 -127 1090 q -26 933 -70 1044 q 21 757 12 837 q 26 550 26 710 l 26 551 l 26 552 l 26 547 l 26 526 l 24 433 l -3 410 l -3 437 l 5 446 q 5 621 5 533 q -9 791 3 739 q -45 918 -21 833 l -59 814 l -65 804 l -79 793 q -141 853 -93 804 q -192 911 -184 897 q -206 985 -206 935 q -174 1162 -206 1097 q -142 1200 -155 1200 q -16 1104 -106 1200 q 92 949 62 1020 q 138 768 111 904 q 259 817 216 817 q 288 812 283 817 q 359 746 323 779 q 412 669 412 693 q 387 529 412 610 q 322 402 359 442 q 299 376 314 393 l 305 376 q 456 439 380 374 l 456 412 m 271 680 q 166 553 271 650 q 36 439 101 496 l 36 566 q 102 643 65 615 q 190 692 127 662 q 252 711 227 711 q 271 680 271 711 m 557 180 q 433 142 511 142 q 309 185 369 142 q 222 288 248 228 l 169 235 q 173 209 168 226 q 178 182 178 191 q 162 159 178 159 q 134 203 150 159 q 98 178 123 194 l -3 308 l 0 308 l 40 349 l 66 280 q 47 355 50 316 q 130 432 92 394 q 205 317 154 363 q 331 267 263 267 q 456 309 402 267 l 557 180 z "},"ﻅ":{"ha":900,"x_min":-27,"x_max":892,"o":"m 796 962 q 779 904 781 910 q 744 855 767 876 q 589 974 644 911 q 633 1093 600 1027 q 788 977 722 1060 q 796 962 791 972 m 892 572 q 807 255 892 416 q 593 5 722 94 q 594 -57 593 -16 q 595 -117 595 -98 q 578 -147 595 -147 q 488 -51 555 -147 q 302 -97 443 -80 q 104 -111 193 -111 q 34 -68 85 -111 q -27 -7 -14 -28 q -10 26 -27 9 q 431 218 285 110 q 453 448 431 342 q 457 458 454 452 q 446 677 457 587 q 444 639 444 665 q 445 612 444 630 q 447 585 447 593 q 419 539 447 539 q 308 659 403 539 q 305 711 307 676 q 296 746 304 722 q 288 782 288 768 q 310 1001 288 859 q 366 1182 336 1175 q 489 1067 412 1145 q 569 908 519 1029 q 601 797 587 867 q 625 683 613 740 q 755 770 716 764 q 828 709 811 724 q 888 640 876 665 q 892 572 892 595 m 700 1029 q 647 1059 689 1037 l 619 986 l 673 956 q 700 1029 683 974 m 766 659 q 759 747 766 732 q 635 663 707 720 q 534 560 550 595 q 518 518 533 557 l 496 526 q 506 680 506 596 q 447 993 506 766 q 368 1154 431 1057 q 340 1050 348 1114 q 328 942 336 1014 q 311 801 311 804 q 317 762 311 787 q 323 724 323 736 l 326 724 q 365 989 330 877 q 412 928 392 960 q 480 453 480 817 q 473 419 480 441 q 464 385 465 395 q 454 207 454 296 q 47 17 291 83 q 92 16 69 16 q 458 109 313 16 q 464 8 470 36 l 467 5 q 474 54 474 28 q 467 118 474 88 q 754 567 688 272 q 766 659 766 621 m 728 585 q 622 387 699 486 q 470 219 574 323 q 551 475 470 396 q 700 610 633 553 q 710 612 709 612 q 728 585 727 612 z "},"ﻆ":{"ha":715,"x_min":-8,"x_max":818,"o":"m 668 852 q 650 794 653 800 q 616 745 639 766 q 460 864 515 802 q 505 983 472 917 q 589 941 565 961 q 626 903 594 937 q 660 867 658 870 l 668 852 m 818 180 q 646 98 769 142 q 458 41 543 60 q 449 -21 458 16 l 435 -28 q 374 33 426 -26 q 214 19 342 19 q 111 28 156 19 q -2 126 64 64 l -8 140 l -1 163 q 85 185 31 180 q 174 196 157 191 q 315 255 231 210 l 315 279 q 330 450 314 350 q 318 432 320 435 q 301 421 310 422 q 201 518 255 460 l 201 525 q 195 561 202 538 q 186 595 187 585 q 181 897 181 707 q 227 1129 181 990 q 368 971 333 1021 q 460 780 417 902 q 501 614 496 679 q 556 625 522 623 l 667 522 q 692 422 694 498 l 716 439 l 716 410 q 458 257 562 290 q 567 522 567 378 q 548 606 567 584 q 384 503 526 606 q 395 636 395 541 q 339 863 395 708 q 237 1079 285 1013 q 204 894 204 947 q 213 582 204 681 l 220 581 l 220 654 q 232 943 220 882 q 311 806 264 905 q 376 551 376 669 q 359 458 376 517 q 339 241 338 387 q 185 179 273 199 q 21 151 166 174 q 197 144 138 144 q 329 161 255 144 q 332 88 332 136 q 336 162 339 103 q 533 219 422 177 q 716 309 651 264 l 818 180 m 536 461 q 467 332 536 395 q 342 243 428 296 q 385 406 354 366 q 533 486 418 450 q 536 461 536 461 m 572 919 q 519 949 561 927 l 491 876 l 545 846 q 572 919 555 864 z "},"ﻇ":{"ha":370,"x_min":-199,"x_max":412,"o":"m 329 1039 q 311 981 314 987 q 277 932 300 954 q 121 1051 176 989 q 166 1171 133 1104 q 250 1128 226 1148 q 287 1090 255 1124 q 321 1055 319 1057 l 329 1039 m 412 669 q 401 589 412 658 q 361 460 387 507 q 169 236 313 374 q 179 182 179 191 q 178 169 179 176 q 159 157 168 157 q 134 203 149 163 q 98 178 122 195 l -4 308 q 37 346 9 311 l 54 304 l 57 306 l 45 354 q 123 429 85 386 q 225 551 208 524 q 277 700 261 607 q 288 770 288 763 q 262 793 288 793 q 134 739 214 793 q 27 644 66 691 q 32 711 28 662 q 35 779 35 753 q -9 996 35 885 q -131 1179 -56 1112 q -168 1093 -154 1163 q -176 994 -177 1039 l -176 947 q -131 1090 -180 1080 q -121 1085 -125 1088 q -14 899 -56 1036 q 24 682 20 787 q 29 438 26 601 l -3 410 l -3 437 l 5 446 l 5 479 q -46 911 5 774 q -52 847 -49 880 q -77 800 -59 799 q -196 916 -100 819 q -199 985 -199 943 q -188 1106 -199 1050 q -138 1200 -172 1190 q -96 1178 -117 1196 q 39 1042 1 1093 q 117 870 94 969 q 136 770 136 784 l 138 768 q 260 817 191 817 q 288 812 283 817 q 360 747 323 779 q 412 669 412 696 m 271 680 l 266 659 q 154 540 225 602 q 27 435 91 488 l 27 567 q 130 659 58 610 q 252 711 206 711 q 271 680 271 711 m 233 1106 q 180 1136 222 1114 l 152 1063 l 182 1012 l 214 1052 l 233 1106 z "},"ﻈ":{"ha":454,"x_min":-206,"x_max":557,"o":"m 324 1042 q 307 984 309 990 q 272 935 295 956 q 117 1054 172 991 q 161 1173 128 1107 q 245 1131 221 1151 q 282 1093 250 1126 q 316 1057 314 1060 q 324 1042 319 1052 m 456 412 q 382 364 412 376 q 294 351 349 351 q 203 378 248 351 q 142 448 153 407 q 227 555 215 536 q 274 683 259 606 q 288 770 288 755 q 262 793 288 793 q 135 739 213 793 q 27 644 75 695 q 1 931 24 823 q -131 1179 -37 1104 q -183 1004 -184 1140 l -182 947 q -170 1030 -176 989 q -132 1090 -156 1090 q -121 1085 -127 1090 q -26 933 -70 1044 q 21 757 12 837 q 26 550 26 710 l 26 551 l 26 552 l 26 547 l 26 526 l 24 433 l -3 410 l -3 437 l 5 446 q 5 621 5 533 q -9 791 3 739 q -45 918 -21 833 l -59 814 l -65 804 l -79 793 q -141 853 -93 804 q -192 911 -184 897 q -206 985 -206 935 q -174 1162 -206 1097 q -142 1200 -155 1200 q -16 1104 -106 1200 q 92 949 62 1020 q 138 768 111 904 q 259 817 216 817 q 288 812 283 817 q 359 746 323 779 q 412 669 412 693 q 387 529 412 610 q 322 402 359 442 q 299 376 314 393 l 305 376 q 456 439 380 374 l 456 412 m 271 680 q 166 553 271 650 q 36 439 101 496 l 36 566 q 102 643 65 615 q 190 692 127 662 q 252 711 227 711 q 271 680 271 711 m 557 180 q 433 142 511 142 q 309 185 369 142 q 222 288 248 228 l 169 235 q 173 209 168 226 q 178 182 178 191 q 162 159 178 159 q 134 203 150 159 q 98 178 123 194 l -3 308 l 0 308 l 40 349 l 66 280 q 47 355 50 316 q 130 432 92 394 q 205 317 154 363 q 331 267 263 267 q 456 309 402 267 l 557 180 m 228 1109 q 175 1139 217 1117 l 147 1066 l 201 1036 q 228 1109 211 1054 z "},"ﻉ":{"ha":783,"x_min":56,"x_max":907,"o":"m 907 361 q 854 244 907 333 q 509 -81 712 5 q 300 -130 393 -130 q 183 -80 231 -130 l 71 37 q 56 132 56 52 q 125 336 56 227 q 261 509 164 398 q 144 591 144 533 q 264 823 144 749 q 370 857 319 857 q 517 741 397 857 q 607 822 558 781 q 729 702 645 787 q 697 589 721 637 l 542 445 l 534 315 q 509 288 533 288 q 492 305 490 288 l 444 372 q 289 180 391 309 q 248 119 275 159 q 686 353 466 119 q 738 422 695 363 q 793 481 772 469 q 907 361 907 379 m 749 386 l 749 390 q 725 363 744 386 q 612 252 680 309 q 220 90 422 90 q 140 104 176 90 q 94 161 94 124 q 121 224 94 178 q 409 554 192 343 l 416 432 l 418 559 l 576 705 q 597 783 586 732 q 419 641 493 679 q 421 747 421 737 q 357 833 421 833 q 274 804 326 833 q 168 591 168 743 q 223 540 168 557 q 304 524 237 535 q 154 334 184 381 q 79 109 79 218 q 223 -5 79 -5 q 335 16 258 -5 q 435 59 418 40 q 612 197 528 104 q 748 376 708 302 q 749 386 749 378 m 412 636 q 319 620 363 620 q 218 639 289 620 l 208 656 l 210 667 q 266 718 225 696 q 340 738 304 738 q 412 636 413 738 z "},"ﻊ":{"ha":621,"x_min":-3,"x_max":741,"o":"m 741 -8 l 737 -24 q 589 -191 652 -142 q 389 -288 519 -245 q 247 -314 308 -314 q 176 -307 198 -314 q 118 -267 147 -298 l 4 -144 q -3 -107 -3 -125 q 128 155 -3 -23 q 332 385 238 302 q 321 413 323 409 q 302 435 315 427 q 267 439 284 437 q 244 460 244 444 q 249 530 244 488 q 267 584 254 572 q 322 604 277 593 q 403 615 367 615 q 477 595 448 615 q 551 523 507 574 q 601 437 601 464 q 597 416 601 427 q 622 439 608 427 l 622 412 q 517 349 565 349 q 402 391 435 349 q 474 538 474 497 q 410 592 474 592 q 290 573 310 592 q 267 461 269 555 l 264 464 q 330 442 309 465 q 361 378 342 429 q 77 33 172 203 q 21 -104 21 -68 q 43 -156 21 -132 q 96 -187 64 -181 q 159 -190 111 -190 q 281 -163 192 -190 q 553 -12 435 -118 q 578 14 571 5 q 595 44 590 28 l 593 52 l 591 54 q 557 33 581 52 q 524 6 526 7 q 359 -67 463 -34 q 183 -101 253 -101 q 93 -44 93 -101 q 214 150 93 -10 q 373 352 294 251 q 503 257 429 257 q 622 309 559 257 l 724 180 q 600 132 662 132 q 471 212 533 132 q 258 -69 434 157 q 397 -27 364 -39 q 527 35 483 3 q 613 94 554 56 l 637 94 q 741 -8 672 59 z "},"ﻋ":{"ha":629,"x_min":-5,"x_max":629,"o":"m 308 683 q 139 663 246 663 q 90 671 116 663 q 56 697 56 680 q 118 747 56 724 q 205 766 170 766 q 308 683 286 766 m 629 753 q 616 636 629 701 q 451 460 558 600 q 477 113 473 331 l 451 119 q 323 401 427 172 q 214 286 269 344 q 99 178 151 220 l -3 307 q 326 571 165 494 q 349 408 330 513 q 333 578 349 466 q 408 670 382 642 q 492 753 450 719 q 503 813 503 794 q 502 836 503 829 q 437 777 473 816 q 378 711 408 744 q 314 686 368 700 q 296 806 304 783 q 204 867 273 867 q 42 766 106 867 q 18 714 18 729 q 22 628 18 641 q 83 578 33 595 q 149 563 127 563 q 205 569 168 563 q 262 574 243 574 q 148 529 239 560 q 68 476 111 516 q -3 410 33 443 l -3 437 q 76 518 24 457 l 46 566 q -5 692 -5 592 q 0 716 -5 703 q 22 778 0 739 q 211 890 85 890 q 288 864 256 890 q 345 806 316 836 l 395 763 q 437 811 397 772 q 487 854 477 850 l 507 862 q 629 753 560 819 z "},"ﻌ":{"ha":322,"x_min":-81,"x_max":425,"o":"m 323 412 q 224 363 271 363 q 116 447 153 363 q 156 544 156 509 q 60 589 156 589 q -46 570 -28 589 q -58 464 -55 546 q -12 467 -25 467 q 30 441 1 467 q 14 420 24 435 q -3 410 2 415 l -3 437 q -25 443 -14 443 q -69 439 -43 443 q -81 474 -81 443 q -50 593 -81 569 q 76 613 -24 613 q 157 590 125 613 q 217 530 166 583 q 258 491 237 510 q 281 444 281 466 q 266 400 281 418 q 323 439 289 408 l 323 412 m 425 180 q 326 148 395 148 q 174 262 237 148 q 98 178 130 199 l -3 308 q 77 410 33 347 q 222 273 136 273 q 323 309 277 273 l 425 180 z "},"ﻍ":{"ha":783,"x_min":56,"x_max":907,"o":"m 428 1059 q 410 1001 413 1007 q 376 952 399 973 q 220 1071 275 1008 q 265 1190 232 1124 q 349 1148 325 1168 q 386 1110 354 1143 q 420 1074 418 1077 l 428 1059 m 907 361 q 854 244 907 333 q 509 -81 712 5 q 300 -130 393 -130 q 183 -80 231 -130 l 71 37 q 56 132 56 52 q 125 336 56 227 q 261 509 164 398 q 144 591 144 533 q 264 823 144 749 q 370 857 319 857 q 517 741 397 857 q 607 822 558 781 q 729 702 645 787 q 697 589 721 637 l 542 445 l 534 315 q 509 288 533 288 q 492 305 490 288 l 444 372 q 289 180 391 309 q 248 119 275 159 q 686 353 466 119 q 738 422 695 363 q 793 481 772 469 q 907 361 907 379 m 332 1126 q 279 1156 321 1134 l 251 1083 l 304 1053 q 332 1126 315 1071 m 749 386 l 749 390 q 725 363 744 386 q 612 252 680 309 q 220 90 422 90 q 140 104 176 90 q 94 161 94 124 q 121 224 94 178 q 409 554 192 343 l 416 432 l 418 559 l 576 705 q 597 783 586 732 q 419 641 493 679 q 421 747 421 737 q 357 833 421 833 q 274 804 326 833 q 168 591 168 743 q 223 540 168 557 q 304 524 237 535 q 154 334 184 381 q 79 109 79 218 q 223 -5 79 -5 q 335 16 258 -5 q 435 59 418 40 q 612 197 528 104 q 748 376 708 302 q 749 386 749 378 m 412 636 q 319 620 363 620 q 218 639 289 620 l 208 656 l 210 667 q 266 718 225 696 q 340 738 304 738 q 412 636 413 738 z "},"ﻎ":{"ha":621,"x_min":-3,"x_max":741,"o":"m 474 810 q 456 753 459 759 q 422 704 445 725 q 267 823 321 760 q 311 942 278 876 q 466 826 400 909 q 474 810 469 821 m 741 -8 l 737 -24 q 589 -191 652 -142 q 389 -288 519 -245 q 247 -314 308 -314 q 176 -307 198 -314 q 118 -267 147 -298 l 4 -144 q -3 -107 -3 -125 q 128 155 -3 -23 q 332 385 238 302 q 321 413 323 409 q 302 435 315 427 q 267 439 284 437 q 244 460 244 444 q 249 530 244 488 q 267 584 254 572 q 322 604 277 593 q 403 615 367 615 q 477 595 448 615 q 551 523 507 574 q 601 437 601 464 q 597 416 601 427 q 622 439 608 427 l 622 412 q 517 349 565 349 q 402 391 435 349 q 474 538 474 497 q 410 592 474 592 q 290 573 310 592 q 267 461 269 555 l 264 464 q 330 442 309 465 q 361 378 342 429 q 77 33 172 203 q 21 -104 21 -68 q 43 -156 21 -132 q 96 -187 64 -181 q 159 -190 111 -190 q 281 -163 192 -190 q 553 -12 435 -118 q 578 14 571 5 q 595 44 590 28 l 593 52 l 591 54 q 557 33 581 52 q 524 6 526 7 q 359 -67 463 -34 q 183 -101 253 -101 q 93 -44 93 -101 q 214 150 93 -10 q 373 352 294 251 q 503 257 429 257 q 622 309 559 257 l 724 180 q 600 132 662 132 q 471 212 533 132 q 258 -69 434 157 q 397 -27 364 -39 q 527 35 483 3 q 613 94 554 56 l 637 94 q 741 -8 672 59 m 378 878 q 325 907 367 886 l 297 835 l 351 804 q 378 878 361 823 z "},"ﻏ":{"ha":643,"x_min":-11,"x_max":629,"o":"m 197 1061 q 179 1003 182 1009 q 144 954 168 975 q -11 1073 44 1010 q 34 1192 1 1126 q 189 1076 123 1159 q 197 1061 191 1071 m 308 683 q 139 663 246 663 q 90 671 116 663 q 56 697 56 680 q 118 747 56 724 q 205 766 170 766 q 308 683 286 766 m 629 753 q 616 636 629 701 q 451 460 558 600 q 477 113 473 331 l 451 119 q 323 401 427 172 q 214 286 269 344 q 99 178 151 220 l -3 307 q 326 571 165 494 q 349 408 330 513 q 333 578 349 466 q 408 670 382 642 q 492 753 450 719 q 503 813 503 794 q 502 836 503 829 q 437 777 473 816 q 378 711 408 744 q 314 686 368 700 q 296 806 304 783 q 204 867 273 867 q 42 766 106 867 q 18 714 18 729 q 22 628 18 641 q 83 578 33 595 q 149 563 127 563 q 205 569 168 563 q 262 574 243 574 q 148 529 239 560 q 68 476 111 516 q -3 410 33 443 l -3 437 q 76 518 24 457 l 46 566 q -5 692 -5 592 q 0 716 -5 703 q 22 778 0 739 q 211 890 85 890 q 288 864 256 890 q 345 806 316 836 l 395 763 q 437 811 397 772 q 487 854 477 850 l 507 862 q 629 753 560 819 m 100 1128 q 47 1158 90 1136 l 20 1085 l 73 1055 q 100 1128 83 1073 z "},"ﻐ":{"ha":322,"x_min":-81,"x_max":425,"o":"m 168 807 q 151 749 153 755 q 116 701 139 722 q -39 819 16 757 q 5 939 -28 872 q 89 897 65 916 q 126 859 94 892 q 160 823 158 825 q 168 807 163 817 m 323 412 q 224 363 271 363 q 116 447 153 363 q 156 544 156 509 q 60 589 156 589 q -46 570 -28 589 q -58 464 -55 546 q -12 467 -25 467 q 30 441 1 467 q 14 420 24 435 q -3 410 2 415 l -3 437 q -25 443 -14 443 q -69 439 -43 443 q -81 474 -81 443 q -50 593 -81 569 q 76 613 -24 613 q 157 590 125 613 q 217 530 166 583 q 258 491 237 510 q 281 444 281 466 q 266 400 281 418 q 323 439 289 408 l 323 412 m 425 180 q 326 148 395 148 q 174 262 237 148 q 98 178 130 199 l -3 308 q 77 410 33 347 q 222 273 136 273 q 323 309 277 273 l 425 180 m 72 874 q 19 904 61 882 l -9 831 l 45 801 q 72 874 55 819 z "},"ﻑ":{"ha":1286,"x_min":12,"x_max":1284,"o":"m 1284 356 q 1270 275 1284 342 q 1246 189 1257 218 q 1101 27 1217 113 q 521 -180 826 -180 q 240 -100 351 -180 q 128 8 231 -94 q 39 118 60 75 q 12 258 12 171 q 52 399 12 330 q 281 570 119 515 q 576 648 429 609 q 825 802 747 699 q 764 842 791 818 q 823 949 772 880 q 935 870 863 930 q 1025 774 1014 805 q 1006 719 1016 747 q 970 673 993 687 l 960 680 q 709 494 842 536 q 401 393 444 410 q 176 210 176 300 q 199 110 176 140 q 475 53 308 53 q 738 111 591 53 q 978 239 866 162 q 1029 276 1011 261 q 1069 323 1063 304 q 1013 372 1029 356 q 968 424 970 412 q 967 448 967 429 q 984 547 967 495 q 1042 616 1006 616 q 1156 547 1076 616 q 1255 450 1213 498 q 1284 356 1284 418 m 1158 467 q 1047 591 1158 540 q 1043 593 1044 593 q 1003 525 1020 593 q 990 435 990 472 l 991 428 q 1023 418 997 418 q 1087 465 1064 418 q 1138 397 1138 433 q 1137 387 1138 391 q 849 135 1088 250 q 467 30 631 30 q 190 85 298 30 q 50 311 50 158 q 278 511 50 416 q 599 618 336 536 q 768 699 701 650 q 857 806 802 724 l 869 803 q 898 876 883 822 q 830 919 888 893 l 792 849 q 848 815 821 830 q 822 766 842 809 q 763 709 808 736 q 519 607 652 643 q 352 567 436 587 q 199 509 257 543 q 75 391 123 465 q 35 253 35 328 q 158 14 35 94 q 429 -54 262 -54 q 819 44 614 -54 q 1122 300 1040 151 q 1146 382 1133 319 q 1158 467 1158 441 z "},"ﻒ":{"ha":1716,"x_min":3,"x_max":1820,"o":"m 1573 331 q 1554 296 1570 313 q 1487 284 1490 284 q 1450 315 1450 284 q 1471 364 1450 337 q 1512 391 1491 391 q 1550 372 1532 391 q 1573 331 1569 352 m 1820 180 q 1731 119 1786 152 q 1638 81 1666 81 q 1426 -81 1577 16 q 715 -295 1094 -295 q 242 -149 460 -295 q 176 -88 235 -144 q 50 49 79 1 q 3 228 3 123 q 7 258 3 235 q 301 564 42 495 q 476 591 406 591 q 586 579 513 591 q 696 568 659 568 q 939 584 736 568 q 1092 635 1013 590 q 1202 747 1180 684 q 1133 796 1183 757 q 1164 855 1149 825 q 1204 908 1183 888 q 1424 718 1326 821 q 1352 590 1404 655 q 1126 427 1257 472 q 847 390 1021 390 q 687 396 793 390 q 528 402 581 402 q 384 379 463 402 q 243 307 288 351 q 189 161 189 254 q 220 42 189 71 q 262 18 227 35 q 688 -60 416 -60 q 876 -31 743 -60 q 1429 218 1213 43 q 1419 270 1419 236 q 1428 381 1419 351 q 1514 498 1462 498 q 1653 383 1551 498 q 1718 439 1676 402 l 1718 412 q 1581 308 1667 357 q 1586 354 1586 338 q 1535 465 1586 433 q 1512 475 1518 475 q 1483 448 1501 475 q 1443 270 1443 386 q 1461 213 1443 235 q 881 -54 1230 23 q 667 -84 745 -84 q 275 -17 428 -84 q 64 283 64 76 q 135 436 64 373 q 292 509 198 491 l 366 522 q 457 530 410 530 q 590 521 501 530 q 722 512 678 512 q 850 525 720 512 q 1057 567 994 539 q 1223 699 1137 601 q 1295 814 1271 753 q 1208 877 1285 821 q 1163 803 1189 851 q 1229 761 1185 786 q 1105 616 1215 681 q 892 555 1019 566 q 706 543 738 543 q 586 556 666 543 q 467 569 507 569 q 305 542 407 569 q 104 426 176 507 q 26 209 26 338 q 230 -75 26 42 q 642 -169 392 -169 q 1312 41 983 -169 q 1425 117 1390 91 q 1526 206 1486 161 q 1625 246 1557 207 q 1718 309 1683 279 l 1820 180 z "},"ﻓ":{"ha":347,"x_min":-65,"x_max":309,"o":"m 142 929 q 125 871 127 878 q 90 823 113 844 q -65 941 -10 879 q -20 1061 -54 994 q 64 1018 36 1041 q 101 980 69 1014 q 134 945 133 947 q 142 929 137 939 m 309 497 q 301 437 309 468 q 269 338 290 396 q 100 178 264 330 l -2 307 q 108 391 14 326 q 195 494 180 440 q 212 587 212 554 q 132 741 212 688 q 75 770 111 755 q 20 635 20 731 q 38 584 20 606 q 86 560 57 560 q 100 561 91 560 q 147 602 119 570 q 181 565 174 585 l 181 555 q 176 538 181 546 q -2 410 172 500 l -2 437 q 91 495 29 454 q 26 563 58 529 q -4 650 -4 602 q 17 730 -4 685 q 68 793 39 779 l 79 793 q 147 758 108 795 q 268 643 267 645 q 309 497 309 591 m 46 996 q -7 1026 35 1004 l -35 954 l 19 923 q 46 996 29 941 z "},"ﻔ":{"ha":404,"x_min":-37,"x_max":507,"o":"m 170 831 q 153 773 155 779 q 118 724 140 744 q -37 843 18 781 q 7 962 -26 897 q 76 930 58 943 q 132 878 94 918 q 170 831 146 864 m 406 412 q 249 361 335 361 q 130 405 174 361 q 181 562 181 490 q 168 618 181 589 q 129 654 153 654 q 88 626 114 654 q 37 464 37 571 q 43 434 37 446 q -1 410 18 411 l -1 439 l 4 441 l 15 442 q 14 477 14 456 q 69 640 14 579 q 129 677 104 677 q 194 627 138 677 q 280 544 269 559 q 307 427 307 505 q 296 385 307 406 q 406 440 340 390 l 406 412 m 169 534 q 90 444 169 494 q 45 507 45 481 q 69 553 45 525 q 111 581 94 581 q 168 544 144 581 q 169 534 169 534 m 507 180 q 385 142 455 142 q 200 233 290 142 q 98 179 168 193 l -3 308 q 54 321 17 311 q 98 368 59 327 q 188 294 163 309 q 301 268 233 268 q 406 309 345 268 l 507 180 m 74 898 q 21 928 63 906 l -7 855 l 47 825 q 74 898 57 843 z "},"ﻕ":{"ha":728,"x_min":-8,"x_max":694,"o":"m 694 309 q 633 32 694 150 q 413 -115 557 -115 q 216 -57 296 -115 q 69 92 179 -31 q 14 201 37 128 q -8 324 -8 270 q 62 598 -8 448 q 197 802 103 685 q 347 996 323 960 q 285 980 337 994 q 222 970 246 970 q 195 975 204 970 q 239 1092 201 1012 q 332 1113 286 1103 q 422 1128 404 1129 l 431 1127 q 547 1012 473 1090 q 548 967 548 994 q 505 863 548 939 q 420 750 468 798 q 392 754 404 754 q 300 594 300 754 q 207 423 245 517 q 164 235 164 317 q 191 134 164 191 q 307 117 229 117 q 514 322 445 117 l 538 318 q 321 93 439 93 q 176 112 222 93 q 70 216 112 138 q 41 329 41 271 q 140 640 41 477 q 323 893 157 669 q 422 1102 422 1026 q 254 1071 409 1102 q 220 994 243 1044 q 304 1009 243 996 q 389 1021 355 1021 q 263 846 354 951 q 130 677 162 730 q 54 517 100 629 q 16 346 16 422 q 36 214 16 277 q 57 155 40 202 q 161 46 82 86 q 311 10 231 10 q 513 151 441 10 q 571 407 571 263 q 465 686 571 605 q 397 715 428 715 q 364 707 382 715 q 339 600 339 682 q 341 554 339 563 q 365 515 345 532 q 408 494 387 494 q 458 522 441 494 q 480 578 469 536 q 559 442 559 532 q 538 318 559 388 l 514 323 q 527 372 522 342 q 456 390 474 374 q 315 566 315 519 q 392 738 315 738 q 468 720 450 738 l 583 604 q 642 539 604 583 q 694 309 694 468 z "},"ﻖ":{"ha":627,"x_min":-4,"x_max":730,"o":"m 730 180 q 677 151 713 170 q 680 130 680 140 q 621 -125 680 5 q 441 -285 549 -285 q 391 -273 422 -285 q 346 -248 359 -261 q 208 -102 250 -160 q 176 -38 191 -81 q 153 30 165 -4 q 140 -3 146 23 q 116 -33 136 -26 q -1 80 81 -1 q -4 160 -4 101 q 33 271 -4 210 q 123 338 75 338 q 213 279 157 338 q 278 200 241 250 q 294 90 287 180 q 301 -28 297 31 q 311 -31 307 -31 q 414 12 376 -31 q 476 110 431 30 l 399 191 q 350 346 350 212 q 366 397 350 374 q 411 424 384 424 q 521 365 465 424 q 628 439 545 376 l 628 411 q 514 338 565 356 q 410 400 452 400 q 386 382 399 400 q 373 352 373 364 q 420 210 373 210 q 530 249 440 210 l 522 187 q 461 30 510 99 q 323 -53 404 -53 q 229 -21 269 -53 q 167 178 167 28 l 167 211 q 161 286 167 264 q 123 315 151 315 q 57 262 87 315 q 20 178 52 253 l 19 140 l 20 106 q 24 125 21 110 q 63 191 30 155 q 127 229 99 229 q 161 203 153 229 q 163 156 163 195 q 203 -42 163 50 q 346 -159 254 -159 q 389 -146 366 -159 q 513 17 465 -100 q 554 222 554 121 l 550 267 q 628 309 585 280 l 730 180 m 399 585 q 388 537 399 560 q 321 473 377 514 q 237 428 264 433 q 186 470 212 449 q 153 525 153 500 q 172 627 153 547 q 325 728 251 673 l 397 663 q 398 624 397 650 q 399 585 399 598 m 304 650 l 304 679 q 195 612 270 652 q 178 526 189 594 q 256 578 217 551 q 304 650 305 616 z "},"ﻗ":{"ha":292,"x_min":-165,"x_max":309,"o":"m 80 970 q 69 922 80 945 q 2 858 58 899 q -81 812 -54 817 q -133 854 -107 833 q -165 909 -165 885 q -147 1012 -165 932 q 6 1112 -68 1058 l 78 1047 q 79 1008 78 1034 q 80 970 80 983 m 309 497 q 301 437 309 468 q 269 338 290 396 q 100 178 264 330 l -2 307 q 108 391 14 326 q 195 494 180 440 q 212 587 212 554 q 132 741 212 688 q 75 770 111 755 q 20 635 20 731 q 38 584 20 606 q 86 560 57 560 q 100 561 91 560 q 147 602 119 570 q 181 565 174 585 l 181 555 q 176 538 181 546 q -2 410 172 500 l -2 437 q 91 495 29 454 q 26 563 58 529 q -4 650 -4 602 q 17 730 -4 685 q 68 793 39 779 l 79 793 q 147 758 108 795 q 268 643 267 645 q 309 497 309 591 m -14 1034 l -15 1063 q -124 997 -49 1036 q -141 910 -130 979 q -62 962 -102 936 q -14 1034 -14 1000 z "},"ﻘ":{"ha":404,"x_min":-30,"x_max":507,"o":"m 216 843 q 205 795 216 818 q 137 731 195 773 q 54 686 79 690 q 3 728 28 707 q -30 783 -30 758 q -12 885 -30 805 q 142 985 75 935 l 214 920 q 215 882 214 907 q 216 843 216 856 m 406 412 q 332 371 362 380 q 249 361 302 361 q 130 405 174 361 q 181 562 181 490 q 168 618 181 589 q 129 654 153 654 q 88 626 115 654 q 37 464 37 572 q 43 434 37 446 q -1 410 18 410 l -1 439 l 4 441 l 15 442 q 14 477 14 456 q 69 640 14 579 q 129 677 104 677 q 263 564 135 677 q 307 427 307 526 q 296 385 307 406 q 355 404 330 389 q 406 440 363 408 l 406 412 m 169 534 q 90 444 169 495 q 45 507 45 481 q 69 553 45 525 q 111 581 94 581 q 168 544 144 581 q 169 534 169 536 m 507 180 q 385 142 455 142 q 200 233 290 142 q 98 179 167 193 l -3 308 q 54 321 17 311 q 98 368 70 338 q 189 294 162 309 q 301 268 234 268 q 406 309 345 268 l 507 180 m 121 907 l 121 937 q 12 870 87 909 q -5 783 -1 828 q 73 836 34 809 q 121 907 122 873 z "},"ﻙ":{"ha":864,"x_min":-128,"x_max":844,"o":"m 844 1436 q 780 1222 808 1337 q 766 1128 772 1190 q 755 1035 760 1061 q 737 1010 752 1022 l 719 1010 l 644 1128 q 366 972 503 1026 q 555 714 465 882 q 646 802 612 756 q 709 909 669 833 l 722 918 q 791 861 757 890 q 842 791 842 814 q 818 705 842 760 q 741 591 785 632 q 629 509 732 585 q 676 248 676 351 q 672 123 676 154 q 633 5 665 64 q 541 -130 583 -88 q 394 -193 477 -193 q 214 -96 318 -193 q 88 70 120 -9 q 61 201 61 137 q 273 561 61 426 q 243 768 271 593 q 227 977 224 895 q 125 1051 209 985 l 124 1058 q 134 1074 124 1069 q 199 1099 156 1082 q 342 1164 273 1130 q 542 1333 414 1200 q 701 1539 669 1466 l 718 1551 q 844 1436 779 1499 m 247 785 q 209 730 247 761 q 171 690 171 699 q 219 640 191 673 q 222 591 222 616 q 199 536 222 566 q 76 451 168 496 q -66 407 -16 407 l -128 486 q 81 623 -60 534 q 39 664 43 659 q 21 719 21 687 q 69 807 21 755 q 153 858 117 858 q 182 854 172 858 l 247 792 l 247 785 m 708 1501 q 547 1303 640 1401 q 354 1143 435 1185 q 258 1100 321 1126 l 241 1084 q 455 1198 379 1146 q 637 1359 547 1259 l 658 1348 q 641 1135 643 1274 l 627 1135 q 640 1220 635 1148 q 708 1501 651 1353 m 688 816 l 684 823 q 604 720 644 756 q 492 650 564 684 q 256 1050 431 869 q 253 979 256 1027 q 250 906 250 930 q 271 739 250 883 q 298 549 281 673 q 85 201 85 421 q 144 18 85 97 q 311 -68 210 -68 q 467 30 391 -68 q 546 203 534 118 q 551 345 551 243 q 499 622 551 437 q 614 701 557 662 q 688 816 673 750 m 166 836 q 90 792 123 821 q 48 718 48 757 q 109 628 48 692 l 109 625 q -59 500 82 591 q 45 547 -12 514 q 132 619 113 587 q 144 675 144 642 q 117 706 144 682 q 90 741 90 730 q 122 792 90 766 q 166 836 160 822 m 471 641 q 414 610 465 637 q 317 551 397 600 q 281 879 281 781 q 288 913 281 882 q 471 641 442 759 m 526 361 q 472 137 526 230 q 284 24 406 24 q 152 86 199 24 q 111 231 111 142 q 123 301 111 247 q 187 435 141 383 q 305 528 221 473 q 324 404 313 486 l 328 404 l 334 406 l 315 531 q 482 625 379 563 q 526 424 526 469 l 526 361 m 437 648 l 393 726 l 407 637 l 437 648 m 499 370 q 498 372 499 368 l 496 386 l 492 437 q 442 416 475 435 q 459 239 459 294 q 440 222 459 231 q 410 269 420 222 q 400 333 405 301 l 390 376 q 296 303 319 329 q 248 196 261 264 q 236 100 236 139 q 237 61 236 98 q 285 47 267 47 q 401 91 342 47 q 499 370 499 165 z "},"ﻚ":{"ha":1226,"x_min":-17,"x_max":1329,"o":"m 1329 180 q 1249 144 1291 144 q 1063 288 1185 144 q 1011 409 1017 343 l 871 211 q 708 34 785 91 q 483 -40 607 -40 q 214 73 326 -40 q 86 205 168 116 q 9 365 37 267 q -17 541 -17 455 q 15 678 -17 598 q 85 803 45 754 q 235 924 145 875 q 419 977 332 977 q 548 939 498 977 q 640 839 572 920 q 715 909 658 850 q 871 1143 823 1016 q 924 1286 898 1215 q 1008 1414 956 1362 l 1017 1415 q 1116 1306 1044 1391 q 1116 1232 1116 1309 q 1128 1147 1116 1195 q 1163 1069 1143 1095 q 1143 1031 1163 1048 q 1063 1090 1103 1078 q 965 851 1013 924 q 774 673 905 758 l 785 656 l 786 651 q 766 629 779 635 l 742 654 q 566 607 640 613 q 445 718 528 637 q 444 731 444 724 q 533 778 444 738 l 536 784 l 528 784 q 370 728 463 784 q 171 429 171 608 q 222 250 171 314 q 389 209 302 209 q 635 322 496 209 q 847 579 747 414 q 1023 728 938 728 l 1034 727 q 1111 657 1069 701 l 1154 612 q 1192 408 1174 591 q 1227 439 1202 413 l 1227 412 q 1145 363 1189 363 q 1114 376 1124 363 q 1096 407 1112 378 q 1062 523 1070 454 q 1052 644 1057 583 q 1021 705 1044 705 q 907 627 969 705 q 787 458 847 543 q 650 304 715 357 q 375 186 505 186 q 132 286 220 186 q 46 538 46 380 q 288 868 46 734 q 444 916 374 916 q 494 912 479 916 q 614 802 522 905 q 562 769 594 785 q 507 741 516 746 q 650 787 578 749 q 694 717 665 764 l 682 713 q 641 783 667 741 q 869 1013 797 883 q 981 1320 909 1088 l 1004 1316 q 1075 1099 1004 1244 q 1010 1364 1010 1266 q 1017 1401 1010 1377 q 926 1220 969 1335 q 817 989 865 1063 q 632 810 751 891 q 544 910 576 886 q 418 947 494 947 q 210 874 322 947 q 62 720 117 814 q 4 515 4 621 q 33 366 4 475 q 157 163 68 237 q 381 85 250 85 q 661 218 530 85 q 845 465 720 279 q 983 598 935 598 q 1025 533 1017 598 q 1040 398 1033 466 q 1104 286 1055 315 q 1152 269 1131 269 q 1227 309 1169 269 l 1329 180 m 525 571 q 495 528 525 553 q 465 495 465 503 q 492 470 478 482 q 505 437 506 455 l 505 414 q 412 316 503 367 q 275 269 328 269 l 225 332 q 393 442 281 370 q 359 475 362 471 q 345 519 345 493 q 383 589 345 548 q 450 630 422 630 q 492 612 471 630 q 525 577 509 594 l 525 571 m 460 612 q 400 577 431 605 q 366 518 366 547 q 388 477 366 499 q 415 443 412 451 q 281 343 374 403 q 443 484 443 395 q 418 510 440 487 q 399 536 399 528 q 453 600 399 556 l 460 612 z "},"ﻛ":{"ha":525,"x_min":-113,"x_max":545,"o":"m 545 1249 q 534 1183 545 1223 q 519 1119 520 1127 q 460 812 503 1015 q 445 790 457 802 l 422 790 l 315 902 q 187 815 266 846 q 233 739 196 804 q 273 661 268 675 q 286 574 286 627 q 228 361 286 479 q 100 179 174 253 l -1 309 q 121 422 60 347 q 192 567 192 508 q 66 887 192 735 q 35 753 35 806 q 36 701 35 719 l 46 686 q 47 739 47 712 q 60 789 49 762 q 130 705 100 757 q 163 604 163 649 q -1 410 163 491 l -1 437 q 140 594 140 517 l 110 584 q 78 625 79 623 q 37 654 58 646 q 12 764 4 694 q -12 783 -8 765 l -96 866 l -112 876 l -113 885 l -104 901 q 132 1015 41 949 q 314 1204 227 1082 q 404 1358 380 1298 q 419 1364 411 1361 q 492 1312 438 1364 q 545 1249 545 1262 m 419 1340 l 416 1341 q 261 1101 366 1218 q 35 928 150 977 q -47 897 7 918 q 175 996 104 943 q 344 1172 227 1035 l 364 1162 q 347 972 352 1116 q 373 1093 357 989 q 394 1230 392 1221 q 419 1340 402 1267 z "},"ﻜ":{"ha":433,"x_min":-109,"x_max":535,"o":"m 433 412 q 304 357 371 357 q 157 397 195 357 q 78 621 138 418 q 7 865 43 743 l 6 817 q 5 791 6 808 l 5 792 q 45 666 26 729 q 74 542 74 576 q -3 410 74 479 l -3 437 q 51 544 30 476 q 21 668 47 592 q -18 790 -11 760 q -101 842 -59 825 l -109 852 l -109 857 q -74 887 -98 871 q -36 913 -37 913 q 138 1129 77 1003 q 194 1283 170 1196 q 233 1441 213 1362 q 258 1473 241 1473 q 380 1359 286 1455 q 323 1013 323 1130 q 328 926 323 949 q 301 903 322 910 q 256 942 290 918 q 121 798 204 866 q 248 385 126 784 q 295 378 264 378 q 369 396 328 378 q 433 439 410 414 l 433 412 m 535 180 q 384 132 460 132 q 171 270 256 132 q 98 178 139 206 l -3 307 q 72 466 53 376 l 95 468 q 150 321 127 353 q 287 258 193 258 q 433 309 370 258 l 535 180 m 239 1320 l 239 1377 q 182 1177 223 1282 q 84 996 137 1058 q -67 858 65 974 q 86 961 36 907 q 183 1117 133 1010 q 208 1048 193 1094 q 205 1120 205 1088 q 222 1227 205 1162 q 239 1320 239 1293 z "},"ﻝ":{"ha":891,"x_min":18,"x_max":923,"o":"m 923 922 q 716 799 795 833 q 805 579 771 730 q 834 340 834 451 q 806 176 834 269 q 784 98 795 137 q 751 24 770 52 q 499 -113 656 -113 q 296 -46 392 -113 q 136 102 250 -13 q 50 239 81 157 q 18 401 18 321 q 58 577 18 481 q 158 723 98 673 q 416 882 256 805 q 342 1209 342 1109 q 349 1295 342 1256 q 470 1172 418 1227 q 543 1077 500 1139 q 612 979 593 1003 q 803 1057 675 1006 q 923 922 823 1055 m 798 1022 l 791 1027 q 571 927 720 991 q 368 1242 481 1085 l 365 1241 l 365 1230 q 392 1047 365 1151 q 444 869 418 958 q 334 812 382 841 q 176 704 218 745 q 72 543 112 645 q 41 391 41 466 q 76 242 41 332 q 300 35 143 68 q 385 22 360 22 q 682 283 605 22 q 710 450 710 380 q 676 693 710 561 q 576 913 637 845 l 798 1022 m 539 915 l 449 872 q 416 988 438 903 q 392 1097 392 1079 q 399 1116 392 1103 q 539 915 454 1050 m 680 507 q 671 379 680 422 q 557 189 651 277 q 359 96 459 96 q 165 183 246 96 q 85 382 85 269 q 115 534 85 448 q 234 727 157 659 q 427 848 279 767 l 507 552 l 512 547 l 517 546 q 475 701 496 623 q 451 857 451 796 l 545 900 q 680 507 680 649 m 657 502 q 635 626 657 555 q 593 746 614 686 l 578 741 q 617 564 582 709 q 640 386 643 456 l 639 371 q 501 475 593 406 q 444 671 482 530 q 274 511 327 606 q 224 282 224 420 q 238 160 224 185 q 348 119 260 119 q 540 203 447 119 q 649 383 630 284 q 657 502 657 426 z "},"ﻞ":{"ha":797,"x_min":-12,"x_max":899,"o":"m 899 180 q 829 150 873 150 q 728 156 751 150 q 647 215 682 168 q 642 123 647 153 q 625 77 640 116 q 387 -123 545 -123 q 218 -68 294 -123 q 88 56 189 -47 q 30 131 43 101 q -12 332 -12 221 q 328 658 -12 566 q 419 682 358 665 q 380 797 391 769 q 328 906 355 863 l 328 941 q 344 1040 328 1001 l 458 926 q 541 723 467 918 q 569 737 565 736 q 600 743 577 740 q 675 562 675 600 q 602 538 675 555 q 652 396 616 485 q 703 391 675 391 q 755 404 734 391 q 798 438 767 410 l 798 412 q 671 365 771 365 q 512 531 574 365 q 488 592 500 562 q 474 655 475 629 q 535 678 524 673 q 583 713 578 697 l 580 715 q 468 671 560 714 q 354 983 425 808 q 351 945 351 960 l 352 913 q 449 666 397 844 q 161 564 239 610 q 12 318 12 476 q 39 173 12 253 q 292 3 98 3 q 447 85 383 3 q 519 253 499 153 q 523 361 523 274 l 545 366 q 623 287 578 304 q 734 275 653 275 q 798 309 762 275 l 899 180 m 509 365 q 439 164 509 241 q 245 84 367 84 q 92 164 153 84 q 36 332 36 237 q 454 644 36 543 q 509 365 509 439 m 486 365 q 468 490 486 409 q 309 432 361 462 q 184 317 241 394 q 159 179 159 282 q 180 125 159 155 q 252 108 224 108 q 425 184 359 108 q 486 365 486 256 z "},"ﻟ":{"ha":271,"x_min":-92,"x_max":266,"o":"m 266 578 q 225 359 266 466 q 98 178 179 237 l -3 308 q 140 684 140 454 q 113 863 140 784 q 31 1025 91 925 q -9 1089 -1 1078 q -60 1143 -37 1129 q -68 986 -68 1094 q -37 814 -68 948 q -44 927 -37 850 q -51 1039 -52 1000 l -51 1046 q 115 718 115 808 q 55 469 115 539 q -3 410 44 456 l -3 437 q 87 720 87 530 q 51 653 75 690 q -50 762 2 699 q -75 864 -52 779 q -92 968 -92 926 q -66 1173 -92 1147 q 79 1039 -18 1128 q 147 945 106 1013 q 237 771 215 831 q 266 578 266 690 z "},"ﻠ":{"ha":465,"x_min":-2,"x_max":568,"o":"m 466 410 q 359 359 421 359 q 254 414 287 359 q 214 533 240 437 q 196 602 208 555 l 119 973 q 72 1131 104 1046 q 69 1055 69 1124 q 79 1016 69 1042 q 92 977 90 983 q 130 793 104 915 l 152 696 q 153 694 153 694 q -1 410 151 581 l -1 437 q 83 559 62 517 q 128 699 104 602 q 68 968 109 774 q 46 1090 46 1077 q 54 1160 46 1139 l 68 1166 l 184 1059 q 212 968 189 1024 q 244 878 238 901 q 298 631 269 786 q 346 382 332 442 q 466 439 418 389 l 466 410 m 568 179 q 494 151 531 151 q 427 167 464 151 q 310 247 357 197 q 223 359 286 272 l 211 357 q 100 178 191 268 l -2 307 q 153 564 69 395 l 176 565 l 226 385 q 289 304 239 334 q 389 276 334 276 q 466 309 433 276 l 568 179 z "},"ﻡ":{"ha":766,"x_min":54,"x_max":781,"o":"m 781 -454 q 653 -481 775 -481 q 444 -442 551 -481 q 264 -332 332 -400 q 111 -161 139 -203 q 54 59 54 -72 q 80 186 54 95 q 224 448 117 316 q 432 668 280 518 q 423 738 423 691 q 427 792 423 779 q 529 825 501 800 q 577 923 557 850 l 585 932 q 604 937 598 937 l 609 937 l 716 834 q 722 774 722 810 q 631 518 722 641 q 444 311 623 507 q 286 68 326 184 q 257 -90 257 -18 q 297 -228 257 -174 q 414 -290 319 -257 q 549 -328 490 -317 q 692 -336 593 -336 q 670 -332 675 -336 l 685 -329 q 781 -454 691 -338 m 682 -360 l 672 -360 q 414 -319 528 -361 q 304 -262 363 -300 q 207 -183 239 -220 q 133 54 133 -96 q 157 165 133 89 q 281 380 189 270 q 452 564 366 472 q 568 726 545 665 q 597 892 596 798 q 543 804 581 832 q 447 770 510 780 l 447 738 q 452 679 447 693 l 464 667 q 207 382 287 495 q 76 31 76 198 q 134 -152 76 -75 q 279 -282 171 -200 q 423 -351 352 -338 q 598 -364 492 -364 q 682 -360 669 -364 z "},"ﻢ":{"ha":362,"x_min":-60,"x_max":583,"o":"m 583 -621 q 488 -663 583 -646 q 366 -675 415 -675 q 288 -675 296 -675 q 186 -646 250 -672 q 96 -594 119 -619 l -20 -470 q -40 -414 -28 -461 q -60 -301 -60 -330 q 123 31 -60 -132 q 104 116 104 72 q 123 197 104 146 q 227 332 147 266 q 365 438 296 385 l 365 412 q 281 341 337 388 q 204 282 243 312 q 150 201 173 254 q 127 109 127 149 q 153 26 127 65 l 77 -43 q -6 -163 26 -90 q -37 -308 -37 -237 q -7 -424 -37 -349 q 48 -500 14 -475 q 136 -536 77 -522 q 249 -557 222 -557 q 439 -528 363 -557 q 238 -536 345 -536 q 132 -513 203 -536 q -3 -309 -3 -468 q 57 -176 -3 -231 l 186 -57 q 245 20 231 -16 q 258 113 258 52 q 253 165 258 155 q 218 109 246 139 q 164 73 189 76 l 149 85 q 148 119 148 94 q 234 214 148 143 q 364 309 299 262 l 466 180 q 363 107 401 121 l 269 170 q 332 116 294 142 q 370 79 361 96 q 383 -3 383 55 q 366 -99 383 -62 q 304 -176 349 -135 l 176 -295 q 122 -455 122 -345 q 124 -484 122 -463 q 252 -513 199 -513 q 250 -513 251 -513 q 252 -512 251 -512 l 267 -511 q 336 -509 285 -510 q 471 -503 418 -507 q 583 -618 493 -522 l 583 -621 z "},"ﻣ":{"ha":382,"x_min":-3,"x_max":363,"o":"m 363 465 q 353 427 363 452 q 339 388 340 393 q 269 396 290 396 q 180 304 222 396 q 98 179 130 199 l -3 307 q 45 389 20 329 q 89 479 73 458 q 168 522 120 522 q 220 516 165 522 q 238 577 238 564 q 237 596 238 578 q 155 621 214 607 q 75 651 100 633 q 58 572 58 608 l 58 567 q 75 545 75 557 q 43 474 59 509 q -2 410 24 436 l -2 437 q 50 547 26 471 l 43 548 l 35 554 q 64 684 35 620 q 169 645 85 672 q 252 616 248 619 l 360 510 q 363 465 363 487 z "},"ﻤ":{"ha":331,"x_min":-3,"x_max":434,"o":"m 332 412 q 263 391 283 391 q 153 437 216 391 q 67 493 83 489 q -3 410 37 447 l -3 437 q 66 516 50 516 q 152 465 81 516 q 264 414 224 414 q 332 439 288 414 l 332 412 m 434 180 q 386 168 406 168 q 300 201 336 168 q 277 164 290 182 q 243 140 265 146 q 190 172 228 142 q 142 217 154 201 q 98 178 133 194 l -3 308 q 39 367 22 330 q 146 264 83 292 q 196 345 156 279 q 280 292 237 292 q 332 309 304 292 l 434 180 z "},"ﻥ":{"ha":616,"x_min":-24,"x_max":567,"o":"m 567 283 q 562 240 567 267 q 541 134 556 204 q 473 20 527 79 q 365 -54 418 -42 q 294 -60 334 -60 q 134 16 205 -60 l 18 142 q -10 219 5 157 q -24 303 -24 276 q 51 606 -24 465 q 243 854 113 725 q 300 921 288 898 q 333 1001 305 930 q 362 1012 346 1009 q 459 895 400 972 l 459 890 q 441 816 459 878 q 417 746 423 754 q 340 669 391 720 q 138 225 138 454 q 146 185 138 220 q 210 175 175 175 q 279 197 247 175 q 233 240 270 217 q 189 277 196 263 l 188 285 q 198 374 188 310 q 227 509 215 480 q 333 579 258 579 q 469 497 389 579 q 558 361 545 419 q 567 283 567 320 m 456 396 q 416 501 456 450 q 322 555 374 555 q 240 476 273 555 q 212 354 214 415 q 213 337 212 348 q 214 320 214 326 l 212 285 l 216 283 l 218 281 q 286 267 258 274 q 297 309 295 281 q 303 351 299 340 l 305 353 q 269 364 287 363 l 277 363 l 232 362 q 318 450 240 450 q 386 431 358 450 q 416 371 416 410 q 290 175 416 260 q 182 151 253 151 q 100 180 138 151 q 47 257 60 210 q 39 351 39 287 q 61 476 39 397 q 256 793 104 633 q 321 859 279 814 q 358 978 328 866 q 309 884 330 947 q 227 798 256 831 q 60 570 100 649 q 0 296 0 454 q 51 140 0 210 q 189 64 107 64 l 214 64 q 394 180 323 65 q 456 396 456 279 z "},"ﻦ":{"ha":609,"x_min":5,"x_max":712,"o":"m 340 515 q 322 457 326 466 q 288 408 310 429 q 132 527 187 465 q 177 646 144 580 q 261 604 233 627 q 340 515 320 555 m 712 182 q 630 138 680 149 q 633 77 633 86 q 576 -141 633 -34 q 407 -269 508 -269 q 305 -236 341 -269 q 216 -152 239 -176 q 145 -55 162 -96 q 120 73 127 -11 l 117 73 l 104 49 q 11 134 73 80 q 5 186 5 153 q 42 304 5 250 q 144 363 83 363 q 285 254 182 363 q 297 210 297 212 q 287 123 297 181 q 276 37 276 66 q 289 -18 276 14 q 311 -20 307 -20 q 419 46 368 -20 q 469 166 469 109 q 404 318 469 260 q 403 334 403 332 q 431 462 403 425 q 515 373 468 447 q 610 439 549 382 l 610 412 q 564 368 595 387 q 504 349 533 349 q 441 431 480 387 q 426 337 426 387 q 428 330 427 334 q 492 166 492 262 q 435 30 492 99 q 310 -43 376 -43 q 209 12 248 -43 q 174 125 174 60 q 181 195 174 149 q 188 265 188 241 q 176 311 188 286 q 146 340 163 340 q 62 290 99 340 q 29 194 28 243 l 29 167 q 157 239 69 236 q 143 107 143 183 q 200 -95 143 -34 q 304 -144 245 -144 q 458 -24 396 -144 q 509 177 509 75 q 504 264 509 185 l 509 264 q 610 309 547 262 l 712 182 m 243 582 q 191 612 232 590 l 163 539 l 193 488 l 225 528 l 243 582 z "},"ﻧ":{"ha":214,"x_min":-132,"x_max":196,"o":"m 75 893 q 58 836 61 844 q 23 787 45 807 q -132 905 -77 843 q -87 1025 -121 958 q -3 982 -31 1005 q 75 893 56 934 m 196 387 q 100 178 196 264 l -1 308 q 43 393 21 351 q 68 484 68 443 q 37 612 68 552 q -31 723 3 667 q -54 612 -56 657 l -54 602 l -38 627 q 17 563 -9 604 q 46 486 46 517 q 32 441 46 465 q -2 410 16 414 l -2 437 q 11 473 11 456 q -60 555 11 514 q -81 599 -81 555 q -68 685 -81 636 q -30 757 -53 745 q 121 592 81 649 q 196 387 196 488 m -21 960 q -74 990 -33 968 l -102 918 l -72 866 l -39 906 l -21 960 z "},"ﻨ":{"ha":271,"x_min":-75,"x_max":379,"o":"m 133 657 q 115 600 119 608 q 81 551 103 571 q -75 669 -20 607 q -30 789 -63 722 q 54 746 26 769 q 133 657 113 698 m 277 412 q 119 336 217 336 q 20 354 46 336 q 45 437 46 403 l 45 463 q -3 410 38 435 l -3 437 q 21 483 -1 439 q 47 517 38 517 q 174 372 67 517 q 277 439 234 397 l 277 412 m 379 180 q 228 130 318 130 q 159 146 203 130 q 98 180 111 163 l -4 308 q 122 257 37 257 q 277 309 203 257 l 379 180 m 37 724 q -16 754 25 732 l -44 682 l -14 630 l 18 670 l 37 724 z "},"ﻩ":{"ha":466,"x_min":43,"x_max":456,"o":"m 456 172 q 408 -6 456 83 q 271 -110 352 -110 q 112 -37 180 -110 q 43 127 43 36 q 79 353 43 240 q 212 505 127 505 q 356 397 221 500 q 390 370 368 389 q 456 172 456 307 m 327 311 q 295 416 327 361 q 212 478 259 478 q 102 332 144 478 q 71 127 71 222 q 92 42 71 64 q 174 19 113 19 q 293 132 249 19 q 327 311 327 220 m 277 236 q 239 186 277 207 q 174 170 206 170 q 100 223 100 170 q 127 290 100 252 q 182 330 156 330 q 242 295 207 330 q 277 236 277 260 z "}}}
